<svg xmlns:xlink="http://www.w3.org/1999/xlink" xmlns="http://www.w3.org/2000/svg" fill="none" viewBox="0 0 1440 850" class="footer_flames__3UuVO" width="1672"  height="987" ><g fill="#8B83F6" clip-path="url(#flames_svg__clip0)"><path d="M1118.65 589.481c2.99-2.35 6.02-4.657 8.97-7.062 18.37-14.994 38.85-26.157 61.32-33.624 11.35-3.774 22.88-7.018 34.29-10.618 6.07-1.914 12.13-3.893 18.07-6.162 7.15-2.732 14.1-5.926 19.82-11.25.55-.513 1.21-.94 1.88-1.288 1.23-.641 2.61-.682 3.52.354.78.88 1.67 2.207 1.54 3.217-.25 1.971-1.03 3.921-1.83 5.775-4.19 9.719-10.41 18.072-17.58 25.763-7.67 8.225-16.28 15.402-25.02 22.454-10.77 8.694-20.39 18.466-27.89 30.202-4.15 6.498-7.4 13.397-9.05 20.935-.71 3.2-1.12 6.555-1.04 9.824.14 6.015 3.15 9.364 9.02 10.581 7.51 1.557 14.3-.315 19.9-5.329 3.95-3.544 7.64-7.552 10.73-11.871a199.01 199.01 0 0012.2-19.391c5.04-9.143 9.56-18.574 14.32-27.871 7.91-15.457 16.57-30.45 27.71-43.859 21.29-25.624 46.8-46.03 76.38-61.34 12.05-6.24 24.92-10.295 37.85-14.22 7.55-2.291 15.15-4.448 22.63-6.964 5.84-1.964 11.79-2.978 17.87-3.766 6.81-.88 13.55-2.295 20.3-3.511.75-.132 1.47-.438 2.17-.752 1.22-.544 2.42-1.436 1.93-2.837-.36-1.066-1.35-2.227-2.36-2.671-1.04-.453-2.47-.263-3.68-.049a797.39 797.39 0 00-18.01 3.358c-3.04.607-5.32-.148-7.45-2.539-10.43-11.727-12.93-25.017-8.28-39.844 2.49-7.927 6.98-14.701 12.12-21.076 13.06-16.181 28.89-28.65 48.41-36.201 8.08-3.122 16.12-6.329 24.11-9.676 5.4-2.26 10.75-4.664 15.97-7.306 9.1-4.603 14.75-12.312 18.53-21.541 2.09-5.111 2.21-10.377 1.2-15.776-1.09-5.751-1.85-11.557-2.9-17.313-1.42-7.795.06-15.176 2.82-22.431 3.42-8.957 8.66-16.719 15.41-23.472 12.51-12.525 26.42-23.153 42.26-31.197 8.18-4.152 16.3-8.417 24.33-12.841 14.35-7.902 27.49-17.563 39.94-28.139 11.77-9.998 21.17-22.024 28.97-35.302 1.54-2.62 2.44-5.61 3.91-8.277.83-1.498 2.07-2.86 3.39-3.957 1.38-1.146 3.85-.123 4.33 1.612.26.976.4 1.992.52 2.995 2.09 16.311 1.88 32.57-1.98 48.599-5.09 21.08-15.95 39.043-30.74 54.672-6.13 6.475-12.64 12.596-19 18.85-6.57 6.452-12.57 13.382-17.58 21.112-1.66 2.556-3.32 5.169-4.55 7.94-4.57 10.243-4.48 20.128 2.15 29.707 5.22 7.539 10.14 15.289 14.89 23.132 4.77 7.873 8.39 16.281 10.62 25.27 3.54 14.226 3.18 28.248-1.8 42.098-8.97 24.938-24.9 44.206-47.46 57.977-3 1.833-6.4 3.173-9.8 4.157-17.85 5.182-35.85 9.757-54.28 12.449-2.75.4-5.48 1.122-8.12 1.991-.69.227-1.46 1.62-1.37 2.38.1.764 1.17 1.955 1.89 2.01 3.01.246 6.13.594 9.07.075a726.17 726.17 0 0029.2-5.813c6.71-1.471 13.32-3.342 19.97-5.108 2.49-.663 4.6-.202 6.15 1.837 2 2.618 4.28 5.151 5.66 8.083 6.23 13.221 7.44 26.822 2.58 40.833-3.47 10.03-8.62 18.983-15.92 26.701-7.03 7.434-14.66 14.199-23.02 20.069-17.32 12.147-34.77 24.094-52.1 36.223-7.93 5.55-15.81 11.182-23.51 17.052-7.11 5.417-13.56 11.594-19.46 18.323-4.73 5.394-8.7 11.294-11.75 17.805-2.45 5.21-3.04 10.67-2.95 16.373.1 6.45 7.15 13.148 14.82 12.26 3-.346 6.03-1.153 8.84-2.284 13.09-5.261 25.29-12.128 35.83-21.581 3.96-3.553 7.35-7.753 10.93-11.703 1.2-1.318 2.15-2.865 3.36-4.166 2.52-2.702 5.81-2.12 7.3 1.376a24.33 24.33 0 011.64 5.86c2.25 15.235-.88 29.384-8.9 42.472-5.64 9.222-12.71 17.23-21.34 23.759-4.87 3.687-9.96 7.079-15 10.537-6.31 4.324-12.73 8.466-18.96 12.894a49.75 49.75 0 00-13.54 14.398c-3.14 5.05-5.13 10.452-5.53 16.481-.52 7.898-2.17 15.614-4.36 23.23-1.29 4.501-3.36 8.587-6.46 12.015-3.58 3.963-7.47 7.646-11.27 11.411-2.48 2.459-5.53 3.401-9.02 3.451-13.51.187-27.01.622-40.51.731-26.26.207-52.52.219-78.77.379-36.96.22-73.92.488-110.88.752-36.45.259-72.9.531-109.34.813-35.69.275-71.37.576-107.056.838-33.135.245-66.271.443-99.406.689-39.764.295-79.524.624-119.288.924-36.956.276-73.917.527-110.877.799-36.195.27-72.386.562-108.582.828-36.447.264-72.899.498-109.347.761-36.96.268-73.916.549-110.877.83-35.682.275-71.369.572-107.051.834-33.392.243-66.78.43-100.167.669-40.53.292-81.054.585-121.583.929-29.053.248-58.11.591-87.164.847a81.639 81.639 0 01-9.158-.447 11.052 11.052 0 01-4.289-1.392c-3.372-1.963-3.674-6.599-.656-9.045.977-.79 2.146-1.347 3.249-1.965 19.521-10.977 35.162-25.992 46.854-45.091 6.929-11.319 12.552-23.332 18.215-35.302 2.06-4.35 3.379-9.06 4.92-13.65 15.197-45.244 36.998-87.143 63.87-126.505 13.805-20.225 28.16-40.002 44.207-58.537 15.225-17.581 32.045-33.5 49.413-48.912 30.243-26.839 64.736-46.792 101.454-63.198 4.184-1.868 8.456-3.542 12.711-5.245 15.838-6.34 31.777-12.441 47.507-19.037 18.097-7.583 35.715-16.207 53.139-25.233 9.169-4.747 16.809-11.442 24.369-18.306 14.09-12.79 25.371-27.834 35.601-43.762a5359.549 5359.549 0 0128.282-43.616c9.271-14.137 20.428-26.712 32.645-38.347 3.313-3.152 6.88-6.085 10.58-8.775 12.187-8.853 25.021-16.651 38.592-23.225 15.61-7.564 31.725-13.875 48.12-19.502 8.428-2.894 16.815-5.909 25.278-8.694 11.922-3.921 23.155-9.294 33.905-15.701 10.461-6.235 19.287-14.127 25.15-25.029 2.776-5.16 5.869-10.145 8.666-15.293 10.837-19.962 25.249-37.036 42.331-51.845 17.038-14.77 36.883-24.389 58.49-30.488a187.6 187.6 0 0123.121-4.99c7.034-1.057 13.988-2.756 20.886-4.52 3.483-.889 5.944.243 8.21 2.55 1.166 1.19.849 3.988-.657 4.713-1.581.761-3.284 1.392-4.999 1.719-23.364 4.448-42.361 16.795-59.416 32.69-7.391 6.89-12.744 15.218-17.027 24.264-5.142 10.853-9.207 22.036-11.415 33.929-1.904 10.262-4.661 20.36-8.355 30.153-5.001 13.256-12.666 24.924-21.419 35.971-9.648 12.18-21.398 21.816-35.059 29.086-8.99 4.781-18.196 9.154-27.31 13.696-8.889 4.432-17.83 8.76-26.666 13.296-6.628 3.401-12.416 8.003-17.598 13.339-1.595 1.639-3.041 3.429-4.505 5.192-6.307 7.619-8.224 16.233-5.647 25.785a66.834 66.834 0 012.05 23.483c-1.215 13.725-6.823 24.942-18.787 32.441-2.802 1.757-5.684 3.393-8.531 5.081-4.603 2.719-9.303 5.292-13.788 8.197-3.022 1.959-6.123 3.479-9.565 4.611-10.743 3.534-20.625 8.774-29.203 16.22-2.482 2.154-4.617 4.727-6.788 7.214-.633.722-1.155 1.813-1.16 2.739-.006.87.576 1.9 1.207 2.56.421.44 1.623.743 2.069.461 2.564-1.625 5.199-3.228 7.447-5.242 5.17-4.627 10.896-8.382 16.999-11.609.896-.472 1.854-.827 2.812-1.17 1.066-.382 1.321.472 1.365 1.171 1.149 18.483-6.356 33.25-20.019 45.041-5.768 4.976-12.184 9.222-18.439 13.607-8.347 5.849-16.918 11.382-24.527 18.225-7.638 6.869-14.17 14.646-19.446 23.457-2.239 3.739-4.076 7.64-4.105 12.161-.025 3.952 2.055 6.93 5.931 7.738 1.942.406 4.055.471 6.022.199 5.085-.698 9.838-2.583 14.485-4.695 25.97-11.807 46.752-29.676 62.361-53.545 3.066-4.694 6.092-9.421 8.927-14.252 13.297-22.66 30.284-42.137 50.239-59.164 11.074-9.449 22.403-18.495 34.918-25.977 1.302-.78 2.568-1.821 3.987-2.141 1.045-.238 2.687.153 3.371.899.693.76.81 2.328.663 3.481-.11.901-.907 1.794-1.575 2.525-1.03 1.126-2.165 2.165-3.335 3.148-9.896 8.296-17.377 18.585-24.245 29.365-5.108 8.017-8.703 16.727-10.954 25.94-2.293 9.395-4.286 18.865-6.383 28.311-1.825 8.231-4.299 16.24-7.788 23.928-3.835 8.447-9.105 15.884-15.436 22.629-6.56 6.986-14.343 12.17-23.049 16.061-8.138 3.635-16.295 7.235-24.376 10.995-2.759 1.283-5.398 2.874-7.923 4.572-1.206.814-2.226 2.1-2.928 3.392-.399.734-.318 2.146.157 2.82.466.657 1.858 1.242 2.586 1.018 2.658-.825 5.24-1.92 7.783-3.057 4.414-1.975 8.774-4.071 13.17-6.088.42-.191 1.066-.383 1.368-.194.301.189.52.918.41 1.305-3.834 13.459-7.742 26.893-11.581 40.351-4.506 15.808-13.808 28.228-26.77 38.083-7.129 5.418-14.662 10.269-22.942 13.635-6.096 2.479-12.501 4.352-18.918 5.882-19.611 4.671-39.406 8.108-59.692 7.702-2.231-.042-4.495.497-6.7.985-.533.117-1.173 1.066-1.229 1.679-.052.609.42 1.483.941 1.87.782.581 1.782 1.077 2.735 1.182 4.037.45 8.049.87 12.164.754 14.829-.424 29.408-2.663 43.886-5.631 2.973-.611 4.953.216 6.76 2.223 2.816 3.116 4.527 6.714 4.783 10.985.347 5.718-.531 11.146-3.146 16.305-2.789 5.513-6.222 10.588-10.783 14.728-6.033 5.478-12.316 10.68-18.515 15.973-4.072 3.471-8.27 6.8-12.267 10.358-5.36 4.768-10.107 10.114-13.63 16.393-3.231 5.765-4.599 11.853-2.134 18.349 1.697 4.468 4.369 8.181 8.866 10.001 3.266 1.321 6.755 2.692 10.208 2.873 23.475 1.236 44.264-5.561 61.613-21.737 5.868-5.472 10.052-12.248 12.716-19.768 2.886-8.152 5.253-16.487 7.804-24.754 2.101-6.812 3.901-13.725 6.264-20.443 5.907-16.783 15.102-31.659 26.656-45.159 21.119-24.67 47.328-42.374 76.393-56.223 15.883-5.549 29.46-15.031 42.452-25.351 5.762-4.576 10.835-10.02 16.202-15.089 1.109-1.048 2.068-2.251 3.221-3.243 1.044-.899 3.158-.829 4.334-.03 1.162.79 1.515 1.978 1.517 3.304 0 .504-.013 1.035-.161 1.514-3.667 12.18-6.657 24.593-13.096 35.778-6.379 11.075-13.458 21.617-21.962 31.201-4.394 4.952-8.582 10.098-12.66 15.313-8.571 10.971-12.764 23.59-14.092 37.367-.633 6.574-1.794 13.112-3.028 19.608-2.74 14.411-9.53 26.781-19.49 37.459-1.913 2.05-3.94 3.988-5.867 6.025-.31.328-.38.889-.559 1.343.449.101.964.388 1.341.267 2.415-.793 4.9-1.469 7.174-2.566 11.76-5.676 22.676-12.654 32.496-21.31 19.945-17.575 34.091-39.042 43.184-63.941 7.251-19.859 14.394-39.757 21.798-59.556 6.872-18.374 13.979-36.663 23.259-54.008 6.985-13.059 14.909-25.52 23.703-37.428 13.484-18.262 30.012-33.262 49.132-45.419 7.738-4.918 15.505-9.845 23.573-14.174 5.817-3.121 9.445-7.645 11.435-13.647 1.197-3.613 2.071-7.35 2.836-11.086 5.894-28.638 18.872-53.703 38.319-75.399 11.667-13.018 25.204-23.752 41.052-31.374 7.115-3.422 14.26-6.783 21.392-10.175 4.37-2.078 8.757-4.126 13.104-6.248 8.569-4.177 16.039-9.836 22.687-16.654 5.036-5.166 9.211-10.877 12.057-17.529 1.702-3.982 3.544-7.905 5.19-11.909 6.902-16.805 17.503-30.966 30.648-43.365 22.889-21.585 49.559-36.394 79.839-44.771 7.89-2.185 15.94-3.307 24.13-3.581 3.55-.12 7.09-.675 10.65-.92 3.55-.247 7.12-.293 10.68-.54 3.83-.26 6.14 2.003 8.17 4.743 1.02 1.369.61 3.82-.97 4.728-1.97 1.129-4.07 2.046-6.19 2.88-5.69 2.237-11.53 4.114-17.09 6.615-20.66 9.296-38.93 22.102-55.18 37.878-11.38 11.05-19.6 24.023-24.54 39.095-3.65 11.132-7.1 22.336-11.1 33.34-5.784 15.913-14.186 30.487-24.24 44.057-10.965 14.803-25.15 26.015-41.278 34.605-9.219 4.908-14.778 12.086-17.611 21.886-2.922 10.108-4.265 20.417-4.389 30.903-.07 5.865-.027 11.729-.106 17.589-.047 3.313-.203 6.622-.376 9.932-.313 5.958-2.046 11.458-5.052 16.637-7.73 13.325-17.079 25.373-28.384 35.827-8.612 7.968-17.716 15.375-27.514 21.853-4.242 2.803-8.787 5.144-13.13 7.804-1.488.912-2.856 2.071-4.085 3.311-.375.377-.34 1.511-.062 2.091.279.581 1.08 1.235 1.68 1.265 1.23.055 2.603-.008 3.69-.512 3.915-1.823 7.892-3.594 11.555-5.853 11.753-7.25 22.371-16.008 32.608-25.237a78.135 78.135 0 003.317-3.17c1.363-1.38 3.016-1.741 4.886-1.643 5.301.279 9.925 2.171 13.797 5.796 4.362 4.081 7.47 8.973 9.407 14.639 3.219 9.394 3.475 18.99 1.866 28.67-2.184 13.185-7.023 25.491-12.655 37.53-8.586 18.34-19.849 34.998-32.1 51.02-5.261 6.88-10.767 13.575-16.167 20.357-4.153 5.215-9.064 9.662-14.243 13.812-10.348 8.295-21.04 16.11-32.536 22.776-2.864 1.662-5.618 3.51-8.381 5.336-.835.55-1.673 1.218-2.227 2.026-.361.525-.509 1.556-.222 2.071.304.554 1.252 1.12 1.865 1.068 1.494-.13 3.065-.382 4.412-1.005 3.461-1.602 6.995-3.161 10.182-5.225 7.905-5.128 16.016-10.053 23.302-15.976 5.476-4.457 11.086-4.706 17.173-3.391 8.335 1.798 12.903 8.164 12.447 16.775-.261 4.914-1.945 9.449-4.036 13.847-4.642 9.745-10.949 18.385-17.943 26.519-5.151 5.988-10.538 11.774-15.956 17.525-4.719 5.007-9.719 9.751-14.404 14.792-2.094 2.251-5.312 3.755-5.595 7.405 3.225.521 5.854-1.261 8.658-2.287 7.715-2.819 14.82-6.849 21.388-11.706 9.217-6.816 18.219-13.931 27.326-20.895 10.339-7.903 20.959-15.388 32.817-20.9 3.69-1.716 7.455-3.298 11.286-4.655 2.623-.93 5.39-1.683 8.148-1.94 5.065-.471 9.531.741 12.624 5.38 2.319 3.481 2.483 3.366 4.929-.131 5.182-7.427 8.572-15.623 10.213-24.504 1.666-9.012 3.079-18.069 4.75-27.081 3.282-17.693 9.564-34.319 18.28-50.021 2.965-5.344 6.231-10.526 9.484-15.704 13.858-22.064 32.452-39.198 55.102-51.861 13.11-7.331 26.56-14.064 39.9-20.975 15.38-7.966 30.92-15.638 46.19-23.803 16.45-8.792 31.81-19.284 46.06-31.348 2.51-2.133 4.82-4.517 7.2-6.801.17-.158.35-.503.28-.65-.08-.182-.41-.34-.65-.351-.49-.031-1.01-.035-1.5.082-6.54 1.583-13.16 1.123-19.78.846-.76-.033-1.53-.105-2.28-.238-14.02-2.491-20.23-12.76-19.1-24.319.5-5.121 1.98-9.962 4.1-14.644 4.5-9.952 11.56-17.938 19.35-25.369 8.33-7.948 17.52-14.804 27.2-20.989 10.52-6.723 21.24-13.147 31.68-19.983 8.31-5.435 16.55-11.027 24.45-17.042 9.35-7.126 17.8-15.262 24.47-25.075 2.46-3.615 4.4-7.439 5.49-11.694 6.56-25.523 19.85-47.317 37.28-66.745 13.01-14.494 27.94-26.777 43.98-37.783 15.99-10.979 32.95-20.332 49.9-29.706 14.93-8.258 29.97-16.365 44.57-25.19 16.43-9.94 31.14-22.134 43.74-36.738 6.02-6.973 11.28-14.48 15.64-22.587 1.78-3.31 3.61-6.64 2.52-10.818-.63-2.399 1.17-4.322 2.83-5.944 1.38-1.354 4.49-.601 5.2 1.236.36.932.63 1.952.67 2.947.19 4.584.32 9.17.42 13.755.2 9.544-1.79 18.71-4.67 27.75-5.52 17.367-13.74 33.417-23.49 48.741-8.92 14.017-19.21 26.972-30.3 39.32-15.85 17.659-33.03 33.999-50.24 50.313-6.47 6.134-12.74 12.475-18.96 18.871-10.55 10.866-16.96 24.076-21.1 38.477-1.69 5.869-3.16 11.806-4.61 17.742-5.55 22.767-16.74 42.519-31.81 60.281-9.61 11.327-20.21 21.541-32.2 30.341-3.74 2.751-7.71 4.852-12.24 6.01-12.08 3.089-24.07 6.572-36.55 7.785-1.47.143-2.94.785-4.29 1.452-.53.261-1.01 1.225-.98 1.847.03.634.56 1.556 1.11 1.804 1.12.499 2.4.776 3.64.879 6.18.519 12.16-.916 18.14-2.168 4.73-.99 9.39-2.288 14.07-3.513 2.12-.552 3.95-.227 5.77 1.045 10.44 7.292 16.46 17.233 17.74 29.89 1.39 13.747-.92 26.894-6.88 39.4-6.1 12.808-14.62 23.87-24.43 33.991-8.54 8.811-17.98 16.586-27.89 23.795-14.88 10.818-30.72 20.048-47.04 28.474-10.87 5.609-21.79 11.104-32.57 16.886-13.98 7.511-27.05 16.35-38.09 27.893-3.33 3.492-6.37 7.285-9.39 11.057-.74.919-.89 2.302-1.31 3.475-.2.141-.39.281-.59.422.16-.245.3-.446.43-.651z" fill="#8B83F6"></path><path d="M1073.64 285.275c-2.8-.017-5.6-.064-8.4-.046-1.78.01-3.61-.11-5.32.265-1.09.239-2.21 1.109-2.94 2.006-.68.831.9 2.61 2.73 3.038 7 1.635 14.08 2.004 21.24 1.333 9.64-.904 19.21-2.233 28.65-4.383 1.66-.378 3.01-.215 4.28.8 6.82 5.466 11.95 12.067 12.03 21.186.05 4.251-.79 8.618-1.88 12.756-2.04 7.715-6.07 14.534-10.56 21.073-7.45 10.841-16.87 19.702-27.39 27.49-10.87 8.056-22.44 14.974-34.34 21.404-14.56 7.872-29.11 15.762-43.59 23.786-4.45 2.466-8.632 5.404-12.944 8.116-18.187 11.445-30.192 27.791-37.786 47.635-.818 2.137-1.531 4.321-2.435 6.419-.623 1.444-2.295 2.183-3.797 1.943-1.497-.24-2.846-1.481-2.868-3.115-.061-4.325-.366-8.713.195-12.973 1.233-9.33 2.423-18.721 4.553-27.871 5.894-25.334 17.237-47.787 36.299-65.976 12.563-11.991 27.063-20.645 43.563-26.025 2.9-.945 5.79-1.925 8.65-3.017 1.41-.538 2.85-1.184 4.01-2.128.62-.505.86-1.75.82-2.641-.01-.435-1.08-1.208-1.64-1.173-2.76.165-5.62.193-8.25.94-4.4 1.24-8.66 2.965-12.96 4.534-1.91.698-3.84 1.396-5.66 2.293-2.07 1.021-3.89.653-5.79-.362-11.73-6.252-18.293-15.753-18.95-29.246-.833-17.059 5.633-31.326 16.48-43.916 9.76-11.329 21.67-20.001 34.53-27.469 12.61-7.313 26.1-12.669 39.54-18.151 7.07-2.882 14.13-5.791 21.17-8.756 8.95-3.771 17.4-8.452 25.29-14.14 6.25-4.511 11.64-9.879 16.28-16.016 5.55-7.326 10.53-15.004 14.88-23.111 4.22-7.859 8.68-15.576 14.15-22.667 10.42-13.529 23.56-23.92 38.1-32.601 11.39-6.795 23.09-12.967 35.88-16.8 1.21-.362 2.4-.906 3.63-1.107 2.94-.48 5.49 2.46 4.6 5.357-.44 1.434-1.12 2.874-2.01 4.077-1.81 2.453-3.73 4.851-5.81 7.089-15.57 16.766-28.06 35.585-37.31 56.495-3.18 7.202-5.7 14.704-8.44 22.103-1.24 3.34-2.23 6.769-3.39 10.138-7.82 22.69-20.97 41.775-39.08 57.44-8.1 6.999-16.4 13.756-25.43 19.549-4.76 3.047-9.8 5.348-15.24 6.905-15.49 4.415-31.16 7.554-47.34 7.52zM592.519 438.862c-.854-.167-1.35-.255-1.842-.364-1.481-.331-2.445-2.432-1.537-3.63.744-.984 1.631-1.987 2.678-2.578 1.307-.736 2.811-1.322 4.291-1.526 6.045-.826 10.048-4.645 13.642-9.056 6.616-8.108 12.309-16.874 17.431-25.966 5.867-10.415 11.345-21.053 16.946-31.618 7.643-14.415 16.12-28.29 25.957-41.336 16.795-22.275 37.228-40.346 61.702-53.775 6.466-3.548 12.966-7.065 19.631-10.218 6.738-3.188 12.848-7.215 18.447-12.09 1.148-.996 2.327-1.975 3.589-2.815 1.341-.894 3.395-.641 4.075.671.53 1.021.728 2.398.554 3.538-.136.897-.955 1.786-1.666 2.487-3.606 3.568-7.155 7.109-11.43 10.025-9.546 6.507-17.495 14.8-23.973 24.359a177.94 177.94 0 00-10.555 17.677c-5.869 11.285-11.437 22.728-16.991 34.175-8.475 17.469-18.518 33.947-30.615 49.151-10.065 12.648-21.841 23.441-35.222 32.491-6.991 4.729-14.441 8.628-22.435 11.292-8.432 2.811-16.994 5.245-25.533 7.722-2.433.702-4.983.975-7.144 1.384zM-23.154 799.713h1490v147h-1490z" fill="#8B83F6"></path></g><defs><clipPath id="flames_svg__clip0"><path fill="#fff" d="M0 0h1440v850H0z"></path></clipPath></defs></svg>