<svg xmlns:xlink="http://www.w3.org/1999/xlink" xmlns="http://www.w3.org/2000/svg" fill="none" viewBox="0 0 1360 719" class="footer_frame__2D4qD" width="1624"  height="859" ><g clip-path="url(#footer-frame_svg__clip0)" fill="none"><path stroke="#000000" d="M1339.57 462.127s-4.03 3.833-4.03 16.758c0 18.233 13.99 30.496 13.99 49.412 0 14.129-11.53 21.816-11.53 21.816v.16c7.89 0 14.43 6.403 14.43 14.3 0 7.897-6.37 14.3-14.25 14.3v.11c7.88 0 14.28 6.402 14.28 14.3 0 7.897-6.4 14.3-14.28 14.3l-.06.481c3.85 3.131 21.37 18.856 21.37 37.711 0 21.174-16.08 34.4-16.08 49.312 0 5.669 1.17 8.65 1.17 8.65l-.2-.07s-3.2-1.255-8.85-1.255c-14.89 0-28.11 16.096-49.26 16.096-18.84 0-34.55-17.531-37.68-21.394l-.48.06c0 7.898-6.4 14.3-14.29 14.3-7.89 0-14.28-6.402-14.28-14.3h-.11c0 7.898-6.4 14.27-14.29 14.27-7.89 0-14.28-6.543-14.28-14.441h-.16s-7.68 11.541-21.8 11.541c-18.9 0-31.15-14.009-49.36-14.009-12.92 0-16.74 4.034-16.74 4.034H257.195s-3.83-4.034-16.742-4.034c-18.216 0-30.467 14.009-49.364 14.009-14.115 0-21.795-11.541-21.795-11.541h-.16c0 7.898-6.396 14.441-14.286 14.441s-14.286-6.372-14.286-14.27h-.11c0 7.898-6.396 14.3-14.286 14.3-7.889 0-14.286-6.402-14.286-14.3l-.481-.06c-3.118 3.853-18.827 21.384-37.664 21.384-21.153 0-34.366-16.096-49.264-16.096-5.664 0-8.852 1.255-8.852 1.255l-.2.07s1.173-2.991 1.173-8.65c0-14.902-16.08-28.138-16.08-49.312 0-18.855 17.513-34.58 21.373-37.711l-.06-.481c-7.89 0-14.286-6.403-14.286-14.3 0-7.898 6.396-14.3 14.286-14.3v-.11c-7.89 0-14.256-6.403-14.256-14.3 0-7.898 6.536-14.3 14.426-14.3v-.16s-11.529-7.687-11.529-21.816c0-18.916 13.995-31.179 13.995-49.412 0-12.925-4.03-16.758-4.03-16.758V256.873s4.03-3.833 4.03-16.758c0-18.234-13.995-30.496-13.995-49.412 0-14.129 11.53-21.816 11.53-21.816v-.16c-7.89 0-14.427-6.403-14.427-14.3 0-7.898 6.366-14.3 14.256-14.3v-.11c-7.89 0-14.286-6.402-14.286-14.3 0-7.897 6.396-14.3 14.286-14.3l.06-.481C18.015 107.825.5 92.09.5 73.235c0-21.174 16.08-34.4 16.08-49.312 0-5.67-1.172-8.65-1.172-8.65l.2.07s3.198 1.255 8.852 1.255C39.35 16.598 52.571.502 73.725.502c18.837 0 34.546 17.53 37.674 21.394l.481-.06c0-7.898 6.397-14.3 14.286-14.3 7.89 0 14.286 6.402 14.286 14.3h.11c0-7.898 6.396-14.27 14.286-14.27s14.286 6.543 14.286 14.44h.16s7.68-11.54 21.795-11.54c18.897 0 31.148 14.01 49.364 14.01 12.912 0 16.742-4.035 16.742-4.035h845.615s3.82 4.034 16.74 4.034c18.21 0 30.46-14.009 49.36-14.009 14.12 0 21.8 11.54 21.8 11.54h.16c0-7.897 6.39-14.44 14.28-14.44s14.29 6.372 14.29 14.27h.11c0-7.898 6.39-14.3 14.28-14.3s14.29 6.402 14.29 14.3l.48.06c3.13-3.863 18.84-21.394 37.68-21.394 21.15 0 34.36 16.096 49.26 16.096 5.66 0 8.85-1.255 8.85-1.255l.2-.07s-1.17 2.99-1.17 8.65c0 14.902 16.08 28.138 16.08 49.312 0 18.855-17.52 34.58-21.37 37.711l.06.481c7.88 0 14.28 6.403 14.28 14.3 0 7.898-6.4 14.3-14.28 14.3v.11c7.88 0 14.25 6.402 14.25 14.3 0 7.897-6.54 14.3-14.43 14.3v.16s11.53 7.687 11.53 21.816c0 18.916-13.99 31.178-13.99 49.412 0 12.925 4.03 16.758 4.03 16.758l-.01 205.244z" fill="none"></path></g><path fill="#000" d="M85.242 106.491c-.007.461-.013.922-.022 1.383-.018.932-.038 1.864-.058 2.796-.011.5-.023 1-.04 1.499a.967.967 0 01-.048.281c-.057.164-.205.219-.369.158-.137-.052-.255-.118-.334-.255-.056-.098-.144-.179-.226-.259-1.144-1.111-2.291-2.221-3.436-3.332-1.028-.997-2.054-1.997-3.082-2.994-.752-.729-1.507-1.456-2.258-2.186-.096-.093-.18-.2-.27-.298a.345.345 0 01-.091-.265c.006-.124.021-.248.034-.372.011-.114.033-.228.035-.342.006-.404.01-.807.005-1.21-.004-.337-.026-.672-.034-1.008-.01-.48-.04-.962-.02-1.441.065-1.48.046-2.96.044-4.44 0-.404-.018-.806-.041-1.208-.001-.018.003-.043.015-.053.01-.008.038-.004.05.006.255.192.547.32.82.482.164.098.328.2.479.318.735.574 1.502 1.103 2.262 1.642.313.222.624.453.906.712a29.264 29.264 0 001.993 1.66l2.192 1.69c.175.134.346.275.52.412.067.054.134.11.206.156a.31.31 0 00.134.04c.063.004.117-.029.135-.088.013-.042.017-.103-.005-.134a.907.907 0 00-.178-.185c-.446-.35-.893-.698-1.341-1.046-.79-.613-1.581-1.223-2.368-1.839a7.467 7.467 0 01-.547-.47 15.096 15.096 0 00-1.89-1.51c-.594-.406-1.17-.84-1.747-1.272a5.89 5.89 0 00-.826-.524c-.094-.049-.186-.1-.278-.151a1.294 1.294 0 01-.552-.569c-.023-.045-.006-.074.019-.1a.53.53 0 01.245-.144c.127-.04.263-.06.375-.142a.155.155 0 01.08-.027c.338-.015.66-.118.987-.186.49-.101.98-.182 1.48-.218.547-.04 1.086-.128 1.624-.233.386-.075.773-.145 1.16-.22.46-.09.921-.186 1.384-.27.12-.021.25-.018.373-.006.165.016.24.098.251.262.01.143.012.288.004.432-.017.278.103.478.325.633.152.106.314.183.497.218.367.071.733.151 1.101.216.141.025.287.021.43.025.097.002.192-.012.284.033a.266.266 0 00.113.017c.289.001.572.058.858.091.067.008.134.013.201.017.566.033 1.132.067 1.699.062.348-.003.69.047 1.033.082.363.037.725.078 1.09.08.453.001.904.01 1.356.023.307.009.615.016.92.051.43.05.856.118 1.282.19.1.017.195.078.287.129.998.558 1.967 1.165 2.94 1.765.769.474 1.534.954 2.305 1.425.118.072.184.162.197.295.008.086.03.174.017.257-.036.256-.064.512-.163.757a1.76 1.76 0 00-.103.592c-.008.202-.005.404-.012.606-.02.508-.04 1.017-.066 1.525-.035.72-.072 1.439-.115 2.158-.021.355-.059.708-.086 1.063-.01.134-.008.269-.018.403-.067.883-.058 1.767-.052 2.651.002.404.005.807 0 1.211-.003.299.01.595.077.887a1.4 1.4 0 01-.005.573c-.014.073-.052.121-.125.14-.037.009-.074.023-.11.032l-5.438 1.279c-1.494.351-2.99.702-4.484 1.055-.934.22-1.868.439-2.8.666a1.336 1.336 0 01-.818-.049c-.075-.028-.111-.077-.116-.147a4.882 4.882 0 01-.02-.46c.007-.442.026-.883.034-1.325.013-.683.019-1.365.031-2.048l.06-2.969.056-2.623c.01-.47.025-.941.038-1.412.001-.038-.007-.084.011-.113.114-.189.147-.416.288-.593.15-.186.34-.308.564-.374.857-.253 1.729-.445 2.603-.628.572-.12 1.143-.253 1.717-.368.762-.153 1.525-.303 2.29-.438.624-.11 1.251-.202 1.878-.294.496-.073.974-.214 1.453-.355.626-.186 1.253-.366 1.878-.552.175-.052.345-.116.518-.175a.324.324 0 00.052-.023.165.165 0 00.079-.197c-.018-.058-.092-.117-.153-.11a1.076 1.076 0 00-.197.042c-.202.061-.401.129-.603.189-.672.2-1.346.39-2.015.597-.461.143-.934.22-1.408.295-.55.086-1.102.162-1.65.259-.671.118-1.34.248-2.009.382-.555.111-1.107.239-1.661.354-.902.188-1.8.396-2.693.625-.148.038-.296.079-.444.121-.166.048-.33.101-.503.119-.213.023-.333.15-.339.395-.018.749-.028 1.498-.04 2.247-.012.692-.018 1.384-.032 2.076-.01.471-.03.942-.044 1.412l.009.001zm7.716-11.71c.006-.076-.043-.13-.104-.138a.698.698 0 00-.339.043c-.031.011-.087.013-.105-.006-.127-.13-.284-.1-.433-.081-.247.031-.493.074-.738.115a.824.824 0 00-.165.049c-.048.019-.07.061-.071.114 0 .059.04.116.098.124a.548.548 0 00.14-.001c.332-.044.664-.087.995-.139.083-.013.144-.023.19.065.013.026.07.049.1.042.129-.03.269-.031.38-.114.028-.02.043-.06.052-.072zm-4.486 14.169c-.003-.051.005-.121-.014-.183-.011-.038-.057-.075-.097-.093-.048-.021-.098.008-.121.052a.483.483 0 00-.053.16c-.022.171-.038.343-.055.515-.02.21-.044.42-.06.63-.008.123.062.222.14.217.068-.004.129-.081.142-.194.04-.362.078-.725.118-1.104zm-9.34-16.584c-.008-.082-.058-.137-.115-.138a.575.575 0 00-.142.01c-.336.08-.671.16-1.006.244a.424.424 0 00-.13.058c-.065.044-.058.15.007.2.06.044.123.048.191.03l1.031-.26a.23.23 0 00.103-.047c.03-.03.048-.076.06-.097zm-.298 11.826c0 .095-.005.172.002.248.004.051.046.093.093.095.04.001.1-.022.12-.054a.434.434 0 00.062-.187c.032-.353.055-.706.122-1.054.011-.061-.023-.114-.08-.138-.049-.021-.127-.007-.153.042-.038.075-.082.155-.092.237-.032.276-.051.553-.074.811zm11.388-9.424c.034-.002.063-.003.091-.007l.822-.123.027-.008c.052-.014.105-.077.1-.126-.005-.051-.035-.093-.085-.104-.074-.016-.152-.038-.224-.029-.246.034-.49.078-.735.122-.037.006-.082.02-.102.046a.209.209 0 00-.04.129c.001.029.04.06.069.081.021.015.054.014.077.02zm7.376 7.305h-.006c0-.134.002-.268-.001-.401a.525.525 0 00-.02-.14c-.023-.074-.142-.094-.19-.033a.391.391 0 00-.092.263c.007.143.003.287.013.429.007.114.024.228.044.341a.17.17 0 00.054.096c.026.022.072.037.103.029a.128.128 0 00.076-.071c.016-.043.017-.093.018-.141.002-.124 0-.248 0-.372zm-.372-.816c0-.059.002-.183-.001-.307a.563.563 0 00-.023-.14c-.015-.052-.08-.095-.132-.094-.05.001-.109.053-.121.106-.005.019-.01.038-.01.056.008.248.013.497.03.744.004.063.04.127.075.182.016.025.067.042.1.037a.123.123 0 00.082-.065.332.332 0 00.022-.139c-.003-.105-.012-.21-.022-.38zm.466 2.117h-.005v-.288a.436.436 0 00-.016-.114.12.12 0 00-.102-.088c-.058-.009-.123.024-.142.074-.01.027-.023.055-.023.083.004.21.007.421.019.632.002.044.03.092.06.126.022.025.068.045.099.04.031-.005.066-.038.084-.068a.236.236 0 00.025-.11c.004-.095.001-.191.001-.287zm-13.439-7.241c-.048.013-.106.022-.157.045-.149.067-.295.14-.44.212-.026.013-.048.033-.069.052-.042.038-.058.112-.036.157.022.048.082.073.147.064.01-.001.02 0 .029-.004.208-.096.416-.192.624-.29.015-.007.026-.027.038-.041.04-.05.016-.147-.045-.17-.026-.011-.054-.016-.091-.025zm-1.317 12.122h-.009c0-.105.004-.21-.001-.314a.095.095 0 00-.092-.094c-.043-.001-.098.012-.128.041a.193.193 0 00-.054.127c-.003.181.002.363.01.544.003.045.028.09.05.132.03.058.133.064.17.008a.29.29 0 00.052-.129c.007-.104.002-.21.002-.315zm4.392-10.639c-.023-.033-.036-.076-.064-.09-.04-.019-.095-.035-.134-.022-.197.067-.393.139-.585.219-.08.033-.07.171.009.213.032.017.076.037.106.028.21-.06.416-.133.603-.248.028-.018.04-.06.065-.1zm5.21-.441c-.052.003-.082-.001-.108.008-.16.057-.321.115-.48.179-.032.013-.058.047-.082.075-.045.051-.018.143.048.163.035.011.077.02.11.011.172-.052.343-.11.514-.168.017-.006.033-.018.05-.028.047-.031.083-.106.055-.147-.03-.041-.079-.07-.107-.093zm-10.936 10.097c.008.09.01.176.026.259.009.049.05.079.103.085.059.007.119-.026.137-.079a.39.39 0 00.02-.083c.017-.17.033-.34.047-.511.005-.054-.04-.115-.092-.13-.053-.015-.126.006-.153.051-.024.041-.051.083-.059.129-.016.093-.02.188-.029.279zm-1.656-12.277c.155-.04.36-.103.544-.224.046-.03.054-.112.027-.155-.033-.054-.088-.088-.143-.068a9.83 9.83 0 00-.554.216c-.057.024-.075.082-.063.144.01.052.063.088.189.087zm13.765 10.982c0-.097.002-.126 0-.154a.126.126 0 00-.103-.121.149.149 0 00-.16.093c-.003.009-.009.018-.01.027-.025.151-.05.302-.071.454a.22.22 0 00.011.113.17.17 0 00.075.077c.047.022.095.004.13-.033a.167.167 0 00.043-.074c.035-.148.067-.298.085-.382zm-12.056-3.263c.015.081.024.156.045.228.015.048.06.073.112.07.052-.002.088-.034.11-.08a.19.19 0 00.017-.054l.066-.45a.222.222 0 000-.057.121.121 0 00-.082-.106.121.121 0 00-.132.026.22.22 0 00-.062.093c-.03.11-.05.221-.074.33zm-4.557-5.31c-.002-.03-.002-.059-.006-.087-.008-.072-.063-.129-.128-.134a.135.135 0 00-.141.116 9.19 9.19 0 00-.057.398.445.445 0 00.005.114.14.14 0 00.14.12.128.128 0 00.122-.102c.024-.141.043-.284.065-.426zm2.49-4.968c.157-.04.314-.08.47-.124.025-.006.046-.033.066-.054.054-.057.023-.165-.054-.185a.276.276 0 00-.113-.01c-.113.02-.225.044-.336.072a.553.553 0 00-.133.053c-.07.038-.073.148-.007.195.03.022.067.034.106.053zm-2.501 5.792c.004.071.006.158.016.243.007.06.066.103.122.098.051-.005.092-.03.107-.08.055-.187.047-.38.05-.571 0-.05-.04-.087-.09-.1-.05-.012-.1-.003-.13.038a.314.314 0 00-.06.128c-.012.075-.01.153-.015.244zm4.05-4.138c-.007-.091-.067-.145-.14-.142a.95.95 0 00-.5.186c-.051.034-.064.092-.045.153.016.05.077.09.14.07a6.02 6.02 0 00.48-.176c.034-.015.051-.07.065-.09zm.975 12.286c.01-.105.02-.182.02-.258.002-.049-.018-.093-.071-.112-.054-.02-.126-.004-.156.039-.022.031-.045.065-.052.101-.03.151-.031.304.001.456a.141.141 0 00.125.103c.063.001.127-.056.132-.128.005-.076.001-.153.001-.201zm4.35-11.422c.128-.03.278-.06.423-.105.034-.01.063-.07.075-.11.014-.051-.038-.116-.092-.13-.027-.007-.058-.017-.084-.011a5.956 5.956 0 00-.36.09c-.036.01-.066.038-.095.062-.051.045-.036.144.027.17.026.01.054.017.106.034zm.933 7.858c-.05.041-.117.067-.129.108a.574.574 0 00.075.466c.03.052.103.079.148.06.059-.026.098-.078.09-.134a2.871 2.871 0 00-.08-.391c-.011-.038-.06-.065-.104-.109zM76.98 99.986c.004.051 0 .121.02.182.012.039.056.074.094.096.042.022.115-.022.138-.076.058-.137.044-.28.021-.421-.008-.051-.078-.1-.127-.098-.051 0-.116.05-.125.102-.01.066-.013.132-.021.215zm6.197 10.623c.008.105.016.184.078.238.026.023.071.04.103.034.031-.006.076-.042.081-.07.025-.131.041-.264.054-.397.005-.055-.047-.11-.102-.125-.049-.013-.127.017-.145.069-.03.09-.05.184-.069.251zm1.938-14.185c.001-.082-.068-.157-.128-.152a.727.727 0 00-.389.154.127.127 0 00-.033.154c.027.052.086.09.141.071.116-.038.231-.08.341-.134.036-.017.053-.071.068-.093zm6.881 5.287c.022.057.038.123.072.178.024.04.076.065.125.044.032-.014.075-.045.08-.074.02-.131.033-.264.041-.397.004-.054-.055-.108-.109-.118-.05-.009-.123.025-.14.078-.026.092-.044.185-.069.289zm4.588 6.45c0 .015-.005.065.008.109.01.032.038.067.067.084.045.026.1.014.13-.027a.568.568 0 00.08-.49c-.009-.034-.066-.067-.107-.077-.028-.008-.073.018-.098.042a.198.198 0 00-.05.099c-.015.075-.019.152-.03.26zm-20.316-5.787c.01-.076-.027-.143-.086-.164-.059-.021-.132.011-.166.076a.65.65 0 00-.068.411c.01.061.047.102.108.116.049.012.113-.026.13-.086.032-.118.056-.238.082-.353zm4.87-10.618c-.097.019-.231.031-.341.117-.041.032-.065.08-.043.126.019.038.06.088.096.091.155.014.3-.033.427-.124.04-.029.05-.08.033-.13-.017-.052-.059-.07-.109-.077l-.064-.003zm6.687 12.15c-.004-.069-.004-.116-.01-.163a.131.131 0 00-.117-.107c-.058-.005-.12.028-.138.08a.678.678 0 00-.008.392.143.143 0 00.125.101c.05.003.112-.042.123-.099.014-.074.019-.15.025-.204zm-6.181-10.143c.115-.034.256-.033.36-.13.024-.024.045-.075.036-.102-.014-.04-.051-.093-.087-.1-.159-.03-.301.03-.427.121-.028.02-.038.087-.031.128.004.028.05.051.08.071.015.01.037.007.069.012zm-2.257 8.773c.014.061.02.118.042.17a.1.1 0 00.115.062c.033-.007.08-.034.085-.06.03-.138.056-.277.067-.418.007-.086-.119-.139-.192-.085-.03.021-.06.052-.07.085-.022.081-.032.166-.047.246zm-.824-1.731l-.01-.001v-.086a.393.393 0 00-.008-.056c-.011-.059-.057-.107-.11-.115-.059-.009-.133.042-.149.109a.733.733 0 00.002.366c.013.048.051.078.103.085.055.008.124-.027.137-.079.017-.073.024-.149.035-.223zm15.606-6.036c-.086.036-.195.073-.294.126-.052.027-.067.09-.051.152.013.052.054.094.099.09a.712.712 0 00.394-.15c.062-.05.036-.161-.04-.188-.026-.01-.054-.015-.108-.03zm-12.774 4.832c.02.106.037.219.064.33.014.057.08.09.135.083a.138.138 0 00.112-.116.793.793 0 00-.062-.393c-.027-.071-.15-.08-.193-.017-.021.031-.034.068-.056.113zm2-5.325c-.155.017-.276.064-.369.17a.114.114 0 00-.018.131c.023.047.064.074.114.07a.517.517 0 00.346-.172c.026-.028.035-.093.02-.129-.013-.034-.067-.052-.092-.07zm14.78 9.583c.003-.022.012-.058.014-.096a.132.132 0 00-.09-.129c-.066-.021-.14.006-.165.069a.728.728 0 00-.053.189.237.237 0 00.08.204.158.158 0 00.101.036.104.104 0 00.097-.089c.01-.055.01-.112.015-.184zm-20.823-7.074c-.003-.053-.004-.082-.007-.11-.007-.06-.052-.111-.105-.119-.05-.007-.114.03-.136.083a.584.584 0 00-.05.333c.01.05.041.086.091.1.053.014.125-.014.144-.066.029-.079.047-.162.063-.22zm16.396 8.467c.012.066.016.144.043.213.014.034.07.06.111.071.05.013.092-.02.113-.067a.24.24 0 00.027-.108 2.23 2.23 0 00-.036-.254c-.01-.058-.069-.093-.129-.087-.051.006-.091.03-.104.082-.012.045-.016.093-.025.15zm3.202-9.635a.488.488 0 00-.317.114c-.038.035-.05.086-.026.13.016.03.054.063.085.066a.5.5 0 00.375-.097c.06-.048.038-.164-.034-.19-.027-.01-.055-.015-.083-.023zm-20.956 5.414l.003.034c.005.055.053.117.099.127a.131.131 0 00.137-.081c.03-.09.055-.182.072-.275.009-.047-.015-.093-.06-.12-.044-.027-.12-.012-.157.028-.078.083-.094.185-.094.287zm4.694.229c0-.016.002-.044 0-.073a.122.122 0 00-.078-.109c-.05-.023-.096-.005-.132.026a.276.276 0 00.024.423c.053.038.149.007.162-.057.013-.065.015-.131.024-.21zm2.086 2.489c-.018.007-.05.01-.07.027a.343.343 0 00-.078.393c.024.044.066.081.114.066.041-.012.092-.047.106-.084.032-.088.05-.183.065-.277.01-.062-.063-.129-.137-.125zm-3.794-5.923c-.017-.097-.029-.181-.046-.265a.13.13 0 00-.126-.098.148.148 0 00-.141.12.321.321 0 00.103.311c.03.027.092.042.129.03.035-.013.056-.066.08-.098zm9.154 4.457c-.005-.05 0-.103-.02-.143-.018-.037-.062-.079-.1-.084-.037-.004-.096.026-.117.059-.066.104-.058.218-.004.327.022.044.062.073.116.064.05-.008.09-.034.104-.084.013-.046.015-.094.021-.139zm8.842 5.059c.013.053.016.115.045.16.02.032.076.054.118.057.028.002.077-.033.084-.06.026-.09.04-.184.051-.278.007-.054-.041-.111-.094-.126-.065-.018-.144.016-.165.078-.017.053-.026.11-.039.169zm-7.987 1.355c0-.061.002-.08 0-.099-.008-.05-.03-.091-.082-.107-.05-.015-.1-.006-.131.032a.332.332 0 00-.063.349c.028.073.153.09.19.023.042-.074.068-.156.086-.198zm-.336-4.659c-.01-.052-.014-.099-.028-.144-.023-.072-.136-.098-.189-.047a.282.282 0 00-.007.386c.053.055.168.037.192-.034.017-.053.022-.11.032-.161zm-1.097-6.966a.397.397 0 00-.268.07c-.046.028-.069.104-.05.152.022.052.085.097.136.09.087-.011.17-.034.231-.102.034-.037.058-.085.033-.13-.02-.038-.063-.063-.082-.08zm.756 13.454c-.011-.039-.018-.076-.032-.111-.024-.06-.123-.083-.17-.042-.093.081-.117.243-.044.337.02.027.066.056.095.051.041-.007.093-.035.113-.07.026-.047.026-.109.038-.165zm4.77-.626c-.002-.019-.003-.038-.006-.056a.376.376 0 00-.014-.054.137.137 0 00-.128-.094.135.135 0 00-.13.124.352.352 0 00.02.136c.024.067.089.1.157.091.064-.008.103-.066.1-.147zm.816-12.962a.336.336 0 00.227-.085c.06-.051.04-.158-.035-.19-.091-.04-.181-.019-.258.066-.032.036-.058.084-.026.13.025.035.068.059.092.079zm-4.598 10.664c-.027-.037-.044-.082-.072-.092-.04-.014-.1-.018-.134.003-.077.049-.107.13-.094.223.009.057.06.107.114.111.052.005.099-.014.12-.058.03-.058.044-.123.066-.187zm8.556-1.287c-.028-.031-.058-.085-.103-.105-.032-.014-.095.008-.125.035-.07.063-.08.175-.038.261.029.06.12.073.17.028.061-.054.084-.123.096-.219zm-4.957-5.606c.005-.084-.048-.152-.127-.164-.071-.011-.147.053-.156.133-.012.1.04.18.126.194.084.013.152-.056.157-.163zm-.523 8.404c.035-.01.056-.011.07-.022a.247.247 0 00.106-.192c.002-.051-.017-.1-.066-.114-.041-.012-.097-.015-.133.004-.093.049-.119.184-.056.272.019.027.059.039.08.052zm-4.552-14.436c.092.004.175-.06.182-.143.006-.07-.044-.121-.123-.126-.106-.007-.179.048-.181.136-.002.065.057.13.122.133zm6.405 9.538c.098-.008.133-.063.157-.126a.125.125 0 00-.127-.169.145.145 0 00-.13.094c-.021.055-.02.113.022.157.024.024.062.035.078.044z"></path><path fill="#000" d="M102.53 81.346c0 .71.012 1.422-.003 2.133-.013.605-.068 1.209-.083 1.814-.013.499.005.999.011 1.498.001.115.013.23.013.346.002.538.002 1.076.002 1.614 0 .039.001.078-.006.115a.075.075 0 01-.083.064.53.53 0 01-.163-.04c-.052-.023-.093-.068-.143-.097-.135-.078-.303-.032-.361.116-.046.115-.09.227-.153.335-.064.112.009.263.143.296.11.026.228.025.341.02.038 0 .08-.047.108-.083.035-.045.059-.094.12-.117.153-.057.211-.031.236.127.062.382.053.766.04 1.15-.001.052-.043.084-.099.076a.514.514 0 01-.135-.038c-.069-.032-.133-.075-.202-.108-.033-.017-.107.02-.122.055-.041.097-.002.233.092.27.106.044.217.078.329.102.143.031.145.026.146.164 0 .058.012.121-.007.172-.06.161-.022.323-.019.484.006.356.017.711.015 1.067-.001.219-.124.327-.348.318-.222-.008-.441.003-.662.012-.21.01-.421-.022-.632-.037-.124-.01-.248-.037-.372-.032-.798.027-1.595-.018-2.392-.049a9.495 9.495 0 01-1.962-.29c-.093-.024-.187-.047-.276-.08-.18-.069-.165-.064-.103-.255.035-.107.128-.164.22-.219.013-.008.019-.03.028-.047-.02-.01-.043-.032-.063-.03-.172.018-.344.037-.515.06a.154.154 0 00-.131.099.476.476 0 01-.18.22c-.044.032-.029.058.003.087.004.003-.007.03-.018.039a.31.31 0 01-.185.066c-.22.004-.44.032-.662.016-.594-.044-1.189-.076-1.784-.113-.105-.006-.21-.015-.316-.017-.606-.009-1.21-.06-1.813-.105a67.806 67.806 0 00-1.842-.11c-.385-.018-.761-.094-1.14-.159-.057-.01-.113-.028-.17-.03-.47-.01-.941-.024-1.411.02-.21.02-.422.03-.633.04-.223.01-.438-.052-.653-.098-.31-.065-.617-.14-.925-.215-.228-.055-.36-.208-.385-.446a1.865 1.865 0 01-.009-.23 3.91 3.91 0 00-.096-.886c-.021-.1-.013-.21-.009-.314a.76.76 0 01.038-.198c.073-.226.063-.446.004-.678-.088-.348-.065-.707-.038-1.062a1.324 1.324 0 00-.03-.397 3.748 3.748 0 01-.07-1.174c.006-.066.019-.133.02-.2.007-.451.013-.903.017-1.354.002-.288.013-.577-.001-.865a5.936 5.936 0 00-.084-.685 6.743 6.743 0 01-.091-1.407c.012-.268-.009-.539.048-.804.014-.066.018-.134.037-.198.216-.73.229-1.478.204-2.228a2.6 2.6 0 00-.075-.483 3.338 3.338 0 01-.09-.943c.01-.173.01-.347-.006-.519-.018-.187.048-.359.066-.539a.166.166 0 01.055-.097c.154-.134.317-.246.54-.222a.79.79 0 00.444-.102c.223-.114.45-.21.704-.24.112-.012.225-.054.329-.102.411-.19.843-.324 1.28-.434.55-.14 1.084-.325 1.607-.545.212-.09.425-.178.64-.26.226-.085.44-.188.648-.311.25-.147.52-.247.808-.292.428-.067.848-.162 1.247-.336.15-.065.3-.132.443-.21.365-.195.743-.359 1.14-.475.112-.033.221-.065.307-.15.046-.045.106-.041.163-.032.436.068.878.084 1.314.155.226.036.459.042.689.05.778.031 1.555.056 2.333.085.144.005.287.021.43.025.115.003.232.009.344-.011.23-.043.454-.037.683.022.401.1.81.157 1.223.189.162.013.324.037.486.053.204.02.404-.002.597-.071.203-.074.406-.095.621-.055.198.037.401.05.603.025.029-.004.059-.01.086-.004.19.04.381-.004.57.004.192.008.383.027.575.036.202.01.404.009.605.02.643.034 1.286.062 1.93.069.315.003.631.043.947.067.028.003.057.009.085.015.085.017.104.056.072.146-.007.018-.022.032-.029.05-.034.095-.003.152.09.163.106.012.207.021.287-.082.031-.04.1-.061.154-.067a8.26 8.26 0 01.545-.035.332.332 0 01.137.037c.252.111.254.146.098.368a.828.828 0 01-.272.247c-.117.068-.225.149-.339.219-.262.16-.523.323-.79.476-.3.171-.593.355-.875.556-.25.178-.506.35-.764.516a3.254 3.254 0 01-.693.35c-.201.07-.382.179-.559.295-.192.127-.389.248-.574.386-.35.258-.743.438-1.127.634-.043.022-.092.034-.129.062-.075.06-.16.056-.247.052l-.864-.035-.489-.027c-.153-.009-.307-.025-.46-.026-.52-.005-1.036-.057-1.553-.1-.68-.057-1.36-.097-2.042-.131a8.042 8.042 0 01-1.309-.178c-.346-.075-.7-.119-1.05-.179-.074-.013-.147-.037-.221-.058l-.386-.111c-.08-.023-.173-.002-.235-.078.061-.045.124-.09.184-.137.015-.012.069-.027.027-.048-.135-.07-.272-.146-.435-.08-.075.03-.13.076-.133.134-.005.062.034.115.112.15.017.007.037.009.056.014l.055.015c-.013.007-.025.018-.038.02a.398.398 0 00-.3.2c-.016.026-.063.04-.098.045-.047.008-.096.001-.144.002a27.353 27.353 0 01-1.988-.064c-.22-.013-.44-.04-.66-.062-.697-.068-1.394-.143-2.093-.205-.401-.036-.805-.05-1.208-.078-.383-.027-.766-.061-1.149-.089-.172-.012-.345-.018-.518-.024-.432-.015-.865-.026-1.297-.044a5.23 5.23 0 01-.43-.04.424.424 0 00-.226.018c-.067.028-.112.073-.122.147-.008.069.044.152.123.176.063.02.13.03.197.033.115.007.23.002.346.008.383.02.767.04 1.15.067.154.01.308.023.457.057.388.089.78.088 1.174.105.547.023 1.095.022 1.637.114.076.013.15.034.226.046.06.01.105.037.138.09.085.135.223.178.368.2.142.02.286.037.43.043.144.006.285.014.425.062.07.024.156.03.227.013.195-.046.395-.09.576-.173a.536.536 0 01.3-.054c.41.05.824.064 1.237.057.115-.001.23-.004.346-.01.28-.012.554.02.829.081.29.064.584.11.879.149.21.028.421.016.632-.02.389-.066.779-.117 1.174-.045.028.005.057.003.086.005l1.699.074c.182.008.362.027.538.083.08.026.17.03.255.03.319 0 .632.049.946.088.276.034.553.058.83.089.133.014.266.034.4.05.438.055.875.108 1.313.167.028.004.069.045.074.074.013.074.006.153.013.23.014.16-.031.319-.002.484.026.15.008.307.008.46v1.961h-.008zm-16.655 2.743c-.307-.128-.616-.076-.925-.017-.079.015-.118.069-.119.14 0 .077.057.14.146.143.075.002.15-.011.225-.017.114-.009.227-.02.34-.025.056-.001.113.016.17.018.131.007.173-.043.164-.195-.001-.019-.007-.037-.01-.056.15.073.272.026.38-.084.039-.038.051-.114.025-.157-.027-.044-.07-.06-.12-.06a.323.323 0 00-.207.076c-.078.065-.065.151-.07.234zm14.817-1.473c.004.067.002.135.012.201a.646.646 0 00.129.316.253.253 0 00.336.06.507.507 0 00.2-.558.746.746 0 01.036-.534.714.714 0 00.053-.279 2.55 2.55 0 01.04-.4c.016-.093.018-.191.011-.286a.241.241 0 00-.172-.212.478.478 0 00-.464.069.298.298 0 00-.122.22c-.01.126-.012.254.048.367.076.142.054.275.004.415a1.75 1.75 0 00-.111.62zm-2.1-.475c.08.006.11.012.137.01.083-.01.139-.088.12-.164a.136.136 0 00-.154-.098c-.036.008-.081.019-.101.045-.047.06-.09.045-.148.02-.123-.05-.252-.086-.375-.137-.152-.062-.298-.045-.448.006a2.23 2.23 0 01-.387.107c-.257.038-.465.17-.664.322a.446.446 0 00-.173.29c-.007.037-.018.075-.018.113 0 .124-.072.19-.178.234-.177.074-.353.15-.548.159-.068.003-.135.01-.187.06-.037.035-.057.078-.043.129.014.047.04.087.094.098.018.004.037.008.056.009.307.013.586-.082.85-.223a.452.452 0 00.246-.336c.047-.273.227-.432.476-.526.058-.022.113-.025.158.025.056.063.128.081.208.076.104-.007.21-.014.314-.029.15-.022.3-.055.452-.076.096-.014.19-.02.263-.097.021-.021.065-.021.05-.017zm-12.041 6.107l-.001-.007c-.115 0-.23-.002-.345 0a.22.22 0 00-.173.09c-.044.056-.028.147.035.173a.24.24 0 00.082.023c.22.005.441.014.661.011.23-.003.46-.017.689-.026.048-.002.097.005.143-.003.132-.024.262-.058.39.018.022.013.058.01.085.004.168-.036.336-.073.503-.113.079-.019.148-.065.17-.142.034-.118.115-.141.218-.14.058 0 .115.004.172 0 .056-.003.114-.057.123-.105a.147.147 0 00-.073-.145.378.378 0 00-.134-.044 1.27 1.27 0 00-.258.006c-.137.02-.26.068-.316.214-.013.033-.042.078-.07.084-.137.026-.266.103-.416.052-.069-.024-.15-.02-.224-.02-.153.004-.306.014-.46.021-.124.006-.248.01-.373.017-.143.009-.285.02-.428.032zm12.47-2.14l-.003-.016c-.091.022-.184.043-.274.07-.048.013-.057.05-.013.08.107.07.115.152.08.27a.546.546 0 00.01.252c.02.093.091.15.188.146.3-.011.591.042.884.088.237.038.456-.031.668-.12.11-.046.122-.221.02-.288a.471.471 0 00-.211-.077 2.62 2.62 0 00-.486.001 1.56 1.56 0 01-.312 0c-.182-.014-.314-.084-.328-.288-.001-.019-.006-.042-.019-.054a.249.249 0 00-.089-.06c-.035-.011-.076-.003-.114-.003zm-11.487 5.31l-.283.062c-.006.002-.01.022-.01.034 0 .004.016.01.025.01.019.003.039 0 .057.005.064.014.072.027.04.065-.032.036-.078.065-.093.106-.015.04-.014.1.008.134.022.033.08.063.12.06.064-.003.127-.037.192-.053.111-.027.222-.062.335-.07.09-.006.17.003.225-.088.01-.018.05-.03.074-.027.197.032.367-.099.56-.092.055.002.099-.066.101-.123.004-.068-.045-.14-.113-.145-.224-.018-.441-.008-.603.182-.027.032-.058.04-.1.032-.17-.032-.339-.058-.535-.091zm9.878-1.152c.024-.003.083-.002.136-.018a.148.148 0 00.078-.074c.022-.048.002-.099-.04-.126a.339.339 0 00-.153-.068.35.35 0 01-.266-.136c-.102-.12-.248-.128-.395-.1a.135.135 0 00-.104.173c.021.062.061.118.035.187.062.013.126.023.188.037.045.01.097.016.133.042.108.078.232.076.388.083zm-7.725-2.95c-.118.02-.278.045-.438.073-.018.003-.035.014-.052.023-.052.028-.086.09-.078.142a.133.133 0 00.116.11c.057.006.114.003.172.006.065.004.048.027.018.065-.046.058-.054.123-.001.182.048.053.139.058.212.018a.133.133 0 00.056-.172c-.01-.025-.04-.044-.046-.07-.005-.02.01-.056.026-.064.034-.016.074-.016.11-.027.117-.036.18-.104.158-.169-.026-.077-.095-.115-.253-.116zm4.436-2.247c-.03-.051-.045-.099-.077-.13a.365.365 0 00-.123-.068c-.217-.082-.447-.1-.673-.139-.018-.003-.038.003-.056.007-.047.01-.111.08-.1.125a.25.25 0 00.066.119c.024.024.07.028.106.036.224.05.454.07.67.154.024.01.062.008.083-.005.037-.024.065-.06.104-.099zm-.646-10.678c-.078.01-.202.024-.325.044-.036.006-.08.017-.105.041a.263.263 0 00-.067.12c-.01.045.051.118.1.126.037.007.078.016.113.007.199-.048.4-.04.602-.036a.22.22 0 00.11-.023c.03-.018.062-.053.067-.085.005-.032-.012-.085-.037-.101a.527.527 0 00-.182-.078c-.074-.015-.153-.01-.276-.015zm1.249 11.202c-.008-.039-.005-.072-.02-.09-.03-.036-.065-.08-.105-.09-.21-.061-.423-.114-.636-.167-.026-.006-.057.004-.084.01-.048.013-.109.086-.095.129a.313.313 0 00.076.114c.017.018.051.022.079.029.176.042.352.085.529.125.045.01.096.022.14.012.04-.01.076-.046.116-.072zm5.22 5.82c.352.007.353.007.453-.292a.727.727 0 00.037-.165c.002-.018-.026-.053-.046-.058-.102-.023-.217-.042-.301.019-.049.036-.061.133-.074.206-.02.114-.077.19-.187.228-.017.006-.036.01-.053.018-.008.004-.012.014-.018.022.008.002.016.007.025.008l.164.014zm-.467-17.608c.076-.012.199-.028.32-.055.03-.007.074-.053.072-.077-.003-.042-.028-.102-.062-.118a.758.758 0 00-.586-.034c-.059.02-.09.07-.089.134.001.067.051.125.125.136.056.008.114.008.22.014zm-7.903 12.803c.02-.004.052-.004.074-.019.03-.02.066-.048.073-.078a.12.12 0 00-.036-.099.654.654 0 00-.169-.1c-.259-.103-.393-.066-.569.149l-.018.022c-.033.041-.025.073.023.078.101.01.198.038.307.017.097-.019.204.018.315.03zm-2.706-8.393c-.037.007-.113.016-.186.035a.136.136 0 00-.105.15c.006.053.053.114.11.116.17.006.342.008.513.003.046-.001.086-.041.095-.094.01-.054-.022-.09-.062-.118-.098-.066-.21-.086-.365-.092zm13.304-2.488c.055-.004.152-.002.245-.021.038-.008.075-.055.098-.094.023-.039-.022-.112-.075-.14-.025-.013-.052-.03-.079-.032-.143-.005-.287-.01-.431-.005-.042.002-.088.033-.123.062-.067.054-.041.183.039.212.026.01.055.016.084.017.067.002.134 0 .242 0zm-4.964 8.876a.626.626 0 00-.415.191.15.15 0 00-.005.185c.042.05.102.061.155.035.136-.068.28-.111.424-.157.088-.028.172-.135.144-.155-.044-.03-.098-.046-.15-.062-.054-.017-.11-.027-.153-.037zm-9.177-8.967c-.066.013-.153.02-.232.05-.035.014-.065.069-.076.11-.012.051.03.088.074.11a.313.313 0 00.081.028c.123.022.245.04.368.06.101.018.13-.002.152-.109.028-.131-.016-.204-.146-.227-.066-.011-.134-.013-.221-.022zm9.688-2.124c.135.016.205.017.252-.04.057-.071.13-.067.208-.068.021 0 .065.003.047-.042a.106.106 0 00-.057-.056c-.11-.031-.221-.057-.332-.084-.112-.027-.227-.051-.335.006a.21.21 0 00-.085.105c-.017.044.035.118.088.132.092.024.186.04.214.047zm-6.147 8.897c-.078.005-.13-.003-.171.014a.308.308 0 00-.128.096c-.023.03.05.14.097.16a.21.21 0 00.053.019c.103.016.206.035.31.044a.357.357 0 00.138-.021c.057-.019.097-.06.1-.124a.13.13 0 00-.094-.127c-.11-.027-.223-.045-.305-.061zm-7.41-2.832c-.058.008-.119.005-.17.025a.516.516 0 00-.167.106c-.043.041-.044.104-.015.16.025.047.073.079.118.064.156-.054.318-.05.48-.061.077-.006.119-.12.062-.177a.4.4 0 00-.14-.094c-.051-.02-.112-.016-.167-.023zm2.944 9.276c-.119.007-.225.021-.311.087a.3.3 0 00-.101.132c-.012.037.003.1.03.129.027.029.09.052.126.04.135-.045.265-.106.397-.16.053-.022.107-.039.158-.063.009-.004.013-.042.006-.049a.516.516 0 00-.304-.116zm4.795.504c.06-.007.173-.02.285-.035a.662.662 0 00.137-.03c.05-.017.077-.086.066-.144a.122.122 0 00-.09-.1c-.058-.017-.135-.022-.16.026-.071.145-.18.1-.29.08a.347.347 0 00-.113.004.125.125 0 00-.106.084c-.01.027-.017.055-.025.082-.022.08.008.116.079.097.055-.015.11-.032.217-.064zm-.023-14.894l.336.035c.036.004.07-.05.053-.08-.015-.025-.032-.047-.048-.071a.431.431 0 00-.553-.144.215.215 0 00-.045.034c-.038.035-.06.118-.03.159.028.034.07.063.112.078.032.011.074-.003.175-.01zm14.207-.794c.017.003.065.018.111.015.084-.007.169-.02.252-.039.059-.013.082-.08.071-.167-.008-.064-.061-.068-.106-.07-.096-.002-.191.006-.286.001a.416.416 0 00-.367.179c-.01.012-.019.039-.014.043a.095.095 0 00.052.02c.085.007.171.011.287.018zm-15.248 8.47c.08-.009.166-.011.25-.029.03-.006.065-.044.077-.076.017-.047-.006-.093-.046-.126a.195.195 0 00-.048-.03c-.148-.06-.3-.046-.452-.02a.103.103 0 00-.048.03c-.034.033-.076.07-.053.122.018.04.05.092.087.103.071.021.15.018.233.025zM99.284 80l.002-.016c.095 0 .19.006.285-.002.054-.006.107-.033.159-.054.012-.006.023-.03.022-.046-.001-.015-.015-.04-.027-.043-.193-.051-.388-.09-.589-.047a2.47 2.47 0 00-.243.068c-.015.004-.032.028-.032.043 0 .014.019.04.032.041.13.02.261.038.391.056zm-8.323-5.012c.09-.021.175-.034.253-.062.045-.015.071-.061.068-.115a.146.146 0 00-.102-.124c-.01-.002-.019-.005-.028-.005a50.94 50.94 0 00-.37.005c-.01 0-.022.002-.028.008-.03.034-.076.066-.081.104-.006.038.02.104.05.119.074.036.159.048.238.07zm.293 4.187h-.046c-.074.004-.13.052-.137.118a.143.143 0 00.101.152c.08.024.165.046.248.05a.503.503 0 00.19-.037.13.13 0 00.073-.078c.013-.05-.026-.087-.067-.113a.706.706 0 00-.362-.092zm12.688-4.153c.069-.012.153-.023.235-.041.049-.012.09-.05.087-.1-.003-.041-.025-.098-.058-.118-.15-.092-.306-.082-.459-.001-.045.024-.076.099-.053.149a.213.213 0 00.093.095c.04.018.092.01.155.016zm-8.554 11.026c.12-.004.174-.04.181-.093.008-.06-.008-.112-.062-.147-.008-.005-.015-.013-.024-.015-.11-.025-.22-.054-.33-.071-.034-.006-.073.015-.107.03-.05.02-.067.064-.067.114 0 .051.023.097.073.11.128.031.258.055.336.072zm-7.862-5.009c.082-.007.17-.005.252-.026.036-.009.073-.059.087-.099.009-.026-.018-.07-.038-.1a.132.132 0 00-.067-.05.57.57 0 00-.391.01c-.017.008-.038.02-.044.036-.019.041-.045.087-.041.128.004.046.043.086.096.093.047.006.095.006.146.008zm5.05 7.598c.176-.001.314-.07.466-.226.01-.01 0-.058-.012-.063-.041-.02-.09-.043-.133-.039a2.973 2.973 0 00-.335.061c-.066.015-.117.096-.115.18 0 .023.022.055.043.066.032.016.072.018.087.021zm2.68-12.234c.083-.024.167-.041.244-.073.063-.025.065-.133.007-.17a.499.499 0 00-.463-.043c-.01.003-.022.007-.025.014-.017.041-.045.084-.045.126 0 .03.03.078.058.089.07.027.146.038.224.057zm-.288 4.685c-.002 0-.069.006-.133.02-.056.013-.09.074-.086.134.004.062.043.117.098.125.104.017.208.03.312.039.056.005.116-.041.131-.093.018-.061-.003-.114-.045-.156-.058-.058-.134-.071-.277-.07zm-.259 5.478l-.044.003c-.073.005-.133.056-.137.118-.005.067.035.11.09.13.096.035.195.065.296.088a.139.139 0 00.158-.089c.014-.047-.012-.118-.06-.148a.613.613 0 00-.302-.102zm8.897-11.091l-.103.033c.012.033.036.068.033.1-.006.062.001.12.055.15.121.07.249.09.378.015.069-.04.076-.147.012-.193a.595.595 0 00-.375-.105zm-12.84.698c-.077.008-.164-.026-.209.06-.063.121-.046.218.05.31.027.026.06.046.093.065a.12.12 0 00.134-.007.13.13 0 00.055-.15.344.344 0 00-.067-.122c-.041-.051-.03-.08.027-.101.003-.001 0-.037-.005-.039-.027-.01-.055-.012-.077-.016zm5.816 10.514c.058-.005.106-.005.152-.014a.111.111 0 00.093-.094.114.114 0 00-.053-.122c-.119-.078-.25-.075-.383-.05-.051.011-.095.076-.093.13.001.052.045.113.099.124.064.014.13.019.185.026zm3.646 2.336l-.363.113c-.006.001-.012.016-.01.02.008.015.018.038.03.04.157.026.315.052.473.073.084.012.14-.017.137-.06a.153.153 0 00-.091-.132c-.05-.024-.106-.033-.176-.054zm-15.894-3.149v.005c.048-.003.096-.002.142-.01.055-.01.08-.054.078-.104a.202.202 0 00-.032-.107c-.07-.095-.242-.118-.336-.048-.05.038-.063.094-.053.155a.13.13 0 00.115.109c.029.003.058 0 .086 0zM96.2 75.133c.041-.013.105-.032.167-.053.037-.013.025-.041.016-.067-.045-.134-.104-.177-.226-.162a.14.14 0 00-.126.131c-.002.071.072.147.169.15zM84.204 87.44c.013-.069-.026-.122-.106-.141-.097-.024-.183.026-.192.112a.128.128 0 00.104.145c.099.018.176-.028.194-.116zm2.955-3.577c-.026.01-.097.035-.166.064-.012.005-.022.031-.02.047.001.015.015.038.028.042.064.02.128.037.194.05.093.017.175-.037.167-.106-.006-.06-.068-.1-.203-.097zm11.198 2.495a.15.15 0 00-.136-.125c-.078-.002-.138.078-.122.16.014.07.077.117.145.108.065-.008.12-.08.114-.143zm5.315-12.587c.074 0 .113.005.15-.001.02-.004.037-.026.055-.04-.013-.014-.024-.031-.04-.039a.43.43 0 00-.384.003c-.006.003-.008.017-.008.026-.001.007.003.02.007.02.085.013.17.025.22.031zM84.397 87.266c-.018.002-.065.007-.11.019-.011.003-.024.028-.023.043 0 .014.015.037.027.039a.629.629 0 00.14.015c.055-.002.114.002.152-.055.026-.038-.036-.062-.186-.061zm3.316-3.254c.002-.053-.034-.092-.088-.085a.09.09 0 00-.061.047c-.017.041.025.096.071.104.034.005.077-.03.078-.066zm25.828 12.644c-.035.169.001.366.037.564.027.15.028.305.042.458.006.057.009.115.025.169.014.048.058.076.11.078.053.002.098-.024.115-.07a.562.562 0 00.032-.168c.008-.202.015-.404.015-.606 0-.232.022-.46.086-.683.024-.083.051-.167.058-.253.016-.215.121-.37.276-.516.518-.487 1.028-.982 1.539-1.476.131-.127.253-.264.384-.391l3.984-3.884c.048-.047.101-.089.154-.129.008-.006.037.006.048.017a.089.089 0 01.019.053c.009.298.026.594.112.884.02.07.005.152-.002.228-.032.402-.067.804-.1 1.206l-.117 1.378c-.005.048-.006.1-.028.14-.075.133-.069.276-.078.42-.011.181-.04.362-.061.543a.283.283 0 01-.081.18.32.32 0 00-.092.235c-.002.124 0 .249.001.373.101.122.026.208-.055.299-.089.1-.105.2-.064.342.046.154.059.315.159.453.025.034.028.09.025.136-.024.345-.048.69-.081 1.035a.552.552 0 01-.086.21c-.057.1-.13.19-.185.291a.707.707 0 00-.072.215c-.018.116.041.164.17.153.064-.005.087.011.085.068-.004.106-.007.212-.016.317l-.152 1.722c-.022.249-.044.497-.064.746l-.133 1.666c-.022.268-.049.536-.067.804-.013.208-.09.388-.201.562a19.846 19.846 0 01-1.53 2.127c-1.118 1.333-2.179 2.711-3.247 4.084-.212.273-.429.543-.637.82-.132.176-.252.362-.378.544-.06.087-.119.174-.221.22-.046.021-.105-.008-.105-.057 0-.115.001-.231.007-.346.01-.201.027-.402.038-.603l.073-1.497.115-2.158.116-2.186.115-2.157c.039-.729.076-1.458.117-2.187.025-.45.057-.9.084-1.35a.482.482 0 00-.015-.142.138.138 0 00-.127-.099c-.054 0-.116.046-.128.1a.726.726 0 00-.015.113c-.02.365-.037.729-.058 1.094-.028.479-.06.958-.088 1.437-.008.144-.008.288-.015.432a351.84 351.84 0 01-.187 3.626c-.027.47-.06.939-.088 1.409-.01.163-.009.326-.017.49-.021.46-.042.921-.068 1.381-.026.47-.06.939-.087 1.409-.012.201-.013.403-.024.605-.011.211-.027.421-.042.632-.007.086-.044.121-.132.112a5.074 5.074 0 01-.37-.055c-1.046-.203-2.091-.41-3.137-.609-.367-.07-.739-.117-1.109-.176-.417-.066-.833-.135-1.251-.198-.37-.057-.741-.105-1.111-.161-.551-.082-1.101-.168-1.651-.252l-.94-.143c-.322-.048-.645-.094-.968-.141-.361-.052-.722-.106-1.084-.154-.437-.058-.875-.119-1.314-.161-.198-.019-.273-.156-.359-.293-.03-.047.011-.143.069-.173.06-.031.124-.052.184-.081a.265.265 0 00.165-.22c.02-.19.057-.379-.06-.558-.034-.051-.034-.129-.035-.195a11.225 11.225 0 010-.519c.025-1.143.051-2.287.079-3.43.017-.72.037-1.441.056-2.161l.06-2.363.054-2.133c.004-.145.002-.288.102-.41a.218.218 0 00.038-.107c.019-.175.085-.335.147-.496.117-.304.027-.534-.213-.708a2.62 2.62 0 01-.343-.306c-.153-.159-.32-.3-.54-.372-.167-.054-.29-.184-.421-.295-.047-.04-.062-.097-.058-.157.007-.107-.025-.207-.041-.31-.022-.15-.005-.306-.002-.46.001-.047.015-.095.021-.142.026-.19-.017-.239.27-.189.35.062.703.098 1.055.146l.998.135 1.142.155c.332.045.665.09.998.137.352.048.703.098 1.055.145.485.065.971.127 1.456.193.523.07 1.046.143 1.569.215.494.069.988.138 1.483.205l1.056.142c.494.067.988.137 1.483.205.342.047.684.093 1.027.138.333.044.666.085.999.13.048.006.094.02.141.03.067.014.099.062.101.123.005.124.002.249.002.406zm4.853.674c-.028-.03-.054-.081-.09-.09-.052-.012-.122-.012-.165.014a3.42 3.42 0 00-.67.538c-.014.014-.022.032-.031.048a.143.143 0 00.022.16.13.13 0 00.158.022c.032-.02.061-.045.091-.07.179-.144.358-.288.536-.434a.86.86 0 00.105-.096c.018-.02.025-.05.044-.092zm-9.504 11.735c.023-.003.045 0 .059-.01.03-.021.063-.044.08-.074.028-.048.003-.098-.034-.127a.381.381 0 00-.15-.076 10.841 10.841 0 00-.59-.1.222.222 0 00-.135.029c-.029.015-.062.058-.061.087a.207.207 0 00.055.123c.023.024.068.029.105.036.196.037.393.072.589.107.028.005.057.004.082.005zm.939-10.847c-.088 0-.165-.002-.241 0a.125.125 0 00-.12.104c-.009.057.019.121.071.144.043.02.09.035.136.04.171.017.343.034.514.04a.48.48 0 00.191-.04c.065-.027.074-.129.019-.17a.3.3 0 00-.126-.06c-.15-.024-.303-.04-.444-.058zm-5.781 9.188c.11-.015.206-.021.298-.043.077-.019.117-.109.095-.184-.015-.05-.063-.083-.138-.078a1.797 1.797 0 01-.598-.042c-.027-.008-.062-.014-.084-.002a.286.286 0 00-.105.086c-.028.045.002.126.046.152.024.015.05.03.077.036.14.027.28.051.409.075zm5.332 3.535l-.003.017c-.066 0-.133-.004-.199.001a.124.124 0 00-.11.112.134.134 0 00.086.134.516.516 0 00.109.029c.15.022.3.043.45.062a.475.475 0 00.113-.001c.063-.007.128-.078.127-.135 0-.047-.047-.114-.1-.126-.157-.033-.315-.062-.473-.093zm-4.791-4.241v-.004l-.258.001a.268.268 0 00-.056.007.147.147 0 00-.11.118c-.009.061.044.13.11.146.01.002.019.005.029.005.171-.003.342-.004.513-.009.027-.001.054-.017.08-.029a.124.124 0 00.071-.141c-.011-.05-.041-.09-.094-.093-.095-.004-.19-.001-.285-.001zm10.556-9.112c.025-.008.085-.014.132-.04.074-.043.142-.097.209-.15a2.97 2.97 0 00.217-.185.118.118 0 00.027-.132.134.134 0 00-.14-.078c-.027.004-.061.005-.081.021-.149.12-.295.24-.44.364-.019.017-.027.049-.038.075-.022.05.025.12.114.125zm-9.825 9.052c.017 0 .084.003.151-.001.037-.002.083-.006.108-.027a.205.205 0 00.068-.115c.004-.028-.028-.072-.056-.09a.256.256 0 00-.133-.043 7.761 7.761 0 00-.457.021.145.145 0 00-.08.027.183.183 0 00-.065.087c-.012.048.007.101.054.121.06.026.126.043.19.048.056.005.114-.013.22-.028zm9.98.229c.042-.011.072-.013.095-.028.137-.085.273-.172.408-.261a.118.118 0 00.045-.15c-.028-.06-.079-.087-.139-.079a.798.798 0 00-.466.257c-.019.021-.041.045-.046.071-.007.035-.012.081.005.107.023.036.067.059.098.083zm-12.717-9.07c.047.003.095.007.143.008.02.001.039 0 .058-.002.077-.007.143-.062.143-.117-.001-.067-.045-.105-.097-.13a.316.316 0 00-.11-.032 4.207 4.207 0 00-.316-.02.318.318 0 00-.139.026.143.143 0 00-.067.085.108.108 0 00.049.124c.041.023.088.04.134.048.066.01.134.008.202.01zm4.332 2.259l.002-.019c.066 0 .134.004.2-.001a.216.216 0 00.109-.03c.035-.027.075-.07.076-.108.002-.038-.033-.092-.067-.113a.314.314 0 00-.164-.041 3.53 3.53 0 00-.371.037c-.051.008-.077.053-.088.102-.011.052.025.123.08.137.072.018.148.024.223.036zm9.662 1.342c.014-.003.051.001.067-.016.126-.127.251-.255.366-.391.019-.022-.003-.091-.023-.13-.024-.046-.105-.06-.153-.032a.96.96 0 00-.382.411c-.036.069.03.158.125.158zm-2.162 7.987c.036-.009.06-.008.072-.019.137-.132.258-.276.312-.463.006-.02-.012-.06-.031-.073-.028-.019-.073-.038-.1-.027-.178.072-.284.215-.352.388a.142.142 0 00.01.109c.021.037.063.062.089.085zm1.904-8.084c.008-.095-.058-.155-.127-.144-.113.017-.377.24-.423.357-.02.048.008.128.061.142.043.012.105.022.134 0 .113-.085.219-.181.322-.278.025-.023.029-.067.033-.077zm-7.51-3.674c-.047.006-.088.003-.121.018a.178.178 0 00-.076.075c-.024.046-.006.094.03.129.02.02.045.04.071.044.139.026.279.05.42.066.033.004.072-.02.105-.038.058-.03.071-.129.022-.172a.239.239 0 00-.096-.056c-.12-.026-.242-.045-.355-.066zm-7.173.711c.027-.001.055-.002.083-.005.062-.007.111-.052.117-.105.006-.053-.029-.104-.087-.132-.123-.06-.258-.059-.389-.07a.381.381 0 00-.112.011.124.124 0 00-.097.093c-.015.053.017.122.066.143.034.014.07.03.107.035.103.013.207.02.312.03zm.198 6.056c.076-.005.104-.006.132-.009.065-.007.11-.05.114-.106.003-.053-.021-.099-.068-.113a7.508 7.508 0 00-.491-.125c-.048-.011-.089.026-.111.072a.114.114 0 00.024.131.242.242 0 00.09.066c.116.036.235.064.31.084zm15.901-1.275c.04-.01.076-.009.093-.026.11-.115.219-.233.322-.354.034-.04.002-.123-.053-.142-.041-.015-.098-.025-.134-.007a.635.635 0 00-.31.352c-.013.031-.006.078.009.109.014.029.05.048.073.068zm-15.22 2.377c.094-.012.217-.025.339-.044.037-.006.082-.02.102-.046a.2.2 0 00.041-.126c-.002-.028-.042-.072-.07-.077-.17-.031-.341-.034-.5.052-.056.03-.073.085-.065.145.008.056.06.095.153.096zm6.821-2.48c-.029-.005-.057-.011-.086-.013a.484.484 0 00-.085-.004c-.078.004-.137.098-.095.169a.265.265 0 00.12.11c.109.04.226.035.338.002.042-.012.079-.049.113-.081.04-.038.024-.119-.028-.145a.303.303 0 00-.106-.036c-.057-.006-.115-.002-.171-.002zm9.671-9.207c.018-.002.042.002.055-.007.126-.089.237-.194.314-.328a.098.098 0 00-.024-.13c-.027-.02-.069-.022-.105-.03a.049.049 0 00-.028.004.555.555 0 00-.316.316c-.029.074.029.168.104.175zm-.382 3.708c-.169.049-.305.124-.384.279-.004.008-.007.02-.003.028.017.041.028.09.058.12.021.022.079.034.103.02.123-.069.249-.139.329-.261a.104.104 0 00-.011-.132c-.025-.025-.062-.037-.092-.054zm-6.875-.793c.051-.005.099-.006.146-.014a.127.127 0 00.102-.12c.001-.054-.025-.094-.073-.111a.79.79 0 00-.393-.035c-.077.011-.114.123-.061.183a.27.27 0 00.113.08c.053.016.113.012.166.017zm5.324-1.376c-.022-.019-.052-.063-.09-.07-.163-.036-.344.17-.35.307-.004.086.111.18.173.134a.738.738 0 00.267-.321c.003-.009 0-.019 0-.05zm-8.509 14.957c-.048.006-.099.004-.141.021-.032.013-.071.049-.074.077-.004.042.009.107.038.127a.421.421 0 00.409.04c.046-.017.085-.061.071-.111-.012-.042-.044-.094-.08-.108-.069-.027-.148-.032-.223-.046zm9.06-6.522c.001-.081-.095-.155-.162-.131a.515.515 0 00-.265.206.148.148 0 00-.017.054c-.006.049-.004.1.043.126.03.016.074.024.106.015a.56.56 0 00.27-.2c.016-.021.019-.052.025-.07zm-14.328-1.589c-.107-.003-.173.088-.147.157.053.14.231.229.373.176.037-.013.071-.063.084-.103.009-.027-.01-.08-.034-.099a.698.698 0 00-.276-.131zm11.99 3.961c-.043-.03-.077-.072-.117-.079-.124-.02-.312.094-.343.208-.011.038.008.093.03.13a.093.093 0 00.127.031c.09-.052.176-.112.257-.177.025-.021.028-.067.046-.113zm-4.118-3.715c.044-.007.093-.01.137-.025.049-.017.074-.061.073-.113 0-.05-.018-.094-.069-.115a.547.547 0 00-.31-.028c-.053.011-.1.072-.1.126 0 .056.042.118.095.129.056.012.113.018.174.026zm-5.248 1.038c.058-.014.133-.027.203-.053a.098.098 0 00.059-.118c-.012-.041-.042-.095-.077-.107a.373.373 0 00-.352.052c-.029.02-.038.085-.034.127.003.029.042.061.073.076.032.017.073.015.128.023zm-.424-2.664c.017-.002.046-.004.074-.009a.138.138 0 00.109-.117.126.126 0 00-.093-.128 1.766 1.766 0 00-.251-.037c-.052-.004-.088.03-.11.076-.022.048 0 .113.046.153.062.054.136.061.225.062zm5.838 4.725c.13.01.193-.028.205-.089a.14.14 0 00-.086-.16 1.368 1.368 0 00-.214-.069c-.064-.014-.139.038-.154.097-.014.053.009.12.061.145.076.036.155.063.188.076zm-9.699-9.345c.014-.003.048 0 .067-.015a.266.266 0 00.088-.099c.02-.047-.01-.09-.052-.117a.427.427 0 00-.27-.061c-.051.003-.085.033-.105.08-.022.05-.004.094.028.128.061.067.142.088.244.084zm8.295.32c-.015-.04-.017-.075-.036-.09a.385.385 0 00-.311-.103.112.112 0 00-.098.09.148.148 0 00.024.105.305.305 0 00.332.09c.037-.016.061-.062.089-.092zm-3.812 9.602h-.077c-.056.002-.12.048-.119.101a.2.2 0 00.044.124.21.21 0 00.236.049.154.154 0 00.077-.076.102.102 0 00-.03-.128c-.043-.034-.097-.053-.131-.07zm12.852-8.45a.177.177 0 00-.157.173c.001.063.066.13.127.132.09.003.159-.093.147-.202-.006-.056-.065-.107-.117-.102z"></path><path fill="#000" d="M102.764 86.71v-.98c.001-.134.01-.269.007-.403-.01-.634.037-1.267.058-1.9l.01-.404c.015-.595.035-1.19.042-1.786.006-.49-.001-.98-.008-1.47-.004-.25-.022-.499-.035-.748-.006-.109.008-.206.09-.291.108-.113.106-.27.11-.409a1.6 1.6 0 01.121-.499.307.307 0 01.171-.181c.061-.03.127-.05.181-.088.045-.032.099-.08.107-.126.017-.107.082-.142.17-.166.254-.069.477-.198.692-.345a5.54 5.54 0 01.487-.308c.168-.09.347-.163.522-.24a.084.084 0 01.121.079.427.427 0 01-.159.352c-.044.036-.105.055-.141.097a.314.314 0 00-.069.15.154.154 0 00.149.176c.056.001.122.001.166-.026a4.3 4.3 0 00.402-.278.191.191 0 00.073-.206c-.012-.049-.014-.092.033-.127.13-.1.197-.234.21-.395a.184.184 0 01.078-.145.493.493 0 00.114-.127 1.75 1.75 0 01.56-.53l.565-.346c.279-.169.559-.336.838-.506.164-.1.328-.2.489-.304.072-.047.14-.1.209-.152.041-.03.084-.043.133-.018.043.022.085.047.13.062.109.036.129.11.13.22.006.47.026.94.037 1.41.003.153-.007.306-.012.46-.002.037-.013.075-.014.113-.018.548-.078 1.093-.06 1.641.004.135.021.268.026.403.005.124.014.25.003.374-.045.5-.019.999-.031 1.498-.009.355-.025.71-.033 1.066-.004.21-.009.421.008.63a1.6 1.6 0 01-.075.653c-.025.072-.042.148-.071.219a1.223 1.223 0 00-.047.653c.036.237.1.47.14.705.022.132.032.268.026.401-.027.691-.067 1.381-.062 2.074.002.287-.026.576-.022.864.006.306.034.613.051.92.005.105.008.21.009.316a.454.454 0 01-.182.375 1.925 1.925 0 01-.265.169c-.16.087-.329.158-.484.253-.92.557-1.836 1.12-2.755 1.68-.196.12-.4.229-.595.352-.422.266-.845.532-1.258.813-.198.134-.41.249-.588.412-.02.018-.05.028-.076.038-.086.035-.163 0-.176-.087-.031-.208-.065-.417-.079-.627-.041-.595-.034-1.19-.043-1.785-.005-.297-.053-.593-.075-.89-.022-.277-.047-.554-.05-.832-.008-.634-.003-1.269-.003-1.903zm5.26-9.766c0 .07-.001.099.001.127.006.084.045.135.111.149.08.017.155-.021.178-.107a.614.614 0 00.024-.224.487.487 0 01.036-.25c.051-.133.092-.273.12-.413.026-.126-.056-.23-.176-.257-.078-.018-.189.044-.227.144-.053.142-.119.286-.065.446a.496.496 0 01.01.283c-.012.046-.011.095-.012.102zm-3.573 4.878h.004c0 .067-.004.135.002.201a.436.436 0 00.035.137c.019.046.061.083.112.072.042-.01.094-.034.115-.069a.32.32 0 00.046-.162c0-.18-.029-.361.014-.542.012-.052-.043-.112-.095-.13-.05-.017-.131.004-.154.05a.869.869 0 00-.076.214c-.013.074-.003.152-.003.229zm1.323 5.065c.009-.082-.037-.144-.093-.146-.047-.001-.102-.007-.14.014-.132.074-.258.159-.386.241a.14.14 0 00-.037.043c-.026.043-.041.092-.007.133.028.033.07.06.111.077.022.01.059.002.082-.01a7.98 7.98 0 00.41-.257c.034-.024.049-.076.06-.095zm-1.118 3.327c-.012-.082-.092-.135-.157-.118a.89.89 0 00-.446.292c-.006.007-.009.017-.013.025-.021.057-.023.111.017.161.031.039.111.06.156.029.139-.098.275-.2.408-.307.024-.02.028-.066.035-.082zm3.375-3.89c.134-.032.286-.082.391-.22.006-.007.009-.016.013-.025.037-.07-.012-.164-.091-.173a.17.17 0 00-.083.004c-.114.048-.226.1-.337.154a.134.134 0 00-.066.145c.013.062.081.114.173.115zm-1.503-4.939c-.031-.027-.055-.066-.085-.07-.054-.009-.12-.012-.166.012a1.7 1.7 0 00-.258.18.13.13 0 00-.025.181c.043.06.111.083.176.055a.81.81 0 00.317-.243c.022-.028.025-.07.041-.115zm-.8-3.221c-.004-.108-.117-.167-.19-.107-.094.078-.176.171-.257.262-.037.042-.026.12.015.156.044.04.095.064.155.035a.52.52 0 00.267-.281c.01-.025.009-.055.01-.065zm-1.919.768c-.002.091.01.164.078.218.064.049.182.032.197-.037a3.74 3.74 0 00.05-.366c.004-.047-.059-.104-.112-.117-.053-.013-.097.01-.129.046a.374.374 0 00-.084.256zm4.191.186c.018-.005.039-.005.054-.014a.564.564 0 00.228-.312c.01-.03-.029-.09-.062-.113-.058-.042-.13-.032-.185.01a.5.5 0 00-.173.254c-.025.081.055.181.138.175zm.134 3.823c.007-.081-.076-.15-.153-.127a.567.567 0 00-.299.21c-.022.032-.018.092-.007.135.013.051.064.07.114.068.159-.008.264-.098.336-.233.008-.016.006-.037.009-.053zm-.836.13c.005-.079-.081-.148-.158-.134a.549.549 0 00-.292.161c-.043.044-.05.1-.023.157a.14.14 0 00.169.07.592.592 0 00.278-.187c.016-.021.02-.051.026-.067zm-.483 6.365c.019-.002.043.002.055-.008.083-.064.166-.127.24-.2.021-.02.023-.072.015-.105-.013-.049-.056-.076-.108-.079a.358.358 0 00-.32.202c-.032.083.035.192.118.19zm.263-11.877c0-.072-.075-.152-.132-.15a.39.39 0 00-.295.153c-.029.037-.024.121.005.163.032.044.103.07.154.044.076-.038.151-.08.22-.129.028-.02.038-.062.048-.081zm.223 2.097c.151-.012.274-.147.267-.272-.005-.078-.094-.14-.163-.113a.364.364 0 00-.207.185c-.022.047-.028.097.007.134.029.032.073.051.096.066zm-3.013 4.424c-.102.002-.171.026-.222.075-.065.06-.043.19.036.217a.25.25 0 00.314-.127c.023-.048-.006-.126-.057-.145-.026-.01-.054-.015-.071-.02zm3.237 3.864c.007-.065-.046-.131-.113-.141-.064-.01-.129.04-.142.11-.015.072.026.14.093.151.08.015.153-.039.162-.12z"></path><path fill="#000" d="M100.153 93.595c.307-.012.614-.027.921-.036.095-.002.191.007.286.02.133.018.265.045.398.065.361.055.361.055.677-.136l5.545-3.36c.017-.011.035-.019.049-.031.138-.12.284-.127.454-.068.153.054.316.078.477.107.053.01.113-.001.167-.014a.097.097 0 00.078-.107c-.004-.033-.027-.08-.054-.093-.078-.036-.162-.058-.244-.084-.082-.025-.165-.046-.247-.073-.006-.001-.01-.036-.003-.04.063-.044.127-.086.193-.126l.911-.553c.05-.03.103-.055.145-.094a.131.131 0 00.034-.099c-.012-.095-.032-.187-.107-.26a.315.315 0 01-.088-.264c.009-.096.071-.166.163-.172.066-.004.134 0 .201.008.352.044.704.09 1.056.138.362.047.723.096 1.085.144.39.051.78.104 1.171.154.361.047.723.091 1.085.138.353.045.705.092 1.057.138l1.084.145 1.171.155c.352.046.705.09 1.057.135l1.057.133c.048.006.095.017.141.03.027.006.052.02.079.032-.013.023-.02.052-.038.07a3003.962 3003.962 0 01-2.703 2.639l-1.487 1.448c-.034.033-.07.066-.103.1a.185.185 0 01-.184.056c-.131-.028-.262-.06-.394-.084a.404.404 0 00-.167.007c-.03.008-.061.046-.074.078-.02.048 0 .106.044.124.105.044.216.075.325.108.073.022.085.064.028.122a3171.427 3171.427 0 01-1.504 1.471c-.035.034-.073.063-.108.096a.328.328 0 01-.292.083c-.475-.07-.95-.138-1.425-.203-.486-.067-.971-.13-1.456-.195-.352-.047-.704-.097-1.056-.145l-1.027-.14c-.514-.07-1.027-.141-1.541-.21-.495-.068-.99-.131-1.485-.198l-.999-.138-1.455-.201c-.38-.053-.76-.106-1.141-.157l-1.484-.196c-.457-.06-.914-.122-1.37-.184a.283.283 0 01-.109-.035c-.014-.009-.022-.06-.013-.068.05-.042.102-.09.161-.112.144-.057.297-.078.452-.078h.606v.01zm13.874-2.418a.186.186 0 01-.002.024c-.133-.012-.266-.026-.399-.036-.066-.004-.118.033-.132.087a.138.138 0 00.057.15c.033.02.067.042.103.049.065.013.132.02.199.022.267.004.536-.012.801.046.036.009.081.012.112-.003a.21.21 0 00.096-.093c.011-.025-.011-.074-.031-.102a.238.238 0 00-.176-.086l-.628-.058zm-2.051.745c.07 0 .157.002.243 0a.336.336 0 00.111-.024c.048-.019.082-.062.074-.111a.267.267 0 00-.068-.118c-.016-.018-.053-.023-.08-.024a27.493 27.493 0 00-.489-.006.154.154 0 00-.155.107c-.02.053-.056.07-.109.069-.106-.004-.211-.009-.316-.007-.06 0-.108.05-.116.108-.011.07.028.144.096.155.093.015.189.022.285.023.092 0 .168-.036.198-.134.013-.04.032-.062.081-.056.075.01.152.012.245.018zm1.023-2.489v.008c.038.002.076.006.115.006.066 0 .133.002.2-.004.053-.004.093-.045.096-.091a.168.168 0 00-.05-.123.295.295 0 00-.155-.062c-.162-.013-.325-.016-.487-.02-.028-.001-.063 0-.083.015-.035.027-.08.065-.084.102-.005.038.025.095.058.118.045.03.105.043.161.05.075.007.153.001.229.001zm3.598.819c-.071 0-.1-.002-.128 0-.061.003-.118.044-.13.093-.012.048.021.118.07.145.025.014.051.032.078.035.17.022.34.047.51.058.052.003.108-.03.157-.056.045-.024.048-.12.008-.154a.222.222 0 00-.097-.054c-.169-.027-.339-.05-.468-.067zm-12.651 3.33c-.066.008-.104.01-.141.018a.14.14 0 00-.114.111c-.014.06-.002.117.044.156a.216.216 0 00.183.054c.092-.015.187-.016.28-.023.048-.004.095-.005.142-.013.059-.01.105-.063.104-.116-.001-.054-.03-.093-.079-.104-.148-.033-.297-.059-.419-.082zm8.533-2.913c.066-.008.133-.009.197-.025a.098.098 0 00.075-.108c-.005-.034-.022-.079-.048-.096a.466.466 0 00-.159-.06c-.112-.022-.226-.035-.34-.05a.378.378 0 00-.085 0c-.054.006-.106.06-.113.115a.129.129 0 00.056.124c.03.021.068.036.104.043.103.022.207.038.313.057zm-2.104 3.295c-.077-.016-.14.017-.161.077a.148.148 0 00.091.185c.164.057.33.085.501.03.061-.02.098-.07.096-.126a.127.127 0 00-.105-.117c-.14-.019-.281-.033-.422-.049zm-.371.552c.13.006.203-.004.264-.059.042-.037.044-.115-.001-.15-.015-.01-.03-.028-.047-.03-.156-.032-.313-.064-.47-.088-.049-.007-.088.03-.109.077-.023.052-.006.123.037.153.022.016.046.035.073.041.1.025.202.045.253.056zm-.063-3.071c-.054.002-.103 0-.149.008-.049.01-.094.043-.092.096.002.043.017.101.048.125.114.09.283.085.4-.008.026-.02.049-.072.041-.1a.173.173 0 00-.085-.1c-.051-.021-.112-.016-.163-.021zm-4.89 1.811c-.035.006-.063.008-.09.016-.047.012-.099.082-.098.128 0 .045.051.12.099.126a.815.815 0 00.196.004c.076-.01.138-.076.132-.126-.006-.053-.069-.118-.133-.133-.037-.009-.075-.01-.106-.015zm8.366-1.015c.046-.009.107-.008.153-.032.034-.019.062-.07.069-.11.005-.027-.023-.076-.049-.09-.102-.057-.212-.076-.324-.025-.049.022-.066.064-.067.113-.001.051.023.093.071.11.043.017.091.022.147.034zm-5.25.883c-.096.002-.15.037-.166.088-.018.061.018.132.084.164.092.046.183.057.27-.01.041-.03.067-.076.049-.124-.011-.033-.041-.071-.071-.082-.062-.023-.13-.029-.166-.036zm7.008-.206c-.019-.027-.036-.08-.071-.099-.077-.042-.165-.036-.248-.005-.049.019-.083.096-.064.143.027.07.082.102.153.11.094.01.184-.035.216-.104.004-.009.006-.018.014-.045zm-.7-3.448c-.009-.108-.074-.15-.144-.182-.064-.029-.133-.036-.189.013-.037.033-.057.079-.034.13.055.12.202.177.312.115.028-.016.043-.058.055-.076zm-4.296.454c-.062.006-.12.082-.112.144.013.094.105.15.218.133a.117.117 0 00.098-.121c-.008-.091-.105-.165-.204-.156z"></path><circle cx="97.5" cy="92.048" r="45" stroke="#000000" fill="none"></circle><circle cx="97.5" cy="626.255" r="45" stroke="#000000" fill="none"></circle><path fill="#000" d="M97.346 642.98c3.924.35 7.555-.172 10.981-1.896 7.442-3.746 11.154-12.313 7.603-20.857-.825-1.984-2.003-3.751-3.466-5.32-.405-.433-.892-.79-1.347-1.176a51.42 51.42 0 00-1.377-1.133 63.47 63.47 0 00-1.734-1.324c-.696-.509-1.366-.759-2.117-.008-.295.296-.804-.031-.75-.515.071-.638-.09-.956-.725-1.178-6.151-2.16-12.06-1.739-17.56 1.846-3.999 2.607-6.29 6.425-6.967 11.146-.244 1.704-.222 3.449.226 5.145.03.112.15.237.255.279.074.027.239-.054.293-.134.378-.545.72-1.116 1.117-1.645.086-.115.433-.188.519-.114.179.151.414.46.362.623-.32 1.022-.793 1.987-1.66 2.653-.36.276-.327.51-.217.832.813 2.362 2.107 4.444 3.804 6.259 3.5 3.743 7.842 5.843 12.76 6.517zm18.307-15.021c-.466 4.231-3.172 7.457-6.73 8.501-2.05.601-3.985.352-5.632-1.046-2.313-1.963-3.493-4.458-3.239-7.557.183-2.233 1.231-4.023 2.711-5.631 1.842-1.999 4.186-2.718 6.813-2.737.261-.001.549.024.78.13 1.779.818 3.381 1.844 4.296 3.682.823 1.653 1.118 3.393 1.001 4.658zm-28.405-8.693c.074-.741.409-1.271 1.011-1.542.096-.044.284-.016.358.055.129.125.308.33.282.464-.116.593-.404 1.109-.963 1.398-.14.071-.373.024-.538-.038-.08-.03-.1-.219-.15-.337zm6.126 5.975c-.111-.061-.282-.097-.322-.188-.071-.165-.155-.449-.075-.532.356-.373.76-.703 1.167-1.022.069-.054.29-.018.358.054.127.134.287.338.265.49-.083.607-.754 1.152-1.393 1.198zm1.571 13.652c.052-.616.568-1.226 1.22-1.451.097-.035.285.013.346.091.114.141.257.352.224.5-.139.655-.764 1.18-1.376 1.161-.148-.006-.29-.208-.414-.301zm1.311-22.107c.06.028.122.051.177.087.253.168.29.593.08.874-.386.514-.835.657-1.153.364a.4.4 0 01-.12-.155c-.156-.529.448-1.221 1.016-1.17zm-4.172-4.302c-.104-.062-.258-.098-.302-.188-.22-.446-.046-.924.397-1.153.285-.147.702.1.725.429.032.472-.308.85-.82.912zm4.5 22.026c.41-.041.631.18.61.454-.02.28-.16.47-.447.528-.223.044-.507-.221-.446-.478.047-.208.213-.387.282-.504zm11.477-17.561c-.049-.299.135-.472.396-.559.308-.102.509.075.579.35.079.299-.103.494-.383.559-.281.064-.503-.031-.592-.35z"></path><circle cx="1269.5" cy="92.048" r="45" stroke="#000000" fill="none"></circle><path fill="#000" d="M1293.77 99.298c-.02-.16-.03-.32-.06-.48-.07-.423-.32-.733-.66-.978-.07-.047-.13-.081-.15-.174-.01-.044-.06-.085-.1-.117-.12-.097-.24-.189-.36-.285l-11.37-9.008c-2.72-2.159-5.44-4.317-8.17-6.475l-8.64-6.847c-1.22-.972-2.45-1.943-3.68-2.915-.11-.087-.21-.184-.31-.27a1.15 1.15 0 00-.19-.111c-.25-.105-.5-.102-.76-.07-.16.02-.32.043-.48.077-.74.16-1.32.562-1.74 1.187a1.8 1.8 0 00-.31.838c0 .051 0 .107-.02.152-.05.1-.02.183.03.269.03.039.05.076.09.088.09.022.14.082.2.135l5.04 4.38c2.06 1.783 4.11 3.564 6.16 5.347l4.83 4.193c1.76 1.528 3.51 3.055 5.27 4.583l5.58 4.842c1.04.906 2.08 1.812 3.13 2.717.06.058.13.115.19.175.27.253.57.472.87.681.19.13.37.262.51.449.06.077.14.104.22.123.04.009.06-.013.07-.038.02-.04.03-.082.05-.124a6.978 6.978 0 012.14-2.967c.2-.169.43-.313.66-.434.17-.086.35-.15.54-.188.07-.015.14-.01.22.007.21.047.4.152.55.308a.94.94 0 01.15.214c.07.13.11.273.13.42.02.233.01.468-.02.702-.06.443-.22.851-.4 1.252-.32.699-.75 1.331-1.24 1.92a9.624 9.624 0 01-2.13 1.907c-.41.265-.83.487-1.3.641-.22.074-.45.122-.69.15-.29.035-.57-.026-.83-.141a.242.242 0 01-.09-.069c-.14-.227-.23-.471-.2-.748.02-.142.06-.276.13-.396.14-.235.28-.467.43-.694.07-.117.17-.221.25-.329.12-.138.25-.261.4-.353.18-.115.38-.219.57-.319a.663.663 0 01.34-.082c.08.005.13-.021.16-.094.01-.027.03-.052.04-.078.02-.037.02-.069-.02-.098-.07-.064-.14-.129-.21-.191-.28-.238-.56-.473-.84-.713-2.9-2.506-5.81-5.013-8.71-7.52-2.31-1.992-4.61-3.985-6.92-5.978l-6.96-6.007c-2.53-2.19-5.07-4.38-7.61-6.57-.51-.446-1.03-.89-1.55-1.34a.535.535 0 00-.42-.14c-1.36.078-2.39.832-2.99 1.579-.24.293-.43.614-.56.968-.15.396-.22.803-.18 1.23.02.15.05.288.1.425l.15.392c.11.094.22.19.33.281 4.05 3.199 8.1 6.396 12.14 9.594.19.15.39.3.58.45.05.039.09.056.16.018a.26.26 0 01.23-.024.31.31 0 00.17-.004c.09-.024.17-.014.26-.008.14.008.28.019.42.009.35-.025.69-.02 1.03.038a.46.46 0 00.13-.003c.14-.017.28-.047.42-.055.47-.026.91.076 1.33.299a3 3 0 01.91.718c.11.123.22.245.32.367.04.038.07.079.11.11.19.14.37.29.57.411.6.363 1.14.805 1.64 1.295.77.76 1.44 1.61 2.04 2.51.09.134.19.263.29.387.21.25.42.495.62.743.3.35.64.655 1.01.914.15.1.3.199.44.295.32.206.61.443.88.705.27.263.48.573.69.884.08.116.15.234.23.352.46.716.98 1.39 1.51 2.058.02.034.06.067.08.104.12.198.28.349.47.491 1.71 1.35 3.42 2.704 5.13 4.057l.12.096c.05.035.09.073.11.136.01.088.08.136.15.179.23.134.47.19.73.204.29.016.58-.034.85-.107.32-.084.63-.208.93-.357a8.144 8.144 0 001.58-1.066 10.3 10.3 0 002.09-2.4c.36-.569.66-1.168.83-1.82.09-.339.12-.584.14-.87z"></path><path fill="#000" d="M1253.25 107.999h.81c.07 0 .14-.008.19.036.09.065.18.058.28.051.18-.013.36-.032.55-.042.22-.012.44-.021.66-.024.16-.003.33.004.5.008.11.003.23.032.33.006.23-.057.47-.027.7-.07.09-.017.19-.028.28-.038.19-.021.37-.051.55-.056.6-.017 1.21-.027 1.81-.035.14-.002.28.013.42.018.45.015.89.019 1.34-.056.39-.065.78-.122 1.18-.116.2.003.4-.024.59-.042.14-.012.21-.11.19-.244 0-.029-.02-.056-.03-.083-.02-.047 0-.086.03-.122.03-.039.07-.075.1-.115.06-.068.11-.134.16-.208.16-.238.21-.484.05-.745-.02-.046-.01-.084.03-.115a.44.44 0 01.28-.11c.06 0 .12-.01.17-.044.12-.083.25-.055.38-.036.03.004.05.045.03.067-.02.03-.05.055-.07.086-.01.031-.03.067-.04.102-.01.079.06.146.14.126a.725.725 0 00.06-.022c.15-.061.3-.127.45-.181.12-.044.2-.11.21-.248.01-.078.05-.102.12-.081.13.032.25.063.36.115.25.117.51.179.79.2.32.025.63.091.95.171.3.077.6.143.91.183.09.012.18.039.27.063.06.016.09.047.08.089 0 .069-.03.124-.09.136-.05.013-.11.018-.17.023-.09.006-.18.013-.26.012a.302.302 0 01-.13-.026c-.08-.038-.17-.032-.26-.027-.1.006-.16.086-.14.184 0 .047.03.084.07.103a.46.46 0 00.13.037c.23.031.46.06.69.019.16-.026.31-.043.46-.059.16-.015.29-.047.35-.22.01-.056.08-.079.12-.064.12.036.22.087.33.133v.037a.075.075 0 01-.04.027c-.25.1-.5.206-.77.264-.1.022-.18.053-.21.161-.02.057-.07.073-.12.072a5.41 5.41 0 01-.18-.006.444.444 0 00-.36.126.41.41 0 01-.4.116c-.13-.024-.27-.011-.4-.006a.688.688 0 00-.19.044c-.06.021-.09.072-.1.133-.03.112.02.187.14.202.06.008.12.009.18.011.1.005.2.008.3.01.07.002.12.021.15.076.07.094.16.154.26.199.11.046.21.059.32.023.17-.053.34-.09.51-.137.07-.019.13-.02.2-.001a.57.57 0 00.17.032c.24-.001.47.04.7.077a.98.98 0 00.2.015.17.17 0 00.16-.175c0-.071-.04-.131-.11-.149-.03-.009-.07-.011-.11-.017-.16-.028-.23-.108-.25-.277-.01-.036-.01-.073-.02-.108-.01-.042-.05-.092-.04-.121.03-.051.09-.032.14-.034.05-.001.11.004.16 0 .09-.008.15.025.18.121.02.07.08.1.15.1.04.001.09.001.13-.001.13-.005.25.008.37.054.1.037.2.044.3.033.16-.017.33-.024.49-.043.13-.018.28-.032.41-.074.22-.07.44-.16.66-.242.12-.045.25-.091.37-.134.18-.061.36-.086.54-.054.18.03.35-.006.53-.032.11-.016.21-.046.32-.064a.527.527 0 00.3-.131c.04-.038.1-.046.16-.065.06-.021.09-.065.11-.127.02-.078-.03-.158-.11-.16-.15-.002-.3-.007-.44.012-.25.033-.5.004-.74-.039a.73.73 0 01-.17-.046c-.13-.051-.26-.107-.39-.163-.01-.004-.02-.025-.02-.033.01-.011.02-.023.04-.025.05-.006.11-.012.17-.013.26-.008.52-.013.77-.023.24-.009.47-.02.71-.035.08-.005.15.005.19.098.02.032.07.058.11.062.1.011.19.046.28.073.07.021.14.027.21.037.14.018.28.025.41.081.04.016.05.064.03.091-.01.005-.01.011-.02.016 0 .006-.01.012-.01.015a.598.598 0 00-.28.499c0 .051-.04.077-.09.085-.28.049-.56.096-.84.146-.19.032-.36.08-.51.207-.03.032-.09.049-.14.061-.08.02-.17.031-.26.047-.05.011-.11.02-.17.038a.138.138 0 00-.1.151c.01.065.06.114.14.114.07 0 .13-.006.2-.017.18-.03.36-.062.54-.099a.33.33 0 01.19.007c.14.05.27.043.42.018.14-.025.29-.036.43-.051.06-.007.12.006.15.073.01.042.05.037.09.029.2-.043.41-.05.62-.049.13.001.26-.002.39.022.32.059.56-.068.77-.281.06-.063.12-.132.17-.202.1-.126.22-.188.38-.176.33.024.59-.105.82-.312a.298.298 0 01.1-.046c.13-.026.25-.067.38-.119.13-.055.26-.084.4-.089.2-.006.4-.042.59-.099.18-.055.37-.077.56-.075.22.003.43-.038.63-.096.21-.06.43-.115.64-.172.2-.055.38-.147.55-.272.2-.147.24-.341.2-.567-.04-.152-.11-.29-.2-.414-.14-.173-.27-.348-.42-.517-.34-.418-.68-.846-.99-1.29-.13-.186-.29-.352-.44-.526-.14-.174-.3-.342-.44-.519-.29-.362-.57-.732-.86-1.089-.2-.238-.41-.462-.62-.687-.32-.342-.65-.68-.98-1.02-.1-.107-.18-.226-.26-.35-.15-.226-.32-.443-.48-.663-.11-.155-.23-.305-.34-.462a2.976 2.976 0 00-.57-.632c-.24-.195-.49-.387-.73-.578-.3-.237-.57-.5-.84-.78a3.76 3.76 0 01-.45-.595c-.19-.304-.4-.596-.62-.88-.16-.198-.3-.4-.45-.6-.56-.77-1.21-1.458-1.94-2.07-.18-.15-.36-.31-.53-.466-.15-.137-.31-.274-.46-.415-.08-.08-.17-.165-.24-.257-.14-.181-.28-.353-.47-.486-.12-.081-.2-.19-.29-.303a1.426 1.426 0 00-.67-.52c-.2-.074-.42-.12-.64-.152a6.32 6.32 0 00-.94-.074c-.17 0-.29.088-.43.156-.1.135-.2.272-.21.45a.077.077 0 000 .066c.03.233-.1.371-.28.48-.11.064-.22.12-.33.178-.04.02-.08.042-.12.055-.11.035-.22-.07-.2-.19a.297.297 0 01.11-.159c.09-.055.17-.117.27-.156.13-.056.23-.15.3-.273.02-.038.05-.073.07-.111.03-.047.02-.077-.03-.105a1.448 1.448 0 00-.5-.156 3.193 3.193 0 00-.38-.01c-.18.004-.27.084-.3.26v.02c.01.173-.08.29-.2.397-.11.093-.2.199-.29.307-.13.16-.31.264-.51.33-.63.208-1.18.542-1.7.946-.1.076-.19.166-.28.252a.343.343 0 00-.12.23c0 .107-.06.196-.11.283-.21.321-.41.643-.62.961-.15.214-.3.424-.45.63-.11.149-.23.288-.34.43-.02.03-.01.053.02.066.06.023.11.015.17-.011.13-.06.26-.113.38-.172.14-.062.28-.104.42-.128a.729.729 0 01.16-.009c.08.007.14.065.16.15a.179.179 0 01-.09.208.414.414 0 01-.14.047c-.33.056-.61.208-.89.372-.01.007-.03.016-.04.025-.22.19-.49.278-.78.312a8.37 8.37 0 00-.57.088c-.14.027-.29.055-.43.11-.47.195-.94.41-1.37.7-.04.028-.08.057-.12.09a.332.332 0 00-.08.08.554.554 0 01-.24.299c-.03.018-.05.069-.07.107-.15.267-.33.505-.52.738-.15.175-.28.362-.41.55-.14.209-.24.437-.31.68-.07.254-.15.507-.22.762-.05.193-.13.374-.23.542-.13.199-.26.396-.4.585-.19.262-.34.549-.43.861-.07.21-.15.416-.24.618-.05.119-.12.232-.2.338-.16.214-.34.408-.53.59-.12.115-.23.243-.35.368-.12.136-.24.274-.36.413-.07.084-.15.167-.21.259-.09.143-.2.268-.33.377-.16.132-.3.281-.42.453-.05.078-.1.163-.13.252-.04.122-.1.23-.17.332a.671.671 0 00-.12.233.242.242 0 01-.14.161c-.06.033-.13.064-.2.093-.13.058-.24.132-.3.276-.02.069-.07.103-.14.117-.07.015-.15.031-.22.051-.12.033-.21.096-.25.221-.03.09-.09.128-.17.153-.25.076-.5.143-.75.182-.1.016-.2.031-.31.051-.12.025-.24.068-.34.133a.477.477 0 00-.22.243c-.05.119-.02.219.09.286a.54.54 0 00.12.056c.17.045.34.108.51.127.38.04.76.088 1.15.081.05-.001.11-.001.17-.007a.234.234 0 00.17-.092.215.215 0 00-.04-.325c-.06-.038-.12-.066-.17-.097-.05-.025-.1-.047-.14-.074-.01-.005-.01-.027-.01-.038.01-.011.02-.023.03-.025.03-.004.06-.007.09-.004.5.056 1 .004 1.49-.08.16-.027.32-.06.48-.094.14-.032.28-.091.35-.236.03-.058.09-.077.15-.08.06-.003.13-.006.2-.007.36-.004.73-.006 1.1-.009h.09c.15.004.29-.032.39-.163.03-.043.07-.043.11-.016.03.015.05.031.07.05.06.047.09.103.05.175-.03.062-.04.125 0 .188.02.029.05.063.05.09-.01.052-.06.052-.11.057-.27.04-.55.074-.83.077-.42.004-.83.067-1.24.177-.23.063-.46.146-.69.223a.696.696 0 00-.16.077.346.346 0 00-.09.089c-.1.139-.04.284.13.301.07.007.15.004.22.004h.71zm18.26-6.103c.14.011.29.009.44.036.29.055.59.088.89.115.06.005.12.012.17.027.11.029.16.116.15.216-.02.105-.09.165-.2.166a.82.82 0 01-.07-.003c-.28-.033-.57-.054-.85-.101-.4-.067-.8-.066-1.2.038-.32.084-.65.109-.98.106a.765.765 0 01-.15-.016c-.11-.025-.15-.12-.12-.222.03-.092.11-.143.2-.158.07-.013.14-.012.22-.014.27-.009.55-.03.82-.101.22-.059.45-.09.68-.089zm-7.26-6.31c.01-.029.02-.073.04-.112.04-.085.09-.17.14-.25.15-.24.31-.48.47-.714.4-.559.78-1.124 1.12-1.716a.507.507 0 01.08-.107c.08-.092.22-.056.25.067.02.052.02.102 0 .15-.04.067-.07.133-.1.196-.24.403-.49.804-.76 1.19-.24.35-.47.705-.71 1.057-.06.085-.12.171-.18.25-.04.05-.1.09-.15.128-.04.027-.08.027-.13.004-.05-.028-.06-.074-.07-.143zm-3.1 11.628v.018c-.07 0-.14.002-.22-.001-.01-.001-.05-.014-.05-.027-.01-.024 0-.062.01-.078.08-.081.16-.153.23-.235.12-.137.28-.203.46-.251.15-.044.31-.059.47-.058.06.001.12.008.17.048.07.059.16.073.24.086.09.012.18.025.26.043.09.019.11.049.12.134.01.087-.01.125-.1.14-.1.02-.21.037-.32.055-.15.024-.3.056-.46.07-.27.025-.54.038-.81.056zm1.9-10.687c.15.006.22.132.17.247-.02.073-.08.12-.14.166-.28.227-.59.41-.89.605a.519.519 0 01-.18.07c-.11.02-.19-.074-.16-.177.02-.048.04-.098.07-.134.06-.064.13-.124.2-.174.26-.185.53-.366.8-.545.05-.032.1-.047.13-.058zm-8.34 9.774c-.03-.004-.06-.003-.08-.01-.03-.012-.06-.035-.06-.078 0-.033.04-.058.08-.053l.07.013c.04.015.09.07.07.088-.02.021-.06.031-.08.04zm1.44-15.393l3.27-.072c1.13-.026 2.26-.056 3.4-.08a.728.728 0 00.37-.107c.58-.358 1.16-.713 1.75-1.069.02-.015.05-.03.07-.05.01-.013.01-.042 0-.056-.01-.025-.03-.044-.05-.065-.25-.242-.5-.483-.74-.726-.41-.404-.85-.775-1.29-1.135-.39-.314-.78-.628-1.16-.951-.43-.367-.9-.68-1.38-.983-.09-.056-.18-.11-.26-.163-.19-.11-.36-.233-.51-.383a.384.384 0 00-.23-.116.232.232 0 01-.14-.059c-.08-.067-.16-.072-.25-.07-.38.011-.76.023-1.14.031-.28.006-.55.007-.82.012l-2.66.052-1.88.038c-.76.016-1.53.03-2.29.047a1.31 1.31 0 00-.22.027.25.25 0 00-.12.05c-.09.099-.21.15-.31.242-.14.14-.23.317-.3.508-.06.204-.09.416-.12.626-.04.305-.09.61-.12.917-.03.27-.04.542-.05.813-.02.183-.03.366-.04.55-.01.131-.01.264-.02.396 0 .39.02.778.05 1.166.02.16.06.318.09.477.01.054.04.091.09.115.04.021.09.04.13.074.09.086.2.109.33.105.24-.006.48-.008.72-.013l1.77-.043 3.61-.088c.18-.005.35-.014.45-.017zm28.59-6.596l-1.34.023a2708.91 2708.91 0 00-4.7.091l-1.3.033c-.03 0-.05.005-.08.01-.01 0-.02.005-.02.01 0 .006 0 .017.01.021.02.023.05.043.08.066.03.024.07.046.08.077.02.093.1.142.16.198.46.376.91.75 1.36 1.13.16.137.32.283.47.426.34.3.69.575 1.05.848.39.299.78.599 1.17.902.17.136.34.28.5.424.29.248.58.503.87.746.26.215.53.423.8.627.27.2.56.296.9.284.92-.033 1.84-.053 2.76-.076.39-.01.78-.013 1.16-.021l1.94-.046c.77-.02 1.53-.042 2.3-.061.21-.006.42-.007.63-.01.06 0 .11 0 .16-.004.14-.01.25-.081.3-.218.03-.092.08-.171.13-.252.15-.235.23-.494.27-.764.08-.416.07-.833.01-1.25a5.438 5.438 0 00-.62-1.962 3.917 3.917 0 00-.47-.693 2.65 2.65 0 00-.43-.41c-.27-.205-.57-.311-.92-.303-.9.02-1.79.035-2.69.053l-1.98.04-2.38.048h-.18v.013zm-2.01 4.474l.01.006-.01-.01-.01-.004c0 .003 0 .005.01.008zm.17.131c.02.015.03.03.05.045l.01.007-.01-.011c-.01-.015-.03-.03-.04-.044l-.02-.01.01.013zm-.23-6.179l-6.41.02c-.39.002-.78.01-1.17.017-.04 0-.07.006-.11.014-.01.001-.01.025-.01.034l.03.054c.05.05.1.095.14.15.1.164.26.272.42.374.37.236.75.472 1.11.713.11.068.21.094.34.092.8-.012 1.6-.02 2.4-.03l3.41-.044 3.51-.045c1.1-.014 2.2-.028 3.3-.044.54-.007 1.09-.017 1.63-.028.08-.001.16-.007.24-.016.05-.005.08-.034.09-.083a.493.493 0 00-.08-.439c-.1-.154-.22-.29-.37-.406a1.323 1.323 0 00-.91-.368c-1.36.004-2.72.005-4.08.012-1.16.006-2.32.017-3.48.026v-.003zm-27.99 1.766c.79-.015 1.48-.03 2.17-.04.59-.008 1.19-.01 1.78-.015.06 0 .12 0 .18-.003.16-.005.18-.04.09-.18a3.063 3.063 0 00-.23-.294 8.6 8.6 0 00-.95-.857 6.99 6.99 0 01-.24-.199.247.247 0 00-.19-.074c-.43.005-.86.007-1.28.012-.13 0-.25.007-.38.008-.63.002-1.26.002-1.89.005-.97.003-1.93.008-2.89.012-.24.002-.24.006-.36.214-.11.19-.16.392-.16.611.01.11.01.22.02.33.01.166.09.308.17.447.03.042.07.06.11.062.07 0 .14.002.2 0 .98-.012 1.96-.027 2.93-.039.34-.004.68 0 .92 0zm34.6 17.586c.01.087.01.153.03.217.04.19.17.307.36.326a.79.79 0 00.37-.052c.19-.072.36-.173.52-.289.32-.232.62-.499.89-.791.49-.535.93-1.116 1.26-1.773.12-.244.22-.495.26-.767a.688.688 0 00-.02-.349c-.06-.197-.19-.306-.4-.308a.81.81 0 00-.24.03c-.18.054-.34.126-.5.233-.37.258-.7.56-1 .89-.48.513-.9 1.07-1.22 1.694-.1.197-.19.398-.25.612-.03.114-.04.23-.06.327z"></path><path fill="#000" d="M1287 104.614a1.043 1.043 0 00.13.549c.06.101.16.154.28.151a.985.985 0 00.17-.02c.66-.129 1.26-.393 1.83-.743a9.202 9.202 0 001.87-1.563 9.53 9.53 0 001.34-1.876c.14-.266.27-.539.37-.821.01-.026.02-.061.01-.084a.893.893 0 00-.08-.149c0-.003-.03.004-.04.013-.03.055-.07.112-.1.17-.35.635-.76 1.22-1.28 1.727-.36.35-.76.645-1.22.856-.3.135-.61.225-.93.253-.18.015-.37.033-.55.037-.11.003-.22-.013-.33-.031a.904.904 0 00-.43.029c-.22.071-.41.191-.57.367-.21.248-.36.533-.44.852-.02.091-.02.188-.03.283zm-20.71 1.723c-.12-.007-.19-.013-.26-.016a.308.308 0 00-.26.101c-.06.068-.13.088-.21.099-.12.017-.25.049-.37.075a.668.668 0 00-.31.149.335.335 0 01-.18.078c-.11.024-.23.053-.34.09-.18.059-.23.207-.13.366.07.115.17.185.31.181.08-.002.16.012.23.053.07.042.15.056.23.027.04-.014.09-.014.13-.014.28.002.56-.01.84-.042.15-.018.3.001.46.008.1.005.2.019.3.026.22.015.43-.044.62-.13a.472.472 0 00.26-.259c.07-.169.01-.325-.15-.409a.863.863 0 00-.19-.061.843.843 0 01-.28-.128.86.86 0 00-.61-.194c-.05.003-.09 0-.09 0zm-13.3 2.959c.13-.025.27-.033.4-.079.21-.073.41-.168.6-.262.1-.044.17-.115.21-.214.05-.11.03-.212-.07-.265-.32-.158-.64-.22-.98-.091a.528.528 0 00-.21.153c-.08.105-.16.205-.27.279-.07.041-.1.109-.12.182-.02.112.02.213.13.246.1.029.2.034.31.051zm18.3-.318c.16-.005.3-.07.42-.139.09-.044.12-.131.11-.225 0-.101-.07-.156-.16-.188a1.695 1.695 0 00-.19-.062.405.405 0 00-.46.206c-.08.156-.02.311.14.377.05.018.1.022.14.031zm-7.94-.177c.09-.017.2-.028.29-.057.12-.034.18-.12.18-.226a.27.27 0 00-.2-.262.72.72 0 00-.36-.007c-.15.033-.24.138-.31.264-.01.036-.01.086-.01.128 0 .046.03.086.08.096.1.026.21.043.33.064zm3.23-.269c.11-.016.24-.032.36-.052.09-.014.14-.076.16-.16.02-.082.02-.163-.05-.224a.535.535 0 00-.25-.128c-.11-.022-.2.016-.23.121a.422.422 0 01-.12.229c-.02.02-.02.052-.03.08-.01.073.03.13.11.134h.05zm5.86-.052c.01.03.01.082.03.128.04.085.16.1.23.032.02-.021.04-.046.04-.072a.513.513 0 000-.324c-.01-.013-.02-.026-.02-.038-.06-.084-.17-.086-.22-.001a.367.367 0 00-.04.101c-.01.05-.01.102-.02.174zm1.56-.788c-.01-.135-.09-.201-.22-.166a.582.582 0 00-.12.055.158.158 0 00-.06.131c0 .054.04.1.09.108.06.009.11.014.17.02.08.007.13-.031.13-.106a.068.068 0 00.01-.042zm-36.25 6.79c.05.002.09-.033.08-.078 0-.046-.04-.082-.08-.076-.04.006-.07.03-.07.069-.01.046.02.083.07.085z"></path><circle cx="1269.5" cy="626.255" r="45" stroke="#000000" fill="none"></circle><path fill="#000" d="M1257.33 642.676c.39.013.73-.034 1.06-.108.38-.084.76-.177 1.15-.225.44-.054.88-.105 1.32-.101.42.004.85.019 1.27.036.65.027 1.29.052 1.94.092.87.053 1.75.052 2.62.063.38.005.75-.008 1.12-.016.29-.006.57-.062.84-.154 1.27-.426 2.47-.97 3.61-1.66.27-.16.52-.336.77-.523.27-.21.57-.363.9-.447.28-.07.56-.156.83-.228.88-.23 1.67-.649 2.41-1.159.73-.499 1.35-1.118 1.96-1.742.53-.539.95-1.164 1.36-1.794.29-.45.54-.923.77-1.404a.819.819 0 00.09-.196c.12-.328.23-.661.39-.972a.542.542 0 00.07-.329c-.01-.134-.09-.236-.22-.264-.13-.028-.26-.036-.38.05-.44.296-.88.574-1.31.874-.35.242-.63.562-.91.881-.19.218-.37.437-.57.649-.24.266-.51.505-.8.72-.77.562-1.61.952-2.51 1.234-.1.032-.2.057-.3.032a.16.16 0 01-.13-.155c.02-.181.07-.347.23-.45.1-.066.21-.129.32-.179.33-.146.67-.277.99-.429.45-.211.85-.494 1.21-.84.41-.384.79-.786 1.17-1.193.36-.385.75-.735 1.19-1.029.53-.354 1.06-.707 1.62-1.012.11-.059.21-.132.31-.202.16-.111.32-.222.52-.252.05-.007.1-.035.14-.066.44-.359.85-.744 1.18-1.211.32-.449.56-.932.71-1.462.07-.228.14-.455.19-.686.1-.5.08-1.005.02-1.507a6.084 6.084 0 00-.82-2.441c-.05-.098-.11-.198-.16-.295-.18-.293-.38-.566-.65-.782a.65.65 0 01-.15-.151c-.13-.193-.32-.322-.51-.446-.2-.13-.39-.261-.59-.392-.03-.017-.06-.029-.08-.05-.26-.251-.6-.355-.9-.522-.64-.351-1.21-.779-1.67-1.349-.3-.37-.54-.779-.79-1.176-.36-.544-.72-1.081-1.15-1.569a1.802 1.802 0 00-.44-.382c-.45-.262-.9-.51-1.39-.677-.29-.101-.59-.16-.9-.198-.23-.029-.45.004-.66.095-.16.069-.33.123-.51.137-.16.012-.3-.027-.41-.163-.11-.15-.28-.239-.44-.326a3.477 3.477 0 00-1.2-.368 5.567 5.567 0 00-2.68.294c-.55.207-1.05.504-1.49.911-.46.431-.88.898-1.23 1.422-.12.18-.22.368-.29.575-.07.184-.15.362-.22.543a.43.43 0 01-.29.26c-.13.035-.23.121-.34.205-.27.213-.5.454-.7.731-.28.384-.53.787-.74 1.211-.16.315-.28.645-.35.988-.07.326-.06.655.04.977.02.063.05.08.11.055.28-.105.56-.155.85-.164.3-.01.59-.088.84-.265.15-.106.31-.199.47-.304.45-.313.95-.469 1.49-.532.4-.047.8-.066 1.2-.054.29.008.58.055.86.13.18.048.35.118.48.256.05.051.1.109.13.171.07.139 0 .301-.15.339a.603.603 0 01-.22.007 1.243 1.243 0 01-.24-.061c-.54-.196-1.11-.184-1.67-.144-.22.015-.43.057-.65.091-.3.048-.57.17-.82.337-.19.124-.38.244-.57.37-.34.23-.73.327-1.14.337-.34.009-.64.114-.93.284-.16.095-.31.197-.47.299-.12.081-.24.159-.39.148-.05-.003-.1.026-.14.058-.64.56-1.34 1.06-1.94 1.673a13.394 13.394 0 00-2.58 3.636c-.12.243-.19.5-.26.758l-.63 2.386c-.04.149-.07.302-.16.434-.01.017-.01.036-.02.056-.03.097-.01.202.05.255.09.066.19.074.26.02.37-.246.79-.362 1.17-.555.22-.111.44-.232.65-.366a3.33 3.33 0 001.14-1.232c.11-.199.21-.401.32-.6.19-.355.43-.679.72-.955.16-.147.34-.277.54-.366a.42.42 0 01.45.096c.09.101.11.228.04.34-.07.093-.14.178-.22.26-.06.066-.14.124-.21.182a1.86 1.86 0 00-.46.536c-.25.428-.51.848-.75 1.28-.29.539-.73.938-1.25 1.252-.28.171-.57.314-.88.436-.34.133-.67.267-1.01.39-.41.149-.78.366-1.13.615-.16.106-.31.203-.47.306a.48.48 0 00-.11.096c-.14.181-.28.361-.35.578-.09.243-.17.486-.25.731-.08.277-.13.561-.11.853.01.071.01.147-.01.215a.467.467 0 01-.09.188c-.04.059-.12.047-.15-.014 0-.01-.01-.019-.01-.029-.07-.238-.24-.397-.44-.54a6.928 6.928 0 00-1.99-1.022c-.4-.127-.72-.344-.96-.695a2.286 2.286 0 00-.6-.613c-.1-.07-.21-.136-.32-.173-.22-.067-.37.027-.43.24-.02.098-.04.205-.03.305.03.307.09.609.2.9.14.346.26.695.46 1.012.04.069.07.15.09.23.07.442.26.843.46 1.238a6.94 6.94 0 002.36 2.685c1.05.713 2.18 1.281 3.37 1.73.36.138.72.221 1.06.192zm18.87-16.627c-.17.003-.26-.017-.31-.107-.07-.109-.05-.219.02-.319.03-.05.07-.097.12-.135.08-.063.17-.125.26-.173.13-.073.27-.139.41-.197.97-.392 1.97-.501 3-.399.35.035.69.036 1.02-.125.15-.073.3-.031.39.084.09.111.1.277.02.406a.431.431 0 01-.29.214c-.35.098-.7.155-1.06.109a6.396 6.396 0 00-1.08-.036c-.62.027-1.22.154-1.8.396-.14.06-.27.137-.42.194-.11.045-.23.073-.28.088zm-11.23 13.087a5.688 5.688 0 01-1.8-.222c-.04-.012-.08-.014-.12-.025a1.227 1.227 0 00-.55-.022c-.15.024-.3.031-.46.034-.14.002-.23-.08-.28-.202-.05-.116-.02-.222.05-.316a.428.428 0 01.32-.164c.11-.009.21-.01.31-.028.24-.041.47-.036.7.022.14.035.28.071.42.101.17.036.34.078.52.098.58.067 1.16.079 1.75.007.1-.012.2-.007.3.036.16.069.22.237.14.384a.38.38 0 01-.13.134c-.09.049-.18.089-.28.114-.29.072-.59.044-.89.049zm16.27-27.517a8.16 8.16 0 01-.45 2.563c-.23.63-.47 1.254-.79 1.842-.14.252-.26.514-.39.771-.04.073-.09.104-.18.079a.66.66 0 00-.45.025c-.15.061-.23.175-.22.335 0 .08.02.162.04.239.06.169.16.314.27.448.11.126.21.251.31.383.24.317.52.588.84.811.29.198.59.378.88.568.08.05.17.096.23.16.08.082.16.082.25.04.22-.098.29-.219.29-.457a.662.662 0 00-.15-.432c-.13-.171-.13-.337-.05-.518.12-.253.21-.517.35-.754.5-.829.84-1.718 1.12-2.637.21-.71.36-1.435.44-2.174.07-.686.09-1.373.03-2.065a9.669 9.669 0 00-.57-2.55 7.258 7.258 0 00-1.58-2.489 6.592 6.592 0 00-3.46-1.89 7.19 7.19 0 00-1.66-.16c-.87.025-1.72.17-2.55.433-.04.012-.07.027-.11.043-.17.07-.2.135-.18.31.01.168.07.322.16.463.15.256.31.506.47.758.09.144.23.24.38.314.15.076.3.093.47.046.45-.123.91-.174 1.38-.166 1.1.02 2.07.386 2.91 1.092.81.673 1.33 1.533 1.65 2.524.22.672.31 1.363.32 2.045z"></path><defs><clipPath id="footer-frame_svg__clip0"><path fill="#fff" d="M0 0h1360v719H0z"></path></clipPath></defs></svg>