<svg xmlns:xlink="http://www.w3.org/1999/xlink" xmlns="http://www.w3.org/2000/svg" fill="none" viewBox="0 0 699 699" class="home_frame__cw_Di" width="835"  height="834" ><path fill="#FFFCF7" stroke="#000000" d="M247.523 596.103l-144.027.03.007-144.653v-.209l-.149-.147L.711 349.498l102.643-101.622.149-.147v-.209l.009-144.748 144.012-.009h.207l.147-.147L349.501.708 451.125 102.62l.147.147h.207l143.62.007.1 144.748.001.209.148.146 102.94 101.622-102.94 101.626-.149.147v.208l-.027 144.624h-143.9l-.147.147-101.624 102.041L247.878 596.25l-.147-.147h-.208z"></path><path fill="#000" d="M113.435 668.078c-1.13 0-2.26.001-3.39-.001-.882-.002-1.755-.084-2.608-.316-.24-.066-.473-.162-.706-.255-.356-.144-.619-.385-.867-.688-1.321-1.614-2.688-3.187-4.313-4.513a18.259 18.259 0 00-2.888-1.904c-.661-.358-1.339-.69-1.988-1.071-.734-.432-1.447-.904-2.165-1.364-.188-.121-.34-.297-.588-.311-.067-.004-.14-.059-.192-.109-.457-.43-.91-.864-1.365-1.297-1.173-1.745-1.349-3.146-.357-5.006.129-.242.305-.46.466-.683.487-.676.865-1.408 1.176-2.178.074-.184.19-.352.288-.526.518-.918 1.04-1.833 1.55-2.755.134-.241.25-.494.348-.751 1.072-2.81.59-5.366-1.27-7.692-.173-.215-.374-.409-.525-.638-.239-.361-.579-.545-.978-.649a9.5 9.5 0 00-1.934-.282 16.353 16.353 0 00-.829-.016c-1.38-.005-2.762-.002-4.143-.015-.375-.004-.75-.051-1.124-.082-.65-.055-1.3-.11-1.95-.17-.25-.023-.52-.006-.741-.1-.364-.156-.574.023-.783.249-.152.166-.277.357-.43.523a5.938 5.938 0 01-1.952 1.387c-1.032.466-2.097.843-3.228.978-.79.094-1.554-.025-2.236-.462-.325-.208-.655-.365-1.046-.379-.099-.003-.197-.034-.295-.057-.369-.09-.633-.296-.733-.677-.025-.097-.049-.196-.085-.288-.07-.18-.205-.292-.4-.29-.325.004-.65.021-.975.041-.225.014-.449.065-.673.058-.421-.011-.627-.299-.53-.713.024-.097.072-.188.096-.285.049-.19.004-.271-.19-.341-.165-.061-.338-.102-.498-.17-.229-.097-.267-.39-.075-.559.094-.082.2-.149.302-.224.705-.523 1.418-1.036 2.114-1.572.438-.337.863-.689 1.361-.937.114-.057.122-.148.018-.224-.694-.502-1.31-1.093-1.917-1.694a7.71 7.71 0 01-1.28-1.668 14.496 14.496 0 01-1.822-5.304c-.241-1.768-.134-3.505.395-5.211.491-1.581.977-3.164 1.487-4.739.443-1.369 1.117-2.629 1.877-3.847.371-.596.725-1.205 1.046-1.828 1.46-2.826 3.254-5.422 5.331-7.825 3.412-3.948 7.405-7.209 11.811-9.978 5.128-3.222 10.617-5.666 16.36-7.555a90.913 90.913 0 0111.131-2.899c.788-.152 1.578-.295 2.366-.445.148-.027.295-.06.441-.097.752-.188 1.506-.371 2.258-.556 1.054-.259 2.01-.776 2.942-1.325 1.038-.611 2.076-1.22 3.171-1.728 1.412-.654 2.879-1.017 4.445-.96.703.025 1.406-.006 2.109.008.521.011.98-.112 1.407-.429.727-.538 1.525-.967 2.333-1.374a9.858 9.858 0 001.714-1.086c.262-.209.359-.444.307-.783-.177-1.172-.128-2.354-.113-3.534.008-.693.236-1.331.611-1.912.191-.295.401-.578.596-.87.133-.199.125-.29-.067-.444a4.846 4.846 0 00-.614-.432c-.591-.338-1.213-.601-1.884-.736a5.47 5.47 0 01-.584-.144c-.683-.218-1.297-.547-1.722-1.148-.361-.512-.726-1.023-1.06-1.554a112.135 112.135 0 01-1.764-2.893 14.592 14.592 0 00-4.211-4.559 10.977 10.977 0 01-3.172-3.479c-.405-.693-.809-1.389-1.345-1.995a.484.484 0 01-.109-.272c-.023-.428.328-.976.736-1.127.47-.174.95-.323 1.462-.321.377.002.754.005 1.13-.014 1.082-.055 2.093.22 3.053.684.949.46 1.87.973 2.669 1.68.356.316.739.604 1.102.913.73.62 1.377 1.318 1.931 2.102.593.841 1.169 1.697 1.807 2.503.889 1.122 1.819 2.211 2.748 3.299.909 1.064 2.05 1.841 3.242 2.548.171.102.36.181.549.244.418.14.833.163 1.241-.056.354-.189.72-.355 1.075-.541 1.022-.538 2.044-1.072 3.117-1.503.967-.389 1.962-.62 3.011-.549.195.013.396.051.578.12 1.379.529 2.778.628 4.203.216.819-.236 1.634-.487 2.454-.72.337-.096.687-.15 1.023-.248.617-.179 1.242-.175 1.868-.098 1.695.211 3.371.517 5.006 1.021 1.471.453 2.645 1.303 3.472 2.614.04.063.077.129.12.191.327.459.193.907-.051 1.339-.033.06-.194.107-.259.078a7.163 7.163 0 01-.793-.422c-.363-.224-.71-.472-1.073-.696-.389-.239-.823-.372-1.268-.46a1.325 1.325 0 00-.88.112.542.542 0 00-.196.214c-.074.129.018.336.156.366a.817.817 0 00.293.028c.553-.09 1.046.089 1.51.351.349.196.681.424 1.012.651.48.33.964.64 1.577.643.177 0 .275.119.33.264.269.708.456 1.433.427 2.201-.009.235-.093.426-.206.629-.883 1.594-2.186 2.803-3.571 3.938-.388.317-.819.583-1.204.904-.441.369-.854.772-1.279 1.161-.016.405-.364.562-.607.788a5.894 5.894 0 01-.824.655c-.618.395-1.147.896-1.698 1.371-.485.419-.818.95-1.057 1.538-.246.603-.475 1.215-.711 1.823-.978 2.516-2.446 4.713-4.315 6.653a56.118 56.118 0 00-2.094 2.269c-.938 1.088-1.712 2.293-2.375 3.566-.395.759-.702 1.545-.829 2.406-.07.471-.112.93-.11 1.405.006 1.13-.106 2.253-.228 3.376-.166 1.535-.567 3.005-1.121 4.438a26.37 26.37 0 01-2.034 4.112 32.45 32.45 0 01-3.454 4.744c-.398.452-.771.927-1.17 1.378-.416.47-.847.926-1.279 1.381-.138.145-.281.303-.453.394-.501.265-.863.678-1.248 1.074-.922.947-1.984 1.69-3.219 2.18-.722.287-1.439.59-2.153.896-.206.089-.41.196-.591.326a1.21 1.21 0 00-.509.803c-.051.295-.147.581-.228.869-.196.7-.457 1.389-.576 2.102-.146.886-.216 1.782-.151 2.695.12 1.67.559 3.258 1.052 4.841.276.885.567 1.769.719 2.687.082.495.167.99.222 1.488.074.659-.032 1.308-.225 1.933-.282.91-.594 1.81-.913 2.708-.227.638-.511 1.256-.73 1.896-.545 1.597-1.319 3.092-2.01 4.623-.372.826-.872 1.583-1.414 2.308a4.1 4.1 0 01-.624.646c-.72.613-1.72.559-2.387.128a3.199 3.199 0 01-1.068-1.144 5.686 5.686 0 01-.717-2.279c-.148-1.586.043-3.106.828-4.521.183-.328.345-.669.52-1.002.246-.466.494-.931.744-1.396.464-.866.76-1.801 1.094-2.72.246-.677.198-1.328-.161-1.958-.198-.349-.375-.71-.56-1.067a16.783 16.783 0 01-1.725-5.503 92.294 92.294 0 01-.421-3.891c-.078-.873-.323-1.66-.889-2.351-.755-.923-1.278-1.98-1.653-3.107-.067-.201-.161-.292-.348-.325-.444-.078-.886-.185-1.333-.229-.799-.079-1.6-.135-2.402-.175-1.128-.056-2.256-.09-3.385-.132a4.309 4.309 0 00-.377 0c-.717.035-.79.097-.965.786-.018.073-.05.143-.062.217-.251 1.565-1.005 2.88-2.039 4.047-.916 1.033-1.854 2.047-2.783 3.069a15.224 15.224 0 00-1.612 2.081c-.282.444-.556.9-.772 1.378a6.568 6.568 0 00-.562 3.444c.133 1.279.467 2.513.713 3.768.174.886.365 1.767.441 2.671a6.166 6.166 0 01-.317 2.516 7.866 7.866 0 01-.833 1.767c-.831 1.286-1.675 2.563-2.514 3.845-.288.441-.581.88-.856 1.329-.638 1.039-1.033 2.172-1.277 3.361-.04.193-.101.378-.004.585.06.128.056.293.058.442.019 1.56.527 2.954 1.455 4.194.345.461.731.894 1.119 1.32.466.511 1.04.866 1.707 1.059.53.153 1.057.322 1.596.435 1.088.228 2.014.751 2.843 1.471.74.642 1.47 1.296 2.1 2.05.425.51.914.93 1.548 1.162.044.016.08.054.12.082-.042.015-.082.04-.125.045-.15.017-.302.013-.449.044a1.247 1.247 0 00-.345.136c-.12.068-.18.201-.124.321.047.101.159.236.249.24.273.016.55-.012.823-.045a7.65 7.65 0 012.471.11 3.44 3.44 0 011.494.682c.371.299.744.598 1.133.872.223.157.466.313.724.385.762.214 1.437.586 2.084 1.026.083.057.16.131.252.163.411.145.474.497.477.85.005.409-.223.715-.574.91-.151.085-.328.126-.497.169a1.73 1.73 0 01-.373.045c-.401.011-.819.089-1.196-.002-.366-.088-.517-.522-.789-.778-.383-.362-.752-.74-1.16-1.072-.571-.466-1.215-.797-1.964-.885-.386-.045-.711-.221-1.017-.455a20.42 20.42 0 00-1.102-.789 4.492 4.492 0 00-2.33-.769c-.395-.016-.798.064-1.191.133-.136.024-.269.129-.379.225a.296.296 0 00-.075.344c.056.14.217.236.363.209.073-.013.144-.041.215-.064.979-.328 1.887-.095 2.749.379.394.216.769.479 1.12.759.482.384.991.68 1.614.751.513.059.961.287 1.366.591.321.241.634.497.916.78.184.185.454.318.492.624-.28.154-.544.36-.843.449-.33.098-.699.151-1.041.117-1.082-.108-2.157.038-3.236.029-.301-.002-.602 0-.904 0v.042zm41.872-104.012c.943-.037 1.782-.488 2.399-1.317.463-.622.844-1.303 1.402-1.856a.346.346 0 00-.13-.564c-.462-.162-.824-.468-1.209-.745a3.13 3.13 0 00-.516-.306c-.463-.214-.937-.305-1.458-.206-.654.123-1.239.384-1.802.719a2.854 2.854 0 00-1.073 1.131c-.27.507-.469 1.051-.872 1.484-.139.15-.075.416.092.534.081.057.171.125.263.138.413.058.733.304 1.083.494.535.288 1.098.494 1.821.494zm-24.732-14.924c-.178.013-.261-.001-.325.028a.605.605 0 00-.228.171c-.065.085-.003.257.113.321.153.084.309.167.474.221 1.834.597 3.364 1.645 4.654 3.069 1.03 1.137 1.927 2.377 2.837 3.607.746 1.009 1.487 2.021 2.265 3.004.926 1.17 2.118 1.981 3.535 2.452.185.061.388.086.584.092.133.003.225-.106.251-.24.026-.129.003-.266-.115-.332-.152-.084-.32-.139-.484-.198-1.282-.458-2.368-1.195-3.226-2.256a28.103 28.103 0 01-.743-.947c-.955-1.291-1.895-2.593-2.862-3.874-.817-1.082-1.701-2.108-2.736-2.995-.963-.825-2.053-1.435-3.223-1.905-.276-.113-.575-.164-.771-.218z"></path><path fill="#000" d="M86.746 636.145c.756.138 1.568.049 2.353.268 1.137.319 2.3.508 3.474.62.099.009.196.037.293.062.102.026.14.146.071.237-.12.161-.239.324-.372.473-.602.673-1.212 1.34-1.815 2.012a9.503 9.503 0 00-1.547 2.304c-.38.808-.582 1.651-.558 2.547.04 1.537.67 2.757 1.947 3.625.373.253.771.469 1.156.705.483.295.486.307.163.801a9.524 9.524 0 01-.39.554c-.675.884-.991 1.905-1.14 2.988-.066.481-.007.96.145 1.412.184.545.413 1.076.65 1.6.197.44.515.799.868 1.125.093.085.182.174.265.268.03.034.04.088.06.133-.062.022-.124.067-.184.063-.725-.052-1.45-.107-2.174-.17a16.679 16.679 0 01-.97-.118 7.64 7.64 0 01-.738-.135c-.575-.142-.995-.484-1.187-1.049-.151-.447-.458-.837-.473-1.337-.004-.111-.107-.222-.172-.329-.967-1.575-2.133-2.976-3.596-4.116-.91-.709-1.824-1.414-2.736-2.12-.219-.169-.443-.33-.652-.511a3.39 3.39 0 01-1.165-2.049c-.102-.592.052-1.148.218-1.699.257-.854.744-1.585 1.293-2.277a10.766 10.766 0 012.66-2.422c.316-.202.629-.413.935-.632a3.311 3.311 0 001.184-1.522 2.48 2.48 0 00.141-.504c.08-.512.071-.53.54-.615.467-.083.943-.126 1.453-.192zm64.815-5.325a4.985 4.985 0 01-2.206-.489 23.456 23.456 0 01-4.166-2.547c-1.155-.876-2.062-1.975-2.757-3.248-.132-.242-.276-.48-.391-.729-.467-1.019-1.153-1.876-1.933-2.669-1.093-1.111-2.27-2.127-3.489-3.097-.098-.077-.2-.153-.283-.245-.043-.048-.084-.136.009-.19.108-.063.216-.128.332-.175.534-.218 1.069-.433 1.605-.644a10.9 10.9 0 003.746-2.465c.106-.107.21-.218.331-.304.045-.033.152-.026.202.006.104.066.193.159.282.247 1.701 1.686 3.249 3.493 4.346 5.641.434.849 1.043 1.519 1.799 2.087.969.728 1.785 1.614 2.512 2.582 1.048 1.394 1.814 2.944 2.527 4.524.062.137.11.282.146.427.119.489-.07.854-.556.991a7.877 7.877 0 01-2.056.297zm-15.267-69.155c-.099.001-.205.026-.296 0-1.375-.393-2.74-.818-3.998-1.513-1.576-.871-2.917-2.035-4.097-3.388-.378-.434-.725-.896-1.092-1.342-.621-.755-1.237-1.515-1.873-2.258-.572-.67-1.24-1.243-1.931-1.786a5.976 5.976 0 00-1.504-.842 6.002 6.002 0 01-1.624-.929c-.33-.268-.705-.48-1.049-.73a5.649 5.649 0 01-.637-.526c-.248-.244-.287-.528-.113-.824.101-.17.237-.325.381-.461a3.347 3.347 0 011.95-.896c1.049-.12 2.102-.089 3.153.041.411.051.702.242.916.576.325.506.658 1.008.964 1.526.474.804 1.015 1.557 1.682 2.209.447.436.928.84 1.409 1.24.463.385.957.732 1.416 1.121a11.912 11.912 0 012.421 2.762c.638 1.02 1.277 2.04 1.897 3.072.595.99 1.219 1.958 1.989 2.824.026.03.016.091.024.138a.08.08 0 01.012-.014zm-18.642 99.625c.984-.03 1.926.351 2.673 1.184.35.389.731.756.954 1.243.02.043.039.129.024.138-.054.032-.128.066-.186.055-.37-.075-.717-.202-1.016-.449-.308-.254-.641-.479-.945-.737-.734-.623-1.598-.904-2.537-1.001-.223-.023-.447-.039-.671-.061-.016-.002-.045-.03-.043-.036.019-.043.036-.111.069-.12a6.053 6.053 0 011.678-.216z"></path><path fill="#000" d="M136.281 561.678l.085.056c-.018-.002-.043.003-.051-.006-.013-.016-.015-.042-.022-.063l-.012.013zm19.72-1.527c1-.037 1.711.946 1.408 1.896-.252.788-1.097 1.459-2.229 1.077-.809-.274-1.129-1.269-.708-2.066.303-.574.863-.906 1.529-.907zM586.49 676.078c1.131 0 2.261.001 3.391-.001.881-.002 1.754-.084 2.607-.316.241-.066.474-.162.706-.255.356-.144.619-.385.868-.688 1.321-1.614 2.687-3.187 4.312-4.513a18.313 18.313 0 012.888-1.904c.662-.358 1.34-.69 1.988-1.071.735-.432 1.447-.904 2.165-1.364.188-.121.341-.297.589-.311.066-.004.139-.059.192-.109.456-.43.91-.864 1.364-1.297 1.173-1.745 1.349-3.146.358-5.006-.129-.242-.305-.46-.467-.683a10.314 10.314 0 01-1.175-2.178c-.075-.184-.19-.352-.289-.526-.517-.918-1.039-1.833-1.55-2.755a5.799 5.799 0 01-.347-.751c-1.073-2.81-.591-5.366 1.27-7.692.172-.215.374-.409.525-.638.238-.361.578-.545.978-.649a9.503 9.503 0 011.933-.282c.276-.014.553-.016.829-.016 1.381-.005 2.762-.002 4.143-.015.375-.004.75-.051 1.124-.082.65-.055 1.301-.11 1.95-.17.25-.023.521-.006.742-.1.363-.156.573.023.782.249.153.166.278.357.43.523a5.95 5.95 0 001.952 1.387c1.033.466 2.098.843 3.228.978.79.094 1.555-.025 2.237-.462.324-.208.654-.365 1.046-.379.098-.003.197-.034.294-.057.369-.09.633-.296.733-.677.026-.097.049-.196.086-.288.07-.18.204-.292.4-.29.325.004.65.021.975.041.224.014.449.065.672.058.422-.011.627-.299.53-.713-.023-.097-.072-.188-.096-.285-.048-.19-.003-.271.191-.341.165-.061.337-.102.498-.17.229-.097.266-.39.074-.559-.093-.082-.2-.149-.301-.224-.706-.523-1.419-1.036-2.114-1.572-.438-.337-.863-.689-1.362-.937-.114-.057-.121-.148-.017-.224.694-.502 1.309-1.093 1.917-1.694a7.714 7.714 0 001.279-1.668 14.502 14.502 0 001.823-5.304c.241-1.768.133-3.505-.396-5.211-.491-1.581-.977-3.164-1.486-4.739-.444-1.369-1.117-2.629-1.877-3.847a26.051 26.051 0 01-1.047-1.828c-1.46-2.826-3.254-5.422-5.331-7.825-3.411-3.948-7.404-7.209-11.811-9.978-5.128-3.222-10.616-5.666-16.36-7.555a90.866 90.866 0 00-11.131-2.899c-.787-.152-1.577-.295-2.365-.445a6.667 6.667 0 01-.441-.097c-.753-.188-1.506-.371-2.259-.556-1.054-.259-2.009-.776-2.941-1.325-1.038-.611-2.076-1.22-3.172-1.728-1.412-.654-2.879-1.017-4.445-.96-.702.025-1.406-.006-2.109.008-.521.011-.979-.112-1.406-.429-.728-.538-1.525-.967-2.333-1.374a9.783 9.783 0 01-1.714-1.086c-.262-.209-.359-.444-.307-.783.177-1.172.128-2.354.113-3.534-.009-.693-.236-1.331-.612-1.912-.19-.295-.4-.578-.596-.87-.133-.199-.125-.29.067-.444.196-.156.398-.308.614-.432.591-.338 1.213-.601 1.885-.736a5.59 5.59 0 00.584-.144c.683-.218 1.296-.547 1.721-1.148.362-.512.727-1.023 1.061-1.554.601-.956 1.192-1.919 1.764-2.893a14.569 14.569 0 014.211-4.559 10.988 10.988 0 003.172-3.479c.404-.693.808-1.389 1.345-1.995a.483.483 0 00.108-.272c.023-.428-.327-.976-.735-1.127-.471-.174-.95-.323-1.463-.321-.376.002-.754.005-1.129-.014-1.083-.055-2.093.22-3.053.684-.95.46-1.871.973-2.669 1.68-.357.316-.739.604-1.102.913a11.266 11.266 0 00-1.931 2.102c-.594.841-1.17 1.697-1.808 2.503a113.739 113.739 0 01-2.748 3.299c-.908 1.064-2.049 1.841-3.242 2.548a2.783 2.783 0 01-.549.244c-.417.14-.832.163-1.24-.056-.354-.189-.721-.355-1.075-.541-1.022-.538-2.045-1.072-3.118-1.503-.966-.389-1.962-.62-3.01-.549a2.039 2.039 0 00-.579.12c-1.379.529-2.777.628-4.202.216-.819-.236-1.634-.487-2.454-.72-.338-.096-.687-.15-1.024-.248-.617-.179-1.242-.175-1.867-.098-1.695.211-3.372.517-5.007 1.021-1.471.453-2.645 1.303-3.471 2.614-.04.063-.077.129-.121.191-.326.459-.192.907.051 1.339.034.06.195.107.26.078a7.24 7.24 0 00.792-.422c.364-.224.711-.472 1.074-.696.389-.239.822-.372 1.267-.46.304-.06.604-.03.881.112a.55.55 0 01.196.214c.073.129-.019.336-.156.366a.822.822 0 01-.294.028c-.553-.09-1.045.089-1.51.351-.349.196-.681.424-1.011.651-.48.33-.965.64-1.577.643-.178 0-.276.119-.331.264-.268.708-.455 1.433-.426 2.201.009.235.093.426.205.629.884 1.594 2.187 2.803 3.572 3.938.388.317.818.583 1.203.904.442.369.854.772 1.28 1.161.015.405.364.562.607.788.256.238.529.467.823.655.618.395 1.147.896 1.698 1.371.486.419.818.95 1.058 1.538.246.603.474 1.215.71 1.823.979 2.516 2.447 4.713 4.316 6.653a56.118 56.118 0 012.094 2.269c.937 1.088 1.711 2.293 2.374 3.566.396.759.702 1.545.83 2.406.069.471.112.93.11 1.405-.007 1.13.106 2.253.228 3.376.166 1.535.567 3.005 1.12 4.438a26.458 26.458 0 002.034 4.112 32.45 32.45 0 003.454 4.744c.399.452.771.927 1.171 1.378.416.47.847.926 1.279 1.381.137.145.28.303.453.394.5.265.863.678 1.248 1.074.922.947 1.984 1.69 3.218 2.18.723.287 1.439.59 2.154.896.206.089.409.196.59.326.272.196.45.457.51.803.05.295.147.581.227.869.196.7.458 1.389.576 2.102.147.886.217 1.782.151 2.695-.119 1.67-.558 3.258-1.052 4.841-.276.885-.567 1.769-.719 2.687-.082.495-.166.99-.222 1.488-.073.659.033 1.308.226 1.933.281.91.594 1.81.913 2.708.227.638.51 1.256.729 1.896.546 1.597 1.32 3.092 2.01 4.623.373.826.873 1.583 1.415 2.308.178.238.396.453.624.646.719.613 1.72.559 2.387.128a3.196 3.196 0 001.067-1.144 5.688 5.688 0 00.718-2.279c.148-1.586-.043-3.106-.828-4.521-.183-.328-.346-.669-.521-1.002a267.35 267.35 0 00-.743-1.396c-.465-.866-.76-1.801-1.095-2.72-.246-.677-.197-1.328.161-1.958.199-.349.376-.71.56-1.067a16.785 16.785 0 001.726-5.503 90.66 90.66 0 00.42-3.891c.079-.873.323-1.66.889-2.351.756-.923 1.279-1.98 1.654-3.107.066-.201.16-.292.348-.325.444-.078.886-.185 1.333-.229.798-.079 1.6-.135 2.402-.175 1.128-.056 2.256-.09 3.384-.132.126-.005.252-.006.377 0 .717.035.791.097.965.786.019.073.051.143.063.217.25 1.565 1.005 2.88 2.038 4.047.916 1.033 1.855 2.047 2.784 3.069a15.224 15.224 0 011.612 2.081c.281.444.556.9.772 1.378a6.558 6.558 0 01.561 3.444c-.133 1.279-.467 2.513-.713 3.768-.173.886-.364 1.767-.44 2.671a6.166 6.166 0 00.316 2.516c.209.621.478 1.217.833 1.767.831 1.286 1.676 2.563 2.514 3.845.288.441.581.88.857 1.329.637 1.039 1.032 2.172 1.277 3.361.04.193.101.378.004.585-.061.128-.057.293-.059.442-.019 1.56-.526 2.954-1.455 4.194-.345.461-.73.894-1.118 1.32a3.651 3.651 0 01-1.707 1.059c-.53.153-1.058.322-1.597.435-1.087.228-2.013.751-2.842 1.471-.74.642-1.47 1.296-2.1 2.05-.426.51-.915.93-1.548 1.162-.044.016-.08.054-.12.082.041.015.082.04.124.045.15.017.303.013.449.044.12.025.239.076.345.136.12.068.181.201.125.321-.048.101-.16.236-.25.24a4.621 4.621 0 01-.822-.045 7.654 7.654 0 00-2.472.11 3.431 3.431 0 00-1.493.682 21.73 21.73 0 01-1.134.872c-.223.157-.466.313-.724.385-.761.214-1.437.586-2.083 1.026-.083.057-.16.131-.252.163-.411.145-.475.497-.478.85-.004.409.224.715.575.91.15.085.327.126.497.169.12.031.248.041.373.045.4.011.819.089 1.196-.002.366-.088.517-.522.789-.778.383-.362.752-.74 1.159-1.072.572-.466 1.216-.797 1.965-.885.385-.045.711-.221 1.016-.455.36-.273.725-.54 1.102-.789a4.498 4.498 0 012.331-.769c.395-.016.797.064 1.19.133.137.024.27.129.38.225a.297.297 0 01.075.344.345.345 0 01-.363.209c-.073-.013-.144-.041-.215-.064-.979-.328-1.888-.095-2.75.379a7.986 7.986 0 00-1.12.759c-.482.384-.99.68-1.613.751-.514.059-.962.287-1.367.591-.32.241-.633.497-.915.78-.185.185-.454.318-.492.624.279.154.543.36.842.449.331.098.7.151 1.041.117 1.083-.108 2.158.038 3.236.029.302-.002.603 0 .904 0v.042zm-41.871-104.012c-.943-.037-1.783-.488-2.4-1.317-.463-.622-.844-1.303-1.401-1.856a.346.346 0 01.13-.564c.461-.162.823-.468 1.209-.745.162-.117.335-.223.516-.306.463-.214.936-.305 1.458-.206.653.123 1.238.384 1.802.719.465.277.819.656 1.072 1.131.27.507.47 1.051.872 1.484.14.15.075.416-.092.534-.08.057-.17.125-.263.138-.412.058-.732.304-1.083.494-.534.288-1.097.494-1.82.494zm24.732-14.924c.178.013.261-.001.325.028a.605.605 0 01.228.171c.065.085.003.257-.113.321-.153.084-.31.167-.475.221-1.833.597-3.364 1.645-4.654 3.069-1.029 1.137-1.927 2.377-2.837 3.607-.745 1.009-1.487 2.021-2.264 3.004-.926 1.17-2.118 1.981-3.535 2.452a2.102 2.102 0 01-.585.092c-.132.003-.225-.106-.251-.24-.025-.129-.003-.266.116-.332.151-.084.32-.139.484-.198 1.281-.458 2.367-1.195 3.226-2.256.252-.312.503-.625.742-.947.956-1.291 1.895-2.593 2.862-3.874.817-1.082 1.701-2.108 2.736-2.995.964-.825 2.054-1.435 3.224-1.905.276-.113.575-.164.771-.218z"></path><path fill="#000" d="M613.18 644.145c-.757.138-1.568.049-2.353.268-1.137.319-2.3.508-3.475.62-.098.009-.196.037-.292.062-.102.026-.14.146-.072.237.121.161.239.324.373.473.602.673 1.212 1.34 1.815 2.012a9.492 9.492 0 011.546 2.304c.38.808.582 1.651.558 2.547-.04 1.537-.67 2.757-1.946 3.625-.374.253-.772.469-1.157.705-.482.295-.486.307-.162.801.123.188.252.375.389.554.675.884.992 1.905 1.141 2.988.066.481.006.96-.146 1.412a17.164 17.164 0 01-.649 1.6c-.198.44-.515.799-.869 1.125a3.709 3.709 0 00-.264.268c-.031.034-.04.088-.06.133.061.022.124.067.183.063.725-.052 1.45-.107 2.174-.17.325-.028.648-.071.97-.118.248-.036.497-.075.739-.135.574-.142.995-.484 1.186-1.049.152-.447.458-.837.474-1.337.003-.111.106-.222.172-.329.966-1.575 2.132-2.976 3.596-4.116.91-.709 1.824-1.414 2.736-2.12.218-.169.443-.33.651-.511a3.387 3.387 0 001.166-2.049c.101-.592-.053-1.148-.219-1.699-.257-.854-.744-1.585-1.292-2.277a10.77 10.77 0 00-2.66-2.422 20.975 20.975 0 01-.935-.632 3.313 3.313 0 01-1.185-1.522 2.534 2.534 0 01-.141-.504c-.08-.512-.071-.53-.54-.615-.467-.083-.942-.126-1.452-.192zm-64.816-5.325a4.985 4.985 0 002.206-.489 23.456 23.456 0 004.166-2.547c1.156-.876 2.063-1.975 2.757-3.248.132-.242.277-.48.392-.729.467-1.019 1.153-1.876 1.932-2.669 1.094-1.111 2.271-2.127 3.49-3.097.097-.077.2-.153.282-.245.043-.048.085-.136-.009-.19-.108-.063-.216-.128-.331-.175-.534-.218-1.069-.433-1.605-.644a10.882 10.882 0 01-3.746-2.465c-.106-.107-.211-.218-.331-.304-.045-.033-.152-.026-.202.006-.105.066-.194.159-.283.247-1.7 1.686-3.249 3.493-4.346 5.641-.434.849-1.042 1.519-1.799 2.087-.969.728-1.785 1.614-2.512 2.582-1.047 1.394-1.814 2.944-2.527 4.524-.062.137-.11.282-.145.427-.12.489.069.854.555.991a7.884 7.884 0 002.056.297zm15.268-69.155c.099.001.205.026.296 0 1.375-.393 2.74-.818 3.997-1.513 1.576-.871 2.918-2.035 4.097-3.388.379-.434.726-.896 1.092-1.342.622-.755 1.238-1.515 1.873-2.258.572-.67 1.24-1.243 1.931-1.786a5.982 5.982 0 011.505-.842 6.032 6.032 0 001.624-.929c.329-.268.704-.48 1.049-.73a5.55 5.55 0 00.636-.526c.248-.244.288-.528.113-.824-.1-.17-.236-.325-.381-.461a3.344 3.344 0 00-1.95-.896c-1.049-.12-2.101-.089-3.153.041-.41.051-.702.242-.915.576-.325.506-.658 1.008-.964 1.526-.474.804-1.015 1.557-1.682 2.209-.447.436-.928.84-1.41 1.24-.462.385-.957.732-1.415 1.121a11.912 11.912 0 00-2.421 2.762c-.639 1.02-1.278 2.04-1.898 3.072-.595.99-1.218 1.958-1.988 2.824-.027.03-.017.091-.024.138l-.012-.014zm18.642 99.625c-.985-.03-1.926.351-2.674 1.184-.349.389-.731.756-.954 1.243-.019.043-.038.129-.024.138.055.032.129.066.186.055.371-.075.718-.202 1.017-.449.308-.254.641-.479.945-.737.734-.623 1.598-.904 2.536-1.001.224-.023.448-.039.671-.061.017-.002.046-.03.044-.036-.02-.043-.037-.111-.069-.12a6.053 6.053 0 00-1.678-.216z"></path><path fill="#000" d="M563.645 569.678l-.085.056c.017-.002.043.003.051-.006.013-.016.015-.042.021-.063l.013.013zm-19.72-1.527c-1.001-.037-1.712.946-1.408 1.896.251.788 1.097 1.459 2.229 1.077.809-.274 1.128-1.269.707-2.066-.302-.574-.862-.906-1.528-.907z"></path><path fill="#8B83F6" d="M349.623 62l3.592 7.327 7.722-2.64-2.641 7.72L365.623 78l-7.327 3.593 2.641 7.72-7.722-2.64L349.623 94l-3.593-7.327-7.721 2.64 2.641-7.72L333.623 78l7.327-3.592-2.641-7.722 7.721 2.641L349.623 62zm-261 271l3.592 7.327 7.721-2.641-2.64 7.722 7.327 3.592-7.327 3.592 2.64 7.722-7.72-2.641L88.622 365l-3.593-7.327-7.72 2.641 2.64-7.722L72.623 349l7.327-3.592-2.64-7.722 7.72 2.641L88.623 333zm520 0l3.592 7.327 7.722-2.641-2.641 7.722 7.327 3.592-7.327 3.592 2.641 7.722-7.722-2.641-3.592 7.327-3.593-7.327-7.721 2.641 2.641-7.722-7.327-3.592 7.327-3.592-2.641-7.722 7.721 2.641 3.593-7.327zm-259 262l3.592 7.327 7.722-2.641-2.641 7.722 7.327 3.592-7.327 3.592 2.641 7.722-7.722-2.641-3.592 7.327-3.593-7.327-7.721 2.641 2.641-7.722-7.327-3.592 7.327-3.592-2.641-7.722 7.721 2.641 3.593-7.327z"></path><path fill="#000" d="M573.904 120.829c1.507-.038 3.022-.063 4.536-.118a90.895 90.895 0 003.26-.189 87.918 87.918 0 003.158-.282c1.99-.216 3.974-.481 5.95-.812 3.816-.641 7.573-1.518 11.239-2.766 1.943-.662 3.841-1.436 5.666-2.38 1.32-.683 2.589-1.448 3.763-2.363 1.025-.8 1.966-1.685 2.715-2.756a7.574 7.574 0 001.112-2.287c.353-1.245.275-2.465-.177-3.668-.366-.975-.944-1.817-1.637-2.584a13.638 13.638 0 00-2.162-1.907c-1.467-1.058-3.054-1.896-4.71-2.613a39.346 39.346 0 00-3.001-1.155c-.313-.107-.625-.22-.933-.34-1.09-.43-2.225-.698-3.365-.95-.969-.215-1.936-.442-2.911-.633-1.16-.227-2.325-.435-3.491-.624-1.027-.167-2.06-.298-3.091-.442-.312-.043-.626-.074-.939-.11a1.409 1.409 0 00-.189-.01c-.351.01-.557.24-.518.585.007.061.031.121.052.18.024.07-.033.094-.069.093-.22-.008-.441-.021-.66-.04a.187.187 0 01-.12-.063c-.058-.08.032-.108.071-.143.449-.398.901-.791 1.35-1.188.075-.067.139-.07.191.014.11.177.272.198.454.16.077-.017.152-.044.228-.063.594-.148 1.183-.16 1.775.026.357.113.709.073 1.064-.057.458-.167.929-.3 1.395-.445.128-.04.242-.004.364.048.216.093.438.177.663.24.458.127.908.022 1.356-.07.263-.055.523-.12.784-.18.116-.026.202.012.301.085.329.243.666.477 1.013.694.522.326 1.095.383 1.688.261.76-.156 1.492-.408 2.198-.723.996-.445 2.029-.78 3.064-1.116.344-.112.688-.23 1.023-.367 1.214-.492 2.461-.89 3.694-1.326 1.145-.405 2.282-.829 3.426-1.234 1.011-.357 2.031-.688 3.039-1.053 1.778-.645 3.583-1.215 5.348-1.899.161-.062.322-.127.483-.192.119-.049.237-.11.288-.232.067-.157.2-.24.325-.333 1.972-1.464 3.621-3.236 4.993-5.267a25.435 25.435 0 002.747-5.385 29.84 29.84 0 001.496-5.712c.158-.98.26-1.97.336-2.961.108-1.405.097-2.808.049-4.212a33.712 33.712 0 00-.238-2.78 38.217 38.217 0 00-1.074-5.522 40.455 40.455 0 00-3.99-9.637 37.993 37.993 0 00-4.201-5.947c-2.668-3.088-5.753-5.664-9.377-7.568a25.106 25.106 0 00-7.072-2.483c-.387-.073-.778-.122-1.168-.181-.062-.01-.128-.026-.188-.014-.452.085-.914.03-1.366.104-.435.07-.87.147-1.306.218-1.915.309-3.813.703-5.713 1.09-1.375.28-2.744.587-4.117.876-1.588.335-3.179.66-4.768.996-1.341.284-2.682.57-4.021.867-1.523.338-3.042.699-4.566 1.03-.701.153-1.341.45-1.987.739a2.95 2.95 0 00-.813.564c-.522.491-.976 1.032-1.258 1.7-.061.143-.155.208-.317.235-.482.08-.967.158-1.436.29-1.437.403-2.655 1.152-3.57 2.352-.105.138-.221.277-.286.434-.113.27-.316.417-.566.538-.553.27-1.099.552-1.649.829-.112.057-.227.111-.337.172-.082.046-.184.084-.234.155-.169.237-.426.316-.673.417-.687.281-1.356.603-1.988.993-.63.389-1.292.73-1.881 1.183-.125.096-.255.188-.369.296-1.387 1.318-2.714 2.687-3.784 4.286a25.741 25.741 0 00-2.583 4.94 30.946 30.946 0 00-1.725 6.334 38.005 38.005 0 00-.393 3.383 38.996 38.996 0 00-.039 4.637c.061 1.323.217 2.64.418 3.95a40.238 40.238 0 002.692 9.49c.171.407.358.808.536 1.212.028.064.01.124-.058.156a1.724 1.724 0 01-.174.072c-.424.142-.797.378-1.159.633a1.055 1.055 0 00-.354.373c-.145.281-.389.45-.667.579a4.128 4.128 0 01-1.358.391c-.848.08-1.699.138-2.552.056-.063-.006-.126-.009-.189-.012-1.119-.062-2.237-.142-3.357-.18-.708-.024-1.419.013-2.129.025-.126.002-.252.012-.378.016-.852.022-1.701.092-2.549.18-.737.077-1.477.138-2.212.23-.657.082-1.312.183-1.964.3-1.133.203-2.264.417-3.393.639a37.892 37.892 0 00-8.924 2.93c-1.304.616-2.505 1.402-3.674 2.238-.427.306-.783.69-1.103 1.101-.709.91-1.378 1.845-1.95 2.85-.67 1.182-1.122 2.44-1.299 3.781-.145 1.102-.101 2.208.198 3.288.224.806.439 1.616.719 2.402.606 1.701 1.517 3.222 2.798 4.509 1.285 1.292 2.705 2.417 4.211 3.438 2.162 1.465 4.458 2.688 6.835 3.76 3.892 1.756 7.933 3.08 12.076 4.1a83.118 83.118 0 009.808 1.808c1.237.152 2.475.282 3.717.383.991.08 1.983.137 2.975.195.93.054 1.861.08 2.791.076a42.017 42.017 0 013.075.106c1.512.104 3.025.172 4.54.195.805.012 1.61.044 2.423.068zm-17.275-70.112a2.74 2.74 0 01-.013.092c-.003.015-.009.029-.013.044-.01-.022-.032-.05-.026-.064.012-.024.042-.04.064-.06.009-.074-.01-.162.094-.189.019-.09.024-.189.061-.271.162-.36.327-.718.505-1.07.908-1.8 2.011-3.466 3.379-4.95.171-.185.33-.381.566-.497.08-.04.139-.125.203-.195.287-.314.569-.633.861-.944.26-.277.561-.507.889-.702.189-.113.379-.226.562-.35 2.147-1.452 4.506-2.33 7.09-2.556a14.907 14.907 0 014.055.194c2.116.396 4.09 1.163 5.947 2.247 2.286 1.334 4.257 3.046 6.008 5.018 1.642 1.85 3.023 3.884 4.195 6.06 1.817 3.373 3.06 6.953 3.823 10.703.016.077.026.156.026.234.001.068-.036.122-.108.132-.281.04-.563.074-.844.114-.171.024-.209.068-.194.254.046.582.095 1.164.152 1.745.028.282.075.563.116.843.101.687.191 1.375.222 2.07.046 1.025.038 2.05.001 3.076-.011.3-.016.6-.039.899-.044.582-.107 1.162-.147 1.745-.056.803-.132 1.604-.295 2.393-.054.261-.139.516-.217.772-.041.136-.103.265-.145.4a43.462 43.462 0 01-1.073 3.033c-.383.985-.773 1.968-1.265 2.906a28.703 28.703 0 01-2.238 3.566c-1.846 2.535-4.196 4.436-7.102 5.634-.321.132-.65.242-.978.357-.088.03-.182.05-.275.06-.096.012-.241-.133-.244-.25-.002-.094.079-.123.158-.147a5.44 5.44 0 00.267-.094c1.232-.453 2.411-1.007 3.501-1.751 1.905-1.3 3.463-2.935 4.749-4.836 1.427-2.109 2.446-4.41 3.157-6.85a30.35 30.35 0 00.973-4.768 33.612 33.612 0 00.193-6.33 37.5 37.5 0 00-.34-3.247 36.93 36.93 0 00-.815-3.935c-.895-3.395-2.234-6.6-4.094-9.582-1.59-2.55-3.496-4.83-5.831-6.737-1.536-1.255-3.205-2.293-5.038-3.062a16.117 16.117 0 00-5.745-1.254 13.26 13.26 0 00-2.546.187 13.992 13.992 0 00-4.706 1.654c-.48.273-.954.555-1.422.848-.401.252-.79.522-1.127.86-.344.348-.695.69-1.039 1.037a19.32 19.32 0 00-1.524 1.748 21.793 21.793 0 00-2.031 3.191c-.072.135-.107.296-.248.388-.007.075.001.158-.095.187zm75.41 10.781c-.034.783-.068 1.413-.086 2.044-.026.869-.123 1.732-.233 2.592a28.681 28.681 0 01-.542 2.978c-.607 2.563-1.512 5.011-2.829 7.3-1.549 2.69-3.534 4.99-6.068 6.8-.09.065-.187.129-.25.215-.09.124-.212.185-.345.235-.487.184-.972.373-1.462.546-1.234.434-2.471.862-3.707 1.29-1.103.383-2.207.758-3.307 1.147-1.218.432-2.432.877-3.649 1.314-.994.357-1.99.708-2.984 1.064-.535.192-1.063.4-1.602.577-1.004.331-2.005.663-2.972 1.096-.59.265-1.201.48-1.832.63-.59.139-1.156.111-1.672-.264-.228-.167-.481-.301-.721-.453-.065-.041-.135-.084-.184-.142a.415.415 0 00-.378-.152c-.172.014-.346.026-.515.06-.247.051-.488.13-.735.18-.507.105-1.004.1-1.463-.188-.04-.025-.085-.041-.126-.063a.643.643 0 00-.506-.041c-.572.176-1.134.39-1.735.456-.236.162-.477.097-.726.032-.367-.097-.741-.17-1.123-.115-.249.036-.496.091-.744.136a.883.883 0 01-.14.01.054.054 0 01-.04-.022c-.006-.008-.002-.03.005-.04.059-.072.121-.143.181-.215.406-.484.828-.954 1.214-1.453 1.608-2.08 2.791-4.39 3.67-6.86a31.791 31.791 0 001.63-7.181c.17-1.54.257-3.082.243-4.63-.003-.362-.038-.725-.045-1.087-.028-1.423-.188-2.832-.392-4.239a39.524 39.524 0 00-1.442-6.264c-1.139-3.59-2.742-6.952-4.909-10.04-1.569-2.235-3.388-4.239-5.521-5.951-1.923-1.544-4.027-2.769-6.362-3.583-1.317-.46-2.668-.773-4.058-.88-1.308-.1-2.618-.094-3.916.148-.046.008-.094.005-.141.004-.015 0-.03-.01-.045-.015.007-.013.009-.03.02-.037.091-.062.181-.125.274-.183a1.22 1.22 0 00.481-.51c.245-.51.617-.916 1.038-1.277a6.198 6.198 0 012.619-1.362c.261-.062.521-.134.786-.166.307-.038.61-.156.932-.041.157.055.317-.088.334-.252a.35.35 0 00-.002-.14c-.058-.185.021-.337.101-.494.253-.502.631-.903 1.036-1.28a2.54 2.54 0 01.709-.468c.62-.273 1.255-.511 1.915-.669 1.057-.253 2.119-.488 3.18-.727 1.184-.266 2.367-.54 3.554-.791 1.418-.302 2.842-.58 4.261-.876 2.87-.601 5.736-1.216 8.608-1.808 1.142-.236 2.293-.428 3.44-.636.559-.101 1.121-.181 1.677-.295.281-.058.549-.138.827.003.053.027.124.016.187.024a23.71 23.71 0 014.232.99 26.478 26.478 0 016.145 3.014c3.077 2.022 5.701 4.532 7.96 7.431a38.642 38.642 0 015.245 9.07 39.293 39.293 0 012.26 7.51c.265 1.363.48 2.734.572 4.121.068 1.007.122 2.015.173 2.873zm-64.003-1.8l.045-1.174c.011-.284.011-.57.038-.852.098-1.052.231-2.1.454-3.134.365-1.69.904-3.316 1.714-4.846.722-1.365 1.625-2.592 2.788-3.618 1.083-.954 2.31-1.642 3.711-2.009a7.644 7.644 0 011.536-.256c.209-.011.373-.082.399-.32.009-.084.049-.109.122-.07.111.058.221.12.33.184 2.145 1.26 3.982 2.885 5.607 4.756 1.612 1.856 2.947 3.9 4.059 6.09a34.785 34.785 0 012.377 6.02c.323 1.106.589 2.225.813 3.355.038.193.025.214-.16.267-.44.123-.884.236-1.32.371a8.509 8.509 0 00-2.34 1.113c-.884.61-1.541 1.397-1.895 2.417-.216.625-.401 1.261-.6 1.892-.066.21-.12.427-.206.63-.336.795-.885 1.364-1.73 1.63-.498.157-1.002.286-1.515.364-1.091.166-2.183.324-3.278.462-1.158.146-2.316.287-3.464.495-.541.097-1.093.163-1.593.423a.383.383 0 01-.226.022c-.559-.095-1.118-.196-1.676-.297-.169-.031-.369-.023-.496-.115-.127-.093-.186-.286-.265-.44a29.58 29.58 0 01-3.003-9.907c-.136-1.13-.177-2.263-.226-3.453zm-13.523 4.045a31.086 31.086 0 01.16-3.357c.121-1.145.295-2.283.538-3.41.537-2.482 1.372-4.855 2.604-7.08.767-1.386 1.669-2.678 2.755-3.836.107-.115.213-.241.345-.32.155-.092.266-.215.382-.345.536-.6 1.056-1.22 1.807-1.574.056-.027.104-.071.156-.107a13.786 13.786 0 015.883-2.336c.358-.054.721-.073 1.083-.106.026-.003.054.014.082.022-.021.022-.038.05-.063.067a1.668 1.668 0 01-.163.094c-.744.392-1.421.879-2.063 1.42a24.411 24.411 0 00-2.984 3.035 16.548 16.548 0 00-2.127 3.238c-.684 1.376-1.171 2.824-1.541 4.313-.264 1.058-.482 2.125-.54 3.215a26.646 26.646 0 00.073 3.737c.006.062.014.126.029.187.051.206.198.338.351.32.179-.02.286-.193.264-.434-.021-.22-.062-.438-.068-.658-.021-.71-.036-1.42-.041-2.13-.006-.775.032-1.547.163-2.312.195-1.136.47-2.253.82-3.351.511-1.603 1.198-3.122 2.168-4.503a22.344 22.344 0 014.014-4.328 9.947 9.947 0 012.401-1.5c.245-.106.488-.223.72-.356a.57.57 0 01.361-.072c.298.03.598.052.894.097 1.203.183 2.382.466 3.513.924.526.213 1.041.454 1.558.687.065.03.169.101.163.137-.021.119-.145.086-.232.103-.031.006-.063.003-.094.008-.311.049-.626.084-.933.152a9.405 9.405 0 00-3.62 1.681c-1.271.948-2.278 2.132-3.104 3.476-.814 1.325-1.409 2.748-1.851 4.237-.573 1.933-.851 3.913-.932 5.921-.062 1.517.011 3.03.195 4.537.163 1.331.411 2.648.749 3.947.679 2.61 1.661 5.097 3.023 7.428.326.559.671 1.106 1.006 1.66.069.112.053.172-.053.232-.11.062-.221.121-.332.181-.149.08-.177.077-.267-.063a17.012 17.012 0 01-1.363-2.595c-.214-.51-.145-.492-.672-.392-.093.018-.189.018-.281.04-1.693.393-3.206 1.131-4.479 2.33-.034.033-.068.075-.109.089-.034.011-.105.002-.118-.022a2.537 2.537 0 01-.156-.342c-.401-1.08-.817-2.154-1.195-3.24a36.36 36.36 0 01-1.211-4.277c-.179-.833-.303-1.675-.43-2.517a4.028 4.028 0 00-.099-.46c-.023-.086-.1-.116-.185-.12a.195.195 0 00-.198.167c-.01.062-.015.125-.017.188-.022.68.026 1.357.15 2.027.246 1.319.581 2.615.978 3.897a59.742 59.742 0 002.143 5.813c.334.783.675 1.564 1.015 2.345.081.186.166.372.25.558l-.399.461c-.011.012-.024.032-.034.03-.04-.003-.097-.002-.113-.026a2.378 2.378 0 01-.167-.285 22.067 22.067 0 01-.957-2.111 7.088 7.088 0 00-.144-.349c-.01-.023-.049-.047-.075-.047-.02 0-.049.032-.061.056-.068.143-.123.292-.199.43-.16.289-.315.582-.499.856-.267.396-.655.635-1.115.748a4.962 4.962 0 01-.652.112c-.896.094-1.796.093-2.695.113-.17.003-.263-.066-.33-.208-.202-.427-.414-.85-.612-1.28a34.524 34.524 0 01-2.342-6.985c-.24-1.094-.457-2.192-.577-3.307-.088-.815-.187-1.63-.243-2.448-.049-.706-.043-1.417-.061-2.127zm25.981 52.76c-1.523-.012-2.877-.031-4.228-.205a14.718 14.718 0 01-3.033-.698 1.85 1.85 0 01-.301-.136c-.094-.054-.134-.179-.107-.291a.256.256 0 01.236-.197c.078-.002.157.009.233.024 1.145.223 2.289.454 3.453.553.66.057 1.319.128 1.981.146 1.324.036 2.649.025 3.974-.05a74.568 74.568 0 003.207-.244c1.16-.115 2.316-.281 3.471-.438a71.677 71.677 0 004.889-.854 63.616 63.616 0 009.564-2.8c1.698-.641 3.36-1.361 4.948-2.246.22-.123.44-.247.658-.374a.732.732 0 01.404-.114c.229.01.37.195.326.423a.429.429 0 01-.177.271 4.778 4.778 0 01-.32.201 28.97 28.97 0 01-2.947 1.506c-2.032.908-4.121 1.662-6.242 2.331a60.625 60.625 0 01-7.381 1.839c-1.007.183-2.016.364-3.027.525-.763.121-1.529.217-2.296.31-.704.085-1.41.158-2.116.222-.973.088-1.947.182-2.922.238-.803.047-1.609.043-2.247.058zm-38.187-1.462c-.115-.03-.206-.054-.298-.076a30.346 30.346 0 01-3.471-1.089c-3.563-1.339-6.993-2.966-10.341-4.771-1.153-.622-2.286-1.277-3.363-2.025-.155-.107-.307-.221-.459-.334a1.043 1.043 0 01-.142-.124c-.124-.136-.145-.342-.054-.481.091-.138.287-.181.464-.09.097.05.189.113.278.178.676.493 1.383.94 2.106 1.36 2.73 1.586 5.561 2.972 8.448 4.247 1.716.758 3.476 1.409 5.234 2.061.517.192 1.036.379 1.551.577.099.038.19.105.271.175.071.061.069.193-.003.257-.067.059-.154.095-.221.135zm4.361-31.103c-.386.01-.922.028-1.458.037-.14.003-.282-.01-.42-.031-.084-.013-.116-.184-.047-.238a.556.556 0 01.159-.095c.241-.082.491-.104.745-.11a39.54 39.54 0 014.065.12c.424.036.846.09 1.268.145.453.06.903.15 1.358.186.407.03.824.046 1.227-.005a6.99 6.99 0 002.295-.699c.406-.207.784-.47 1.174-.706.297-.18.592-.362.892-.534.11-.063.18-.023.259.12.083.148.074.196-.049.272-.334.208-.678.402-1.002.626a8.13 8.13 0 01-2.886 1.254c-.417.093-.835.15-1.263.156a7.448 7.448 0 01-1.363-.13c-1.011-.174-2.032-.244-3.053-.315-.583-.041-1.167-.035-1.901-.053zm33.607 7.147c-.696.021-1.463-.078-2.223-.22-.464-.087-.918-.223-1.375-.344-.124-.033-.157-.094-.134-.207.021-.108.05-.215.077-.322.058-.228.072-.239.279-.179.957.277 1.929.456 2.923.546a9.684 9.684 0 003.375-.297c.814-.215 1.569-.57 2.284-1.012.12-.074.249-.133.377-.193.02-.01.067.006.082.025.012.016.006.066-.01.081-.364.327-.719.664-1.099.972-.367.298-.759.565-1.141.844-.093.068-.185.123-.269-.027-.021-.037-.109-.049-.167-.05-.061 0-.123.025-.184.04-.89.237-1.794.351-2.795.343zm.324 3.903c-.044-.029-.122-.054-.127-.09-.007-.053.032-.117.062-.169.013-.022.053-.032.082-.043.059-.021.119-.042.18-.06 1.484-.42 2.836-1.124 4.133-1.943 1.341-.847 2.527-1.88 3.605-3.04.31-.333.25-.352.77-.166a.516.516 0 01.043.018c.057.026.081.106.039.157-.099.123-.198.246-.305.361a18.963 18.963 0 01-1.566 1.508c-1.737 1.485-3.687 2.579-5.89 3.207-.333.094-.671.17-1.026.26zm-4.293 15.709l-.002.026c-.692-.036-1.385-.072-2.077-.11-.645-.035-1.291-.066-1.935-.114a3.088 3.088 0 01-.601-.118c-.158-.043-.264-.189-.246-.309a.304.304 0 01.239-.264c.153-.034.31-.068.465-.067.409.001.819.014 1.229.034.913.045 1.825.108 2.738.144.615.024 1.23.012 1.846.018.093.001.192 0 .28.026a.36.36 0 01.148.607.468.468 0 01-.244.124c-.218.031-.439.05-.659.048-.394-.005-.787-.029-1.181-.045zm-4.892-28.525c.045.038.115.076.155.134a.155.155 0 01-.037.213 1.694 1.694 0 01-.365.208c-.205.08-.419.136-.629.204a5.568 5.568 0 00-2.744 1.925c-.289.374-.56.763-.816 1.159-.333.516-.638 1.05-.967 1.57-.547.863-1.276 1.558-2.076 2.181-.111.087-.239.152-.364.218a.336.336 0 01-.18.041c-.055-.006-.126-.04-.152-.084-.024-.043-.022-.135.009-.17.093-.104.2-.199.312-.283.979-.74 1.808-1.615 2.415-2.69.1-.179.205-.355.316-.528.288-.45.567-.91.876-1.347.815-1.154 1.878-1.985 3.233-2.422.284-.092.565-.195.848-.292.044-.015.091-.02.166-.037zm-41.001 4.082h.098c.085.01.149.05.178.132a.205.205 0 01-.095.24c-.056.03-.113.06-.174.074-.995.247-1.955.603-2.905.979-2.21.874-4.196 2.09-5.778 3.898a.997.997 0 01-.132.134c-.065.053-.144.071-.218.023a.145.145 0 01-.047-.207c.139-.227.269-.465.441-.667.214-.25.451-.486.704-.697 1.413-1.174 2.942-2.165 4.666-2.825.794-.303 1.599-.576 2.4-.857.208-.072.423-.123.636-.18.09-.025.183-.038.226-.047zm26.297 6.826c.017-.035.032-.125.086-.166.162-.122.332-.234.511-.332.879-.484 1.798-.9 2.593-1.527a.523.523 0 01.212-.09c.08-.017.164.016.196.094a.244.244 0 01-.001.178.495.495 0 01-.149.176c-.24.178-.472.371-.73.516-.753.421-1.517.823-2.279 1.23-.081.043-.175.065-.265.09-.066.018-.165-.06-.174-.169zm4.942-11.314c-.299.028-.705.061-1.109.105-.281.031-.56.075-.839.113-.122.017-.216-.02-.274-.133-.028-.055-.061-.11-.082-.168-.007-.02.012-.064.03-.073a.593.593 0 01.176-.062c.497-.069.993-.149 1.492-.194a9.838 9.838 0 011.082-.02c.154.002.308.05.46.085.043.01.092.037.116.072.032.049.065.116.055.168a.207.207 0 01-.112.133.59.59 0 01-.229.021c-.219-.01-.438-.027-.766-.047zm20.035-6.015c.012-.026.017-.064.036-.073.02-.009.052.012.079.02l-.046.098-.069-.045z"></path><path fill="#000" d="M600.731 63.518c-.35-.028-.633-.055-.916-.073-.144-.009-.202.052-.188.201.042.456.092.91.139 1.365.047.44.105.878.141 1.318.115 1.385.143 2.773.129 4.163a33.668 33.668 0 01-.132 2.6 37.454 37.454 0 01-.577 4.027c-.5 2.528-1.23 4.99-2.098 7.414-.54 1.505-1.22 2.944-2.105 4.28-.117.176-.12.311-.002.468.01.013.017.027.025.04.081.128.127.147.274.119.356-.068.711-.14 1.068-.202.403-.07.788.008 1.151.18.243.114.479.243.707.383.475.292.975.33 1.504.194.765-.198 1.499-.488 2.234-.771 1.56-.603 3.113-1.22 4.669-1.833 1.453-.573 2.941-1.046 4.417-1.556 1.61-.556 3.219-1.111 4.848-1.61.995-.305 1.99-.611 2.978-.939.568-.188 1.123-.417 1.681-.635.264-.104.515-.244.783-.334.687-.23 1.263-.64 1.82-1.084.77-.613 1.432-1.33 2.054-2.09.3-.366.613-.722.93-1.073.203-.224.38-.462.516-.732.979-1.948 1.871-3.933 2.563-6.002.491-1.467.841-2.972 1.103-4.497.33-1.922.415-3.856.382-5.801a32.552 32.552 0 00-.234-3.304 37.306 37.306 0 00-1.207-5.927c-1.224-4.234-3.069-8.174-5.595-11.79a33.456 33.456 0 00-5.093-5.779 26.797 26.797 0 00-5.463-3.805c-.727-.382-1.447-.77-2.217-1.059-.606-.226-1.215-.444-1.851-.57-.186-.036-.38-.04-.558-.097-.473-.15-.936-.1-1.39.055-.231.08-.459.102-.697.077-.094-.01-.189-.01-.284-.018-2.457-.182-4.604.559-6.451 2.18-1.143 1.003-2.01 2.217-2.712 3.557-.728 1.392-1.243 2.864-1.601 4.39-.172.736-.299 1.484-.448 2.226a.912.912 0 00.067.6c.091.182.183.364.278.545.006.01.067.009.071 0a.567.567 0 00.034-.136c.141-1.016.312-2.026.562-3.022.39-1.552.926-3.047 1.704-4.45.563-1.014 1.235-1.946 2.073-2.751 1.044-1.002 2.25-1.726 3.658-2.092a7.347 7.347 0 011.964-.261c.03 0 .06.014.091.021-.016.038-.022.085-.049.111-.067.067-.147.12-.215.186-.171.163-.343.326-.506.497-.241.252-.412.548-.584.852-.638 1.128-.919 2.34-.938 3.625-.016 1.066.161 2.105.439 3.13.336 1.236.806 2.423 1.315 3.596a77.307 77.307 0 002.8 5.741c1.43 2.67 2.882 5.33 4.323 7.994.255.473.484.959.62 1.481.044.166.064.34.079.512a.81.81 0 01-.268.68c-.114.109-.236.21-.364.302-.244.174-.494.339-.742.507-1.707 1.16-3.041 2.645-3.948 4.506-.055.114-.112.226-.168.34-.218.446-.119.437-.716.36-.72-.091-1.439-.184-2.161-.256-.769-.077-1.54-.13-2.31-.194-.2-.016-.23-.039-.267-.256a23.76 23.76 0 01-.125-.842 38.602 38.602 0 00-.902-4.497c-.807-3.112-1.942-6.1-3.461-8.936-1.825-3.41-4.108-6.472-6.954-9.1-2.72-2.51-5.787-4.47-9.27-5.754-.576-.212-1.166-.388-1.751-.575a.919.919 0 00-.277-.04c-.108 0-.209.096-.236.2-.031.117-.014.234.083.3.102.07.223.113.341.153.523.177 1.052.335 1.57.524 2.539.928 4.867 2.24 7.013 3.88 2.851 2.18 5.22 4.804 7.194 7.792 2.157 3.264 3.738 6.793 4.827 10.546a40.04 40.04 0 011.151 5.215c.054.359.114.717.165 1.076.026.185-.02.233-.194.234h-.313zm29.476-3.017h.022c0 .41.001.82-.001 1.231-.001.046-.021.091-.032.136-.057-.02-.124-.026-.17-.06-.176-.135-.34-.283-.517-.415-.082-.062-.173-.184-.28-.11-.052.037-.048.175-.046.266.026 1.362-.135 2.708-.347 4.05-.116.732-.231 1.463-.231 2.21 0 .471-.044.946-.092 1.416-.126 1.225-.349 2.434-.604 3.639-.116.548-.401.982-.725 1.41-.025.033-.092.011-.11-.036-.017-.043-.035-.087-.047-.132-.133-.485-.265-.972-.399-1.457a1.079 1.079 0 00-.07-.173c-.077-.154-.161-.305-.235-.461-.402-.85-.908-1.626-1.616-2.255-1.128-1.001-2.44-1.34-3.913-1.064-.339.064-.662.217-1.001.271-.265.042-.474.156-.68.304-.179.129-.362.253-.543.38a9.646 9.646 0 00-2.458 2.534c-.685 1.015-1.186 2.118-1.587 3.27-.375 1.072-.673 2.167-.961 3.266-.243.93-.492 1.86-.748 2.786a7.018 7.018 0 01-.492 1.28c-.29.579-.739.976-1.349 1.186-.313.107-.63.204-.949.293-1.915.53-3.855.957-5.788 1.414-.291.069-.585.126-.878.185-.073.015-.127-.047-.1-.108.013-.028.026-.057.041-.084.414-.73.716-1.51 1.004-2.296.635-1.735 1.134-3.51 1.59-5.299.332-1.3.578-2.616.714-3.952.042-.407.011-.821.123-1.222a.708.708 0 00-.003-.283c-.065-.451-.103-.91-.212-1.35-.173-.702-.222-1.398-.076-2.107.02-.092.02-.188.029-.282.032-.33.058-.66.099-.99.017-.138.033-.296.108-.407.166-.246.211-.521.258-.8a6.63 6.63 0 01.456-1.587c.21-.477.416-.955.639-1.425.739-1.555 1.812-2.841 3.171-3.89.337-.26.701-.485 1.046-.735.243-.175.49-.348.708-.552.41-.383.559-.863.469-1.42a4.54 4.54 0 00-.252-.91c-.252-.65-.587-1.257-.919-1.867-1.065-1.953-2.141-3.9-3.193-5.861-1.163-2.17-2.288-4.359-3.294-6.607a32.15 32.15 0 01-1.32-3.393c-.415-1.305-.644-2.633-.559-4.007a6.644 6.644 0 01.405-1.938c.462-1.234 1.253-2.182 2.456-2.754.729-.347 1.486-.513 2.296-.332.51.114 1.004.27 1.494.447.729.263 1.418.61 2.114.949 1.338.652 2.612 1.404 3.778 2.33.371.295.734.6 1.097.905a31.994 31.994 0 015.029 5.325c2.433 3.244 4.289 6.798 5.611 10.631a37.393 37.393 0 011.481 5.67c.16.9.284 1.807.391 2.715.082.704.114 1.414.168 2.122z"></path><path fill="#000" d="M598.97 69.488c-.045-.84-.088-1.849-.159-2.856a62.303 62.303 0 00-.227-2.402c-.039-.359-.115-.714-.181-1.07-.147-.79-.287-1.582-.451-2.369a39 39 0 00-2.378-7.472 36.923 36.923 0 00-4.139-7.265c-2.12-2.886-4.612-5.394-7.563-7.434a27.067 27.067 0 00-5.105-2.773 1.61 1.61 0 00-.408-.103c-.135-.016-.251.08-.285.202a.261.261 0 00.106.292c.1.074.214.134.33.18 1.369.541 2.665 1.225 3.913 2a28.652 28.652 0 013.967 2.986c2.732 2.443 4.96 5.29 6.766 8.472 1.891 3.33 3.231 6.875 4.089 10.604.184.798.321 1.607.479 2.412.012.062.017.125.024.188.033.313.023.327-.279.338-.236.01-.473.01-.709.022-.182.01-.223.064-.196.237.091.593.194 1.183.269 1.778.098.766.182 1.534.259 2.303.134 1.338.111 2.681.072 4.022-.033 1.15-.103 2.3-.244 3.445a31.598 31.598 0 01-3.508 11.078c-.549 1.03-1.137 2.04-1.707 3.058-.031.055-.068.107-.1.16a86.36 86.36 0 00-.26.442c.159.134.353.071.531.085.141.01.285-.019.425-.004.281.03.473-.1.658-.294a12.265 12.265 0 001.856-2.561 21.888 21.888 0 001.459-3.283c.571-1.622 1.1-3.256 1.506-4.929.381-1.564.69-3.142.885-4.74.121-.986.217-1.976.233-2.972.01-.535.043-1.07.072-1.777zm-4.273-25.675c.029.186.051.373.09.556a.546.546 0 00.103.207c.088.119.295.111.362-.02.055-.109.112-.235.11-.352-.006-.25-.044-.5-.083-.747-.018-.115-.099-.193-.217-.224-.192-.051-.361.058-.369.25-.006.108.01.218.016.328l-.012.002zM560.822 62.96c.031.3.059.595.097.889.01.074.046.149.085.215.062.104.164.139.282.125.102-.012.18-.07.21-.163a.727.727 0 00.04-.272c-.02-.265-.049-.529-.087-.79a1.553 1.553 0 00-.105-.358c-.044-.105-.126-.18-.252-.175-.104.004-.184.083-.219.21-.012.045-.024.09-.032.137-.009.061-.013.124-.019.182zm-435.48 57.87c-1.507-.038-3.022-.063-4.537-.118a90.974 90.974 0 01-3.259-.189 87.918 87.918 0 01-3.158-.282c-1.99-.216-3.975-.481-5.95-.812-3.817-.641-7.573-1.518-11.239-2.766-1.944-.662-3.84-1.436-5.666-2.38-1.32-.683-2.59-1.448-3.763-2.363-1.025-.8-1.966-1.685-2.715-2.756a7.607 7.607 0 01-1.113-2.287c-.353-1.245-.274-2.465.178-3.668.366-.975.943-1.817 1.637-2.584a13.646 13.646 0 012.162-1.907c1.466-1.058 3.054-1.896 4.71-2.613.984-.426 1.985-.81 3-1.155.314-.107.626-.22.934-.34 1.09-.43 2.225-.698 3.365-.95.969-.215 1.936-.442 2.911-.633 1.16-.227 2.324-.435 3.491-.624 1.027-.167 2.06-.298 3.09-.442.313-.043.627-.074.94-.11.063-.007.126-.012.189-.01.351.01.557.24.518.585-.007.061-.031.121-.052.18-.025.07.033.094.069.093.22-.008.44-.021.66-.04a.187.187 0 00.12-.063c.058-.08-.032-.108-.071-.143-.449-.398-.902-.791-1.351-1.188-.075-.067-.139-.07-.19.014-.11.177-.272.198-.455.16-.076-.017-.151-.044-.228-.063-.593-.148-1.182-.16-1.774.026-.357.113-.709.073-1.064-.057-.458-.167-.929-.3-1.395-.445-.128-.04-.242-.004-.364.048a5.29 5.29 0 01-.664.24c-.457.127-.908.022-1.356-.07-.262-.055-.522-.12-.783-.18-.116-.026-.202.012-.301.085-.33.243-.666.477-1.013.694-.522.326-1.096.383-1.688.261a10.657 10.657 0 01-2.198-.723c-.996-.445-2.03-.78-3.064-1.116-.345-.112-.688-.23-1.024-.367-1.213-.492-2.46-.89-3.693-1.326-1.145-.405-2.282-.829-3.427-1.234-1.01-.357-2.03-.688-3.038-1.053-1.778-.645-3.583-1.215-5.348-1.899a31.971 31.971 0 01-.483-.192c-.12-.049-.237-.11-.288-.232-.067-.157-.2-.24-.326-.333-1.971-1.464-3.62-3.236-4.992-5.267a25.464 25.464 0 01-2.747-5.385 29.855 29.855 0 01-1.496-5.712c-.158-.98-.26-1.97-.336-2.961-.108-1.405-.098-2.808-.049-4.212.032-.93.13-1.856.238-2.78.22-1.869.584-3.708 1.074-5.522a40.471 40.471 0 013.99-9.637 37.997 37.997 0 014.2-5.947c2.669-3.088 5.754-5.664 9.377-7.568a25.119 25.119 0 017.073-2.483c.387-.073.778-.122 1.168-.181.062-.01.128-.026.188-.014.452.085.913.03 1.365.104.436.07.871.147 1.307.218 1.914.309 3.813.703 5.713 1.09 1.375.28 2.744.587 4.117.876 1.588.335 3.179.66 4.767.996 1.342.284 2.683.57 4.022.867 1.523.338 3.042.699 4.566 1.03.7.153 1.341.45 1.987.739.305.136.57.335.813.564.521.491.976 1.032 1.258 1.7.06.143.155.208.317.235.482.08.967.158 1.436.29 1.436.403 2.654 1.152 3.57 2.352.105.138.221.277.286.434.113.27.316.417.566.538.553.27 1.099.552 1.649.829.112.057.227.111.337.172.082.046.183.084.234.155.169.237.426.316.672.417.688.281 1.357.603 1.989.993.63.389 1.292.73 1.881 1.183.125.096.255.188.369.296 1.387 1.318 2.713 2.687 3.784 4.286a25.741 25.741 0 012.583 4.94 30.946 30.946 0 011.725 6.334c.183 1.122.311 2.249.393 3.383.112 1.546.111 3.092.039 4.637a37.467 37.467 0 01-.418 3.95 40.238 40.238 0 01-2.692 9.49c-.171.407-.359.808-.536 1.212-.028.064-.011.124.058.156.057.026.115.052.174.072.424.142.796.378 1.159.633.143.101.272.213.354.373.144.281.389.45.667.579.432.202.884.346 1.358.391.848.08 1.699.138 2.552.056.063-.006.126-.009.189-.012 1.119-.062 2.237-.142 3.356-.18.709-.024 1.42.013 2.129.025.127.002.253.012.379.016.852.022 1.701.092 2.549.18.737.077 1.476.138 2.212.23.657.082 1.312.183 1.964.3 1.133.203 2.264.417 3.393.639a37.87 37.87 0 018.923 2.93c1.305.616 2.506 1.402 3.675 2.238.427.306.782.69 1.103 1.101.709.91 1.378 1.845 1.949 2.85.671 1.182 1.123 2.44 1.3 3.781.145 1.102.1 2.208-.199 3.288-.223.806-.438 1.616-.718 2.402-.606 1.701-1.517 3.222-2.798 4.509-1.285 1.292-2.705 2.417-4.211 3.438-2.163 1.465-4.458 2.688-6.835 3.76-3.893 1.756-7.933 3.08-12.077 4.1a82.964 82.964 0 01-9.807 1.808 90.835 90.835 0 01-3.717.383c-.991.08-1.983.137-2.975.195-.93.054-1.861.08-2.792.076a42.01 42.01 0 00-3.074.106 84.936 84.936 0 01-4.54.195c-.806.012-1.61.044-2.423.068zm17.275-70.112l.013.092c.003.015.009.029.013.044.009-.022.032-.05.026-.064-.013-.024-.042-.04-.064-.06-.01-.074.01-.162-.095-.189-.019-.09-.023-.189-.06-.271-.162-.36-.328-.718-.505-1.07-.908-1.8-2.011-3.466-3.38-4.95-.17-.185-.329-.381-.565-.497-.08-.04-.139-.125-.203-.195-.287-.314-.569-.633-.861-.944a4.05 4.05 0 00-.889-.702c-.189-.113-.379-.226-.562-.35-2.147-1.452-4.506-2.33-7.09-2.556a14.916 14.916 0 00-4.056.194c-2.115.396-4.089 1.163-5.946 2.247-2.287 1.334-4.257 3.046-6.008 5.018-1.642 1.85-3.023 3.884-4.195 6.06-1.817 3.373-3.06 6.953-3.823 10.703a1.236 1.236 0 00-.027.234c0 .068.037.122.109.132.281.04.563.074.844.114.171.024.209.068.194.254-.047.582-.095 1.164-.152 1.745-.028.282-.075.563-.116.843a20.222 20.222 0 00-.222 2.07 38.025 38.025 0 00-.001 3.076c.01.3.016.6.038.899.045.582.107 1.162.148 1.745.056.803.132 1.604.295 2.393.054.261.139.516.217.772.041.136.103.265.145.4a43.974 43.974 0 001.072 3.033c.384.985.774 1.968 1.266 2.906a28.703 28.703 0 002.238 3.566c1.846 2.535 4.195 4.436 7.102 5.634.321.132.65.242.977.357.089.03.183.05.276.06.096.012.241-.133.244-.25.002-.094-.079-.123-.158-.147a5.44 5.44 0 01-.267-.094c-1.232-.453-2.411-1.007-3.501-1.751-1.905-1.3-3.463-2.935-4.749-4.836-1.427-2.109-2.446-4.41-3.158-6.85a30.348 30.348 0 01-.972-4.768 33.612 33.612 0 01-.193-6.33 36.685 36.685 0 011.155-7.181c.895-3.396 2.234-6.602 4.093-9.583 1.591-2.55 3.497-4.83 5.831-6.737 1.537-1.255 3.206-2.293 5.039-3.062a16.117 16.117 0 015.745-1.254 13.25 13.25 0 012.545.187c1.666.268 3.238.822 4.706 1.654.48.273.955.555 1.423.848.4.252.79.522 1.126.86.345.348.696.69 1.04 1.037a19.32 19.32 0 011.524 1.748 21.793 21.793 0 012.031 3.191c.071.135.107.296.248.388.007.075-.001.158.095.187zm-75.41 10.781c.034.783.067 1.413.086 2.044.025.869.123 1.732.233 2.592.127 1.001.31 1.995.542 2.978.607 2.563 1.512 5.011 2.829 7.3 1.549 2.69 3.534 4.99 6.068 6.8.09.065.187.129.25.215.09.124.212.185.345.235.486.184.971.373 1.462.546 1.234.434 2.471.862 3.707 1.29 1.102.383 2.207.758 3.307 1.147 1.218.432 2.432.877 3.649 1.314.994.357 1.99.708 2.984 1.064.535.192 1.063.4 1.602.577 1.003.331 2.005.663 2.972 1.096.59.265 1.201.48 1.832.63.59.139 1.156.111 1.672-.264.228-.167.481-.301.721-.453.065-.041.135-.084.184-.142a.415.415 0 01.378-.152c.172.014.346.026.515.06.246.051.488.13.734.18.508.105 1.005.1 1.464-.188.039-.025.085-.041.126-.063a.643.643 0 01.506-.041c.572.176 1.134.39 1.734.456.236.162.478.097.727.032.367-.097.741-.17 1.123-.115.249.036.496.091.744.136.046.008.093.01.14.01.014 0 .032-.01.04-.022.006-.008.002-.03-.005-.04-.059-.072-.121-.143-.181-.215-.406-.484-.829-.954-1.214-1.453-1.608-2.08-2.791-4.39-3.67-6.86a31.791 31.791 0 01-1.63-7.181 38.716 38.716 0 01-.243-4.63c.003-.362.038-.725.045-1.087.028-1.423.187-2.832.392-4.239a39.524 39.524 0 011.442-6.264c1.139-3.59 2.742-6.952 4.909-10.04 1.569-2.235 3.388-4.239 5.52-5.951 1.924-1.544 4.028-2.769 6.363-3.583 1.316-.46 2.668-.773 4.058-.88 1.308-.1 2.618-.094 3.916.148.046.008.094.005.141.004.015 0 .03-.01.045-.015-.007-.013-.01-.03-.02-.037-.091-.062-.181-.125-.275-.183a1.223 1.223 0 01-.48-.51c-.245-.51-.617-.916-1.038-1.277a6.198 6.198 0 00-2.619-1.362c-.261-.062-.522-.134-.786-.166-.307-.038-.61-.156-.932-.041-.157.055-.317-.088-.335-.252a.369.369 0 01.003-.14c.057-.185-.021-.337-.101-.494-.253-.502-.631-.903-1.037-1.28a2.52 2.52 0 00-.708-.468 11.276 11.276 0 00-1.915-.669c-1.058-.253-2.119-.488-3.18-.727-1.184-.266-2.367-.54-3.554-.791-1.419-.302-2.842-.58-4.261-.876-2.87-.601-5.736-1.216-8.608-1.808-1.142-.236-2.293-.428-3.44-.636-.559-.101-1.122-.181-1.677-.295-.282-.058-.55-.138-.827.003-.053.027-.125.016-.187.024-1.44.203-2.852.528-4.232.99a26.46 26.46 0 00-6.145 3.014c-3.077 2.022-5.7 4.532-7.96 7.431a38.617 38.617 0 00-5.246 9.07 39.378 39.378 0 00-2.26 7.51c-.264 1.363-.479 2.734-.571 4.121-.069 1.007-.122 2.015-.173 2.873zm64.003-1.8l-.045-1.174c-.011-.284-.012-.57-.038-.852-.099-1.052-.231-2.1-.455-3.134-.364-1.69-.904-3.316-1.713-4.846-.722-1.365-1.626-2.592-2.789-3.618-1.082-.954-2.309-1.642-3.71-2.009a7.655 7.655 0 00-1.536-.256c-.209-.011-.373-.082-.399-.32-.009-.084-.049-.109-.122-.07-.111.058-.221.12-.33.184-2.145 1.26-3.982 2.885-5.607 4.756-1.612 1.856-2.947 3.9-4.059 6.09a34.785 34.785 0 00-2.377 6.02 38.967 38.967 0 00-.813 3.355c-.038.193-.025.214.16.267.44.123.883.236 1.32.371a8.509 8.509 0 012.34 1.113c.884.61 1.541 1.397 1.895 2.417.216.625.4 1.261.6 1.892.066.21.12.427.206.63.335.795.885 1.364 1.73 1.63.498.157 1.001.286 1.515.364 1.091.166 2.183.324 3.278.462 1.158.146 2.316.287 3.464.495.54.097 1.092.163 1.593.423a.383.383 0 00.226.022c.559-.095 1.117-.196 1.675-.297.17-.031.37-.023.496-.115.128-.093.187-.286.266-.44a29.579 29.579 0 003.002-9.907c.137-1.13.178-2.263.227-3.453zm13.523 4.045a31.086 31.086 0 00-.16-3.357 32.228 32.228 0 00-.538-3.41c-.537-2.482-1.372-4.855-2.604-7.08-.767-1.386-1.669-2.678-2.755-3.836-.107-.115-.213-.241-.345-.32a1.648 1.648 0 01-.382-.345c-.536-.6-1.057-1.22-1.807-1.574-.056-.027-.104-.071-.156-.107a13.786 13.786 0 00-5.883-2.336c-.358-.054-.722-.073-1.083-.106-.026-.003-.054.014-.082.022.021.022.038.05.062.067.053.034.108.065.164.094.744.392 1.421.879 2.063 1.42a24.411 24.411 0 012.984 3.035 16.548 16.548 0 012.127 3.238c.684 1.376 1.17 2.824 1.541 4.313.263 1.058.482 2.125.54 3.215a26.495 26.495 0 01-.074 3.737 1.18 1.18 0 01-.028.187c-.051.206-.198.338-.351.32-.179-.02-.287-.193-.264-.434.02-.22.062-.438.068-.658.021-.71.036-1.42.041-2.13a13.055 13.055 0 00-.164-2.312 24.735 24.735 0 00-.819-3.351c-.511-1.603-1.198-3.122-2.168-4.503a22.344 22.344 0 00-4.014-4.328 9.966 9.966 0 00-2.401-1.5 7.19 7.19 0 01-.72-.356.57.57 0 00-.361-.072c-.298.03-.598.052-.894.097-1.204.183-2.383.466-3.514.924-.525.213-1.04.454-1.557.687-.065.03-.17.101-.163.137.021.119.145.086.232.103.031.006.063.003.094.008.311.049.626.084.933.152a9.405 9.405 0 013.62 1.681c1.271.948 2.278 2.132 3.103 3.476.815 1.325 1.41 2.748 1.852 4.237.573 1.933.85 3.913.932 5.921a27.962 27.962 0 01-.195 4.537 30.274 30.274 0 01-.749 3.947c-.679 2.61-1.661 5.097-3.023 7.428-.326.559-.672 1.106-1.007 1.66-.068.112-.052.172.053.232.11.062.222.121.333.181.149.08.177.077.266-.063.531-.825.983-1.691 1.363-2.595.215-.51.146-.492.673-.392.093.018.189.018.281.04 1.693.393 3.206 1.131 4.479 2.33.034.033.067.075.109.089.034.011.105.002.118-.022.06-.11.113-.225.156-.342.401-1.08.817-2.154 1.194-3.24.487-1.402.899-2.825 1.212-4.277.179-.833.303-1.675.429-2.517.024-.155.059-.31.1-.46.023-.086.1-.116.184-.12a.196.196 0 01.199.167c.01.062.015.125.017.188a9.365 9.365 0 01-.151 2.027 34.62 34.62 0 01-.977 3.897 59.742 59.742 0 01-2.143 5.813c-.334.783-.676 1.564-1.015 2.345-.081.186-.166.372-.25.558l.399.461c.011.012.024.032.034.03.039-.003.096-.002.113-.026.063-.09.117-.187.167-.285.356-.687.675-1.39.957-2.111.046-.118.091-.235.144-.349.01-.023.049-.047.075-.047.02 0 .049.032.06.056.068.143.124.292.2.43.16.289.315.582.499.856.267.396.655.635 1.115.748.214.052.433.088.652.112.896.094 1.796.093 2.695.113.17.003.263-.066.33-.208.202-.427.414-.85.612-1.28a34.459 34.459 0 002.341-6.985c.241-1.094.458-2.192.578-3.307.088-.815.187-1.63.243-2.448.049-.706.043-1.417.061-2.127zm-25.981 52.76c1.523-.012 2.877-.031 4.227-.205a14.713 14.713 0 003.034-.698 1.89 1.89 0 00.301-.136c.094-.054.133-.179.107-.291a.256.256 0 00-.236-.197 1.072 1.072 0 00-.233.024c-1.145.223-2.289.454-3.453.553-.66.057-1.32.128-1.981.146a47.463 47.463 0 01-3.974-.05 74.568 74.568 0 01-3.207-.244c-1.16-.115-2.316-.281-3.471-.438a71.677 71.677 0 01-4.889-.854 63.607 63.607 0 01-9.564-2.8c-1.698-.641-3.36-1.361-4.948-2.246-.22-.123-.44-.247-.659-.374a.73.73 0 00-.403-.114c-.229.01-.37.195-.326.423a.425.425 0 00.177.271c.102.072.211.137.32.201a29.033 29.033 0 002.947 1.506c2.032.908 4.121 1.662 6.242 2.331a60.613 60.613 0 007.381 1.839c1.007.183 2.016.364 3.027.525.762.121 1.529.217 2.296.31.704.085 1.41.158 2.116.222.973.088 1.947.182 2.922.238.803.047 1.608.043 2.247.058zm38.187-1.462c.115-.03.206-.054.298-.076a30.346 30.346 0 003.471-1.089c3.563-1.339 6.993-2.966 10.341-4.771 1.153-.622 2.285-1.277 3.363-2.025.155-.107.307-.221.459-.334.05-.037.099-.078.142-.124.124-.136.145-.342.054-.481-.091-.138-.287-.181-.464-.09a2.08 2.08 0 00-.278.178c-.677.493-1.383.94-2.106 1.36-2.73 1.586-5.561 2.972-8.448 4.247-1.716.758-3.476 1.409-5.234 2.061-.517.192-1.036.379-1.551.577a.953.953 0 00-.271.175c-.071.061-.069.193.003.257.067.059.154.095.221.135zm-4.361-31.103c.386.01.922.028 1.458.037.14.003.281-.01.42-.031.084-.013.116-.184.047-.238a.556.556 0 00-.159-.095 2.434 2.434 0 00-.746-.11 39.557 39.557 0 00-4.065.12c-.423.036-.845.09-1.267.145-.453.06-.904.15-1.358.186a6.105 6.105 0 01-1.227-.005 7.002 7.002 0 01-2.296-.699c-.406-.207-.783-.47-1.174-.706-.296-.18-.591-.362-.891-.534-.11-.063-.181-.023-.259.12-.083.148-.075.196.049.272.334.208.678.402 1.002.626a8.122 8.122 0 002.886 1.254c.417.093.835.15 1.263.156.46.005.913-.052 1.363-.13 1.011-.174 2.032-.244 3.053-.315.582-.041 1.167-.035 1.901-.053zm-33.607 7.147c.696.021 1.463-.078 2.223-.22.464-.087.918-.223 1.375-.344.124-.033.157-.094.134-.207-.022-.108-.05-.215-.077-.322-.058-.228-.072-.239-.279-.179-.957.277-1.93.456-2.924.546a9.68 9.68 0 01-3.374-.297c-.815-.215-1.569-.57-2.284-1.012-.12-.074-.249-.133-.377-.193-.02-.01-.067.006-.082.025-.012.016-.006.066.01.081.364.327.719.664 1.098.972.367.298.759.565 1.142.844.093.068.185.123.269-.027.021-.037.109-.049.167-.05.061 0 .123.025.184.04.89.237 1.794.351 2.795.343zm-.324 3.903c.043-.029.121-.054.127-.09.007-.053-.032-.117-.063-.169-.012-.022-.052-.032-.081-.043a2.497 2.497 0 00-.18-.06c-1.484-.42-2.836-1.124-4.133-1.943-1.341-.847-2.527-1.88-3.605-3.04-.31-.333-.25-.352-.77-.166a.516.516 0 00-.043.018c-.057.026-.081.106-.039.157.099.123.198.246.305.361a18.963 18.963 0 001.566 1.508c1.737 1.485 3.687 2.579 5.89 3.207.332.094.671.17 1.026.26zm4.293 15.709l.001.026c.693-.036 1.385-.072 2.078-.11.645-.035 1.291-.066 1.935-.114.202-.014.404-.064.601-.118.158-.043.264-.189.245-.309a.302.302 0 00-.238-.264 2.113 2.113 0 00-.465-.067c-.409.001-.819.014-1.229.034-.913.045-1.825.108-2.739.144-.614.024-1.229.012-1.845.018-.093.001-.192 0-.28.026a.36.36 0 00-.149.607.471.471 0 00.245.124c.218.031.439.05.659.048.394-.005.787-.029 1.181-.045zm4.892-28.525c-.046.038-.115.076-.155.134a.155.155 0 00.037.213c.113.082.236.157.365.208.205.08.419.136.629.204a5.577 5.577 0 012.744 1.925c.289.374.559.763.816 1.159.333.516.638 1.05.967 1.57.547.863 1.275 1.558 2.076 2.181.11.087.239.152.364.218a.332.332 0 00.18.041c.055-.006.126-.04.151-.084.025-.043.023-.135-.008-.17-.093-.104-.2-.199-.312-.283-.979-.74-1.809-1.615-2.415-2.69-.1-.179-.206-.355-.316-.528-.289-.45-.567-.91-.876-1.347-.815-1.154-1.878-1.985-3.233-2.422-.284-.092-.565-.195-.848-.292-.044-.015-.091-.02-.166-.037zm41.001 4.082h-.098c-.085.01-.149.05-.178.132a.203.203 0 00.095.24c.056.03.113.06.174.074.995.247 1.955.603 2.905.979 2.209.874 4.196 2.09 5.778 3.898a.997.997 0 00.132.134c.065.053.143.071.218.023a.145.145 0 00.047-.207c-.139-.227-.269-.465-.441-.667a5.894 5.894 0 00-.704-.697c-1.413-1.174-2.942-2.165-4.666-2.825-.794-.303-1.599-.576-2.4-.857-.208-.072-.423-.123-.636-.18-.09-.025-.183-.038-.226-.047zm-26.297 6.826c-.017-.035-.032-.125-.086-.166a4.266 4.266 0 00-.511-.332c-.879-.484-1.798-.9-2.593-1.527a.523.523 0 00-.212-.09c-.081-.017-.164.016-.196.094a.244.244 0 00.001.178c.032.067.088.131.149.176.239.178.472.371.73.516.753.421 1.517.823 2.278 1.23.082.043.176.065.266.09.065.018.165-.06.174-.169zm-4.943-11.314c.3.028.706.061 1.11.105.281.031.56.075.839.113.122.017.215-.02.273-.133.029-.055.062-.11.082-.168.007-.02-.011-.064-.029-.073a.593.593 0 00-.176-.062c-.497-.069-.993-.149-1.492-.194a9.838 9.838 0 00-1.082-.02c-.154.002-.308.05-.46.085a.202.202 0 00-.116.072c-.032.049-.066.116-.056.168.01.051.064.114.113.133a.589.589 0 00.229.021c.219-.01.438-.027.765-.047zm-20.035-6.015c-.011-.026-.016-.064-.036-.073-.019-.009-.051.012-.078.02l.046.098c.022-.016.046-.03.068-.045z"></path><path fill="#000" d="M98.515 63.518c.35-.028.633-.055.916-.073.144-.009.202.052.188.201-.042.456-.092.91-.14 1.365-.046.44-.104.878-.14 1.318a44.936 44.936 0 00-.129 4.163c.01.87.056 1.736.132 2.6.118 1.353.313 2.695.577 4.027.499 2.528 1.229 4.99 2.098 7.414.54 1.505 1.22 2.944 2.105 4.28.117.176.12.311.002.468-.01.013-.017.027-.025.04-.081.128-.127.147-.274.119-.356-.068-.711-.14-1.068-.202-.403-.07-.788.008-1.151.18a7.257 7.257 0 00-.707.383c-.475.292-.975.33-1.504.194-.765-.198-1.5-.488-2.234-.771-1.56-.603-3.113-1.22-4.669-1.833-1.453-.573-2.942-1.046-4.417-1.556-1.61-.556-3.22-1.111-4.848-1.61-.995-.305-1.99-.611-2.978-.939-.568-.188-1.123-.417-1.68-.635-.265-.104-.516-.244-.784-.334-.687-.23-1.263-.64-1.82-1.084-.77-.613-1.432-1.33-2.054-2.09-.3-.366-.613-.722-.93-1.073a3.3 3.3 0 01-.516-.732c-.979-1.948-1.87-3.933-2.563-6.002-.491-1.467-.84-2.972-1.103-4.497-.33-1.922-.416-3.856-.382-5.801.02-1.107.102-2.208.234-3.304.24-2.008.646-3.984 1.207-5.927 1.224-4.234 3.07-8.174 5.595-11.79a33.458 33.458 0 015.093-5.779 26.793 26.793 0 015.463-3.805c.727-.382 1.447-.77 2.217-1.059.606-.226 1.215-.444 1.851-.57.185-.036.38-.04.558-.097.473-.15.936-.1 1.39.055.231.08.458.102.697.077.094-.01.19-.01.284-.018 2.457-.182 4.603.559 6.451 2.18 1.143 1.003 2.01 2.217 2.712 3.557.728 1.392 1.243 2.864 1.601 4.39.172.736.299 1.484.447 2.226a.906.906 0 01-.066.6c-.091.182-.183.364-.278.545-.006.01-.067.009-.071 0a.567.567 0 01-.034-.136 28.445 28.445 0 00-.562-3.022c-.39-1.552-.926-3.047-1.705-4.45-.562-1.014-1.234-1.946-2.072-2.751-1.044-1.002-2.25-1.726-3.658-2.092a7.347 7.347 0 00-1.964-.261c-.03 0-.06.014-.09.021.015.038.021.085.048.111.067.067.146.12.215.186.17.163.343.326.506.497.24.252.412.548.584.852.638 1.128.919 2.34.938 3.625.016 1.066-.161 2.105-.44 3.13-.335 1.236-.805 2.423-1.314 3.596a77.503 77.503 0 01-2.8 5.741c-1.43 2.67-2.883 5.33-4.323 7.994-.255.473-.484.959-.62 1.481-.044.166-.064.34-.08.512a.81.81 0 00.269.68c.114.109.236.21.364.302.243.174.494.339.742.507 1.707 1.16 3.041 2.645 3.947 4.506l.169.34c.218.446.119.437.716.36.72-.091 1.439-.184 2.16-.256.77-.077 1.54-.13 2.31-.194.2-.016.23-.039.268-.256.048-.28.087-.561.125-.842a38.6 38.6 0 01.902-4.497c.807-3.112 1.941-6.1 3.461-8.936 1.825-3.41 4.108-6.472 6.954-9.1 2.72-2.51 5.787-4.47 9.27-5.754.576-.212 1.166-.388 1.751-.575a.919.919 0 01.277-.04c.108 0 .209.096.236.2.031.117.014.234-.084.3-.101.07-.222.113-.34.153-.523.177-1.052.335-1.57.524-2.539.928-4.868 2.24-7.013 3.88-2.851 2.18-5.22 4.804-7.194 7.792-2.157 3.264-3.738 6.793-4.827 10.546a39.978 39.978 0 00-1.152 5.215c-.053.359-.114.717-.164 1.076-.026.185.02.233.194.234h.313zM69.038 60.5h-.021c0 .41-.001.82.001 1.231 0 .046.02.091.032.136.057-.02.124-.026.17-.06.176-.135.34-.283.517-.415.082-.062.173-.184.28-.11.052.037.048.175.046.266-.026 1.362.135 2.708.347 4.05.116.732.23 1.463.23 2.21 0 .471.045.946.093 1.416.126 1.225.349 2.434.604 3.639.116.548.401.982.725 1.41.025.033.091.011.11-.036.016-.043.034-.087.047-.132.133-.485.265-.972.4-1.457a.993.993 0 01.07-.173c.076-.154.16-.305.234-.461.402-.85.907-1.626 1.616-2.255 1.127-1.001 2.44-1.34 3.913-1.064.339.064.662.217 1.001.271.265.042.474.156.68.304.18.129.362.253.542.38a9.64 9.64 0 012.459 2.534c.685 1.015 1.186 2.118 1.587 3.27.375 1.072.673 2.167.96 3.266.244.93.493 1.86.749 2.786.122.442.286.868.492 1.28.29.579.739.976 1.35 1.186.312.107.63.204.948.293 1.914.53 3.855.957 5.787 1.414.292.069.585.126.879.185.073.015.127-.047.1-.108a.989.989 0 00-.042-.084c-.413-.73-.715-1.51-1.003-2.296-.635-1.735-1.134-3.51-1.59-5.299a27.089 27.089 0 01-.715-3.952c-.041-.407-.01-.821-.122-1.222a.717.717 0 01.002-.283c.066-.451.104-.91.213-1.35.173-.702.221-1.398.075-2.107-.019-.092-.02-.188-.028-.282-.032-.33-.058-.66-.099-.99-.017-.138-.034-.296-.108-.407-.166-.246-.211-.521-.258-.8a6.631 6.631 0 00-.457-1.587c-.209-.477-.415-.955-.638-1.425-.739-1.555-1.812-2.841-3.172-3.89-.337-.26-.7-.485-1.046-.735-.242-.175-.49-.348-.708-.552-.41-.383-.558-.863-.468-1.42a4.52 4.52 0 01.252-.91c.251-.65.587-1.257.92-1.867 1.064-1.953 2.14-3.9 3.192-5.861 1.163-2.17 2.287-4.359 3.294-6.607.496-1.109.952-2.234 1.32-3.393.415-1.305.644-2.633.559-4.007a6.653 6.653 0 00-.405-1.938c-.462-1.234-1.253-2.182-2.457-2.754-.728-.347-1.485-.513-2.296-.332-.509.114-1.003.27-1.493.447-.729.263-1.419.61-2.114.949-1.338.652-2.612 1.404-3.779 2.33-.37.295-.733.6-1.096.905a31.981 31.981 0 00-5.03 5.325c-2.432 3.244-4.288 6.798-5.61 10.631a37.51 37.51 0 00-1.481 5.67c-.16.9-.284 1.807-.392 2.715-.08.704-.113 1.414-.168 2.122z"></path><path fill="#000" d="M100.276 69.488c.045-.84.088-1.849.159-2.856.057-.802.139-1.603.227-2.402.039-.359.115-.714.181-1.07.147-.79.287-1.582.451-2.369a39 39 0 012.378-7.472 36.923 36.923 0 014.139-7.265c2.119-2.886 4.612-5.394 7.563-7.434a27.036 27.036 0 015.105-2.773 1.61 1.61 0 01.408-.103c.135-.016.251.08.285.202a.261.261 0 01-.106.292c-.1.074-.214.134-.33.18-1.369.541-2.665 1.225-3.913 2a28.652 28.652 0 00-3.967 2.986c-2.733 2.443-4.96 5.29-6.766 8.472-1.891 3.33-3.231 6.875-4.089 10.604-.184.798-.322 1.607-.479 2.412-.012.062-.017.125-.024.188-.033.313-.023.327.279.338.236.01.473.01.709.022.182.01.222.064.196.237-.091.593-.194 1.183-.27 1.778a88.996 88.996 0 00-.258 2.303c-.134 1.338-.111 2.681-.072 4.022.033 1.15.103 2.3.244 3.445a31.598 31.598 0 003.508 11.078c.549 1.03 1.137 2.04 1.707 3.058.031.055.068.107.1.16l.26.442c-.16.134-.353.071-.531.085-.141.01-.285-.019-.426-.004-.281.03-.472-.1-.657-.294a12.265 12.265 0 01-1.856-2.561 21.893 21.893 0 01-1.46-3.283c-.57-1.622-1.099-3.256-1.506-4.929a41.045 41.045 0 01-.884-4.74c-.121-.986-.217-1.976-.234-2.972-.009-.535-.042-1.07-.071-1.777zm4.273-25.675c-.029.186-.052.373-.09.556a.577.577 0 01-.103.207c-.088.119-.295.111-.362-.02-.055-.109-.113-.235-.11-.352.006-.25.044-.5.082-.747.018-.115.1-.193.218-.224.191-.051.36.058.369.25.005.108-.01.218-.016.328l.012.002zm33.875 19.146c-.031.3-.059.595-.097.889a.618.618 0 01-.085.215c-.062.104-.164.139-.282.125-.102-.012-.18-.07-.21-.163a.707.707 0 01-.04-.272c.02-.265.049-.529.087-.79.018-.123.058-.244.105-.358.043-.105.126-.18.252-.175.104.004.184.083.219.21.012.045.024.09.031.137.01.061.014.124.02.182z"></path></svg>