<?xml version="1.0" encoding="utf-8"?>
<svg version="1.1" id="Layer_1" xmlns="http://www.w3.org/2000/svg" xmlns:xlink="http://www.w3.org/1999/xlink" x="0px" y="0px"
	 viewBox="0 0 323.8 189.4" style="enable-background:new 0 0 323.8 189.4;" xml:space="preserve">
<style type="text/css">
	.st0{fill:#FFFCF7;}
	.st1{fill:#231F20;stroke:#FFFCF7;stroke-width:1.47;stroke-miterlimit:10;}
	.st2{fill:#CFFD3C;}
	.st3{fill:#FFFCF7;stroke:#D0DD28;stroke-width:1.47;stroke-miterlimit:10;}
	.st4{fill:#FB4C4E;}
	.st5{fill:#FFFCF7;stroke:#FB4C4E;stroke-width:1.47;stroke-miterlimit:10;}
	.st6{fill:#8B83F6;}
	.st7{fill:#FFFCF7;stroke:#8B83F6;stroke-width:1.47;stroke-miterlimit:10;}
	.st8{fill:#FFFCF7;stroke:#000000;stroke-width:1.47;stroke-miterlimit:10;}
</style>
<g>
	<path d="M72.7,149.63c0,29.56-9.35,39.76-36.35,39.76S0,179.19,0,149.63V3.14h12.98v131.85c0,12.3,6.75,17.27,23.37,17.27
		s23.37-4.97,23.37-17.27V3.14H72.7V149.63z"/>
	<path d="M120.3,186.26H83.95v-37.15h36.35c19.21,0,23.37-4.97,23.37-17.27V3.14h12.98V146.5
		C156.65,175.79,150.16,186.26,120.3,186.26z"/>
	<path d="M203.72,186.26h-36.35v-37.15h36.35c19.21,0,23.37-4.97,23.37-17.27V3.14h12.98V146.5
		C240.08,175.79,233.58,186.26,203.72,186.26z"/>
	<path d="M287.44,189.4c-29.86,0-36.35-10.46-36.35-39.76V39.76c0-29.3,6.49-39.76,36.35-39.76s36.35,10.46,36.35,39.76v109.87
		C323.8,178.93,317.3,189.4,287.44,189.4z M287.44,37.15c-19.21,0-23.37,4.97-23.37,17.27v80.57c0,12.3,4.15,17.27,23.37,17.27
		s23.37-4.97,23.37-17.27V54.41C310.81,42.12,306.66,37.15,287.44,37.15z"/>
</g>
<path class="st8" d="M297.52,53.12h-48.18c-0.3,0-0.58-0.14-0.76-0.38l-11.91-16.23c-6.16-8.39-11.58-14.12-16.12-17.02
	c-2.34-1.5-5.46-2.63-9.29-3.36c-3.74-0.72-8.28-1.08-13.48-1.08h-7.15h-0.56c-0.65,0-1.11,0.65-0.88,1.27l0.2,0.52l4.24,11.26
	l0.09,0.25c0.14,0.36,0.49,0.61,0.88,0.61h0.27h9c7.39,0,13.06,0.78,16.85,2.32c3.74,1.51,7.83,5.15,12.16,10.8l7.29,9.54
	c0.47,0.62,0.03,1.51-0.75,1.51H28.19H27.8c-0.52,0-0.94,0.42-0.94,0.94v0.39v9.4v0.39c0,0.52,0.42,0.94,0.94,0.94h0.38h50.95
	c0.24,0,0.47,0.09,0.64,0.25c3.59,3.37,5.4,6.8,5.4,10.21c0,4.11-1.77,7.06-5.4,9.03c-3.84,2.09-10.83,3.2-20.77,3.29l-0.64,0.01
	c-0.7,0.01-1.15,0.76-0.82,1.38l0.3,0.56l5.36,10l0.11,0.21c0.17,0.31,0.5,0.5,0.85,0.49l0.24-0.01c6.24-0.16,11.58-1.04,15.88-2.61
	c0.31-0.11,0.66-0.05,0.92,0.17c2.3,1.92,4.07,4.02,5.28,6.27c1.37,2.54,2.06,5.35,2.06,8.36c0,3.84-1.43,6.83-4.36,9.12
	c-3.03,2.37-6.44,3.53-10.41,3.53c-4.04,0-8.11-1.66-12.11-4.93c-4.13-3.38-8.59-8.86-13.26-16.3L38.35,88.24l-0.2-0.31
	c-0.27-0.42-0.82-0.56-1.26-0.31l-0.32,0.18l-2.78,1.59l-0.35,0.2c-0.46,0.26-0.61,0.86-0.33,1.31l0.21,0.34l10.26,16.42
	c7.85,12.54,14.03,20.33,18.9,23.82c4.88,3.5,10.09,5.28,15.47,5.28c6.14,0,11.32-1.86,15.39-5.54c4.11-3.71,6.2-8.48,6.2-14.19
	c0-4.49-1.22-8.76-3.64-12.71c-1.94-3.17-4.7-6.2-8.21-9.02c-0.47-0.37-0.47-1.08-0.01-1.46c1.75-1.44,3.15-3.1,4.2-4.97
	c1.52-2.71,2.29-5.89,2.29-9.46c0-4.89-1.51-9.14-4.5-12.69c-0.51-0.61-0.08-1.54,0.71-1.54h124.42c0.52,0,0.94,0.42,0.94,0.94
	v11.24c0,0.52-0.42,0.94-0.94,0.94h-36.92h-0.94c-0.84,0-1.26,1.02-0.66,1.6l0.67,0.66c8.21,8.08,13.08,13.51,14.49,16.14
	c1.37,2.55,2.06,4.73,2.06,6.5c0,2.29-0.69,4.07-2.11,5.43c-1.44,1.38-3.26,2.05-5.57,2.05c-3.21,0-7.04-2.06-11.38-6.13
	c-3.43-3.22-7.07-8.64-10.82-16.12l-0.01-0.02l-4.29-9.34l-0.1-0.22c-0.15-0.33-0.49-0.55-0.85-0.55h-0.25h-34.32h-0.94
	c-0.84,0-1.26,1.02-0.66,1.61l0.67,0.66c8.21,8.08,13.08,13.5,14.49,16.14c1.37,2.55,2.06,4.73,2.06,6.5c0,2.29-0.69,4.07-2.11,5.43
	c-1.44,1.38-3.26,2.05-5.57,2.05c-3.21,0-7.04-2.06-11.38-6.13c-4.46-4.18-9.25-12.06-14.23-23.41l-0.18-0.4
	c-0.23-0.52-0.86-0.72-1.34-0.43l-0.38,0.22l-2.65,1.59l-0.27,0.16c-0.38,0.23-0.55,0.7-0.4,1.12l0.11,0.3
	c4.32,12.1,9.37,21.74,15.03,28.64c2.87,3.51,5.84,6.2,8.81,7.97c3.05,1.82,6.19,2.74,9.33,2.74c5.07,0,9.31-1.68,12.62-4.99
	c3.31-3.31,4.99-7.51,4.99-12.49c0-2.72-0.8-5.6-2.38-8.55c-0.9-1.69-2.08-3.44-3.51-5.22c-0.49-0.61-0.06-1.52,0.73-1.52h10.34
	c0.38,0,0.72,0.23,0.87,0.58c3.65,8.78,7.78,16,12.27,21.49c2.87,3.51,5.84,6.2,8.81,7.97c3.05,1.82,6.19,2.74,9.33,2.74
	c5.07,0,9.31-1.68,12.62-4.99c3.31-3.31,4.99-7.51,4.99-12.49c0-2.72-0.8-5.6-2.38-8.55c-0.9-1.69-2.08-3.44-3.51-5.22
	c-0.49-0.61-0.06-1.52,0.73-1.52h14.07c0.52,0,0.94,0.42,0.94,0.94v39.66v0.15c0,0.24,0.09,0.46,0.25,0.63l0.1,0.11l7.68,8.34
	l0.11,0.13c0.18,0.19,0.43,0.3,0.69,0.3h0.17h2.78h0.38c0.52,0,0.94-0.42,0.94-0.94v-0.39v-73.1c0-0.52,0.42-0.94,0.94-0.94h12.37
	c0.52,0,0.94,0.42,0.94,0.94V130v0.14c0,0.22,0.08,0.44,0.23,0.61l0.09,0.11l7.95,9.2l0.12,0.13c0.18,0.21,0.44,0.32,0.71,0.32h0.18
	h2.45h0.39c0.52,0,0.94-0.42,0.94-0.94v-0.38v-73.1c0-0.52,0.42-0.94,0.94-0.94h40.44h0.39c0.52,0,0.94-0.42,0.94-0.94v-0.38v-9.41
	v-0.39c0-0.52-0.42-0.94-0.94-0.94L297.52,53.12L297.52,53.12z"/>
</svg>
