<svg xmlns:xlink="http://www.w3.org/1999/xlink" xmlns="http://www.w3.org/2000/svg" fill="none" viewBox="0 0 66 30" width="79"  height="35.90909090909091" ><g fill="#000" clip-path="url(#divider_svg__clip0)"><path d="M38.587 21.073c-.127-.073-.255-.145-.381-.22a7.015 7.015 0 00-1.451-.685 6.848 6.848 0 01-.674-.271c-.182-.081-.375-.131-.565-.19-.75-.228-1.539-.303-2.301-.478-.034-.008-.068-.017-.103-.018-.048-.002-.093.024-.107.072a2.83 2.83 0 00-.074.327c-.005.027.022.07.046.086.093.063.193.11.308.13.378.068.754.141 1.13.214.163.031.325.064.487.1.059.013.119.029.172.056.125.064.257.098.4.109.085.007.173.03.25.066.437.21.899.36 1.351.534.105.04.206.09.303.146.442.254.882.512 1.323.77.164.095.327.193.49.289.345.202.717.343 1.104.447.461.124.92.254 1.382.378.269.072.543.125.827.126.417.002.82.072 1.225.142.3.052.605.09.908.133l1.193.17c.104.015.208.029.312.04.23.026.458-.007.685-.089a1.51 1.51 0 01.312-.084c.177-.023.308-.104.375-.285.026-.072.073-.106.142-.112.302-.024.603-.048.895.027.092.024.187.04.281.058a.59.59 0 00.416-.063c.305-.173.62-.194.938-.159.62.07 1.226.19 1.824.345.488.126.97.276 1.464.378.58.12 1.147.285 1.72.43.519.132 1.047.182 1.592.136.381-.033.762-.056 1.143-.1.532-.064 1.063-.078 1.594-.102.683-.03 1.365-.084 2.046-.208.052-.01.108-.02.158-.013.027.004.05.042.067.07.004.009-.022.051-.04.057-.304.104-.58.276-.856.447-.331.205-.663.409-.993.616-.086.054-.174.109-.25.177a.73.73 0 00-.159.194c-.095.177.009.344.199.325a.61.61 0 00.18-.052c.067-.03.13-.071.193-.11.418-.258.838-.513 1.254-.776.327-.206.673-.34 1.038-.411.07-.014.14-.032.211-.042.719-.106 1.332-.47 1.882-.977a1.26 1.26 0 01.438-.284.534.534 0 00.27-.188.39.39 0 01.253-.157c.118-.02.213.029.247.143a.547.547 0 01-.054.428c-.146.254-.278.517-.458.752-.143.188-.272.387-.413.577-.261.355-.58.644-.932.894a8.556 8.556 0 01-1.05.627c-.229.117-.457.239-.684.36a1.356 1.356 0 00-.332.256 8.865 8.865 0 01-.367.35 1.666 1.666 0 01-.411.286c-.074.035-.142.086-.21.135-.167.119-.328.248-.498.361-.265.176-.545.31-.848.38-.13.03-.263.074-.386.133a.974.974 0 01-.492.114.753.753 0 00-.29.037c-.631.226-1.277.314-1.924.385-.355.04-.71.052-1.063.083-.301.026-.603.058-.904.091-.39.043-.779.09-1.169.136-.053.006-.104.01-.149.054-.159.152-.353.193-.55.222a4.535 4.535 0 01-.874.038 1.661 1.661 0 00-.476.031.593.593 0 01-.46-.058c-.06-.037-.113-.032-.174-.01-.068.025-.137.048-.206.074-.258.095-.52.155-.788.175-.15.012-.3.037-.451.057-.25.032-.491.018-.736-.026a90.104 90.104 0 00-2.377-.394c-.899-.135-1.803-.245-2.7-.384a17.76 17.76 0 01-1.357-.28c-.6-.142-1.197-.3-1.777-.506a31.226 31.226 0 01-1.021-.383 2.097 2.097 0 01-.367-.193c-.29-.188-.58-.377-.86-.58-.225-.162-.405-.378-.575-.6a7.723 7.723 0 01-.265-.36c-.322-.47-.744-.824-1.215-1.122-.293-.186-.613-.318-.93-.455-.2-.085-.404-.157-.605-.236a.735.735 0 00-.33-.068.248.248 0 00-.231.17.216.216 0 00.057.249c.07.062.15.118.236.156.213.095.43.18.648.266.535.211 1.031.486 1.462.87.084.075.16.16.235.244.029.031.05.07.073.106-.051.046-.1.022-.15.007-.29-.093-.6-.11-.901-.156-.423-.066-.846-.128-1.27-.193a3.653 3.653 0 01-.677-.187c-.562-.2-1.126-.4-1.686-.608-.332-.123-.66-.258-.987-.396-.422-.178-.841-.363-1.26-.547-.191-.083-.38-.168-.568-.256-.305-.144-.608-.292-.913-.436-.273-.128-.55-.252-.824-.379-.267-.123-.534-.245-.798-.373-.242-.116-.479-.24-.72-.358-.436-.21-.87-.425-1.31-.626a4.064 4.064 0 01-.885-.582 29.004 29.004 0 01-1.872-1.687c-.167-.164-.348-.312-.522-.468-.011-.01-.016-.028-.024-.042l.073-.029c.008-.003.018 0 .026.002.3.056.598.125.88.237.458.182.904.393 1.328.644.439.26.888.502 1.36.697.49.201 1.004.33 1.531.415a.72.72 0 00.237-.012.347.347 0 00.147-.072c.115-.092.13-.24.036-.338a.325.325 0 00-.127-.085c-.09-.03-.184-.048-.278-.068-.384-.078-.767-.163-1.13-.305a7.787 7.787 0 01-1.06-.488c-.225-.128-.446-.265-.675-.386-.45-.238-.906-.465-1.396-.62a5.09 5.09 0 00-1.309-.24c-.237-.011-.475-.018-.712-.028-.088-.003-.177-.004-.264-.015-.094-.012-.188-.026-.258-.106-.062-.07-.15-.089-.242-.055-.093.034-.177.012-.259-.012a12.92 12.92 0 01-1.298-.457c-.383-.16-.767-.317-1.138-.503a4.174 4.174 0 01-.341-.185c-.25-.156-.495-.318-.74-.478a3.2 3.2 0 01-.712-.603c-.095-.112-.175-.24-.26-.361-.025-.036-.041-.08-.067-.114-.036-.048-.105-.087-.11-.139-.005-.077.03-.162.055-.242.023-.071.056-.14.085-.21.096-.228.164-.462.18-.706.007-.093.017-.186.018-.278.008-.409.073-.813.158-1.219.08-.388.194-.76.359-1.125.322-.713.82-1.19 1.556-1.365.375-.09.742-.11 1.092.036.064.027.134.037.199.061.232.087.474.102.726.072.418-.05.833-.063 1.243-.007.433.06.865.127 1.277.266.173.057.34.13.511.19a.905.905 0 00.252.06c.164.007.268-.16.193-.309a.748.748 0 00-.38-.342 4.543 4.543 0 00-.968-.298c-.162-.033-.326-.06-.489-.09a5.385 5.385 0 00-1.58-.041c-.226.027-.442.02-.647-.064-.032-.014-.07-.014-.1-.027-.503-.213-1.027-.165-1.561-.021-.061.016-.121.039-.183.052-.022.004-.058-.003-.043-.042.058-.15.12-.299.242-.411.082-.077.161-.16.25-.226.196-.145.384-.3.556-.474a.467.467 0 01.238-.132c.23-.051.442-.152.655-.27.191-.107.405-.166.612-.23.074-.024.159-.011.236 0 .121.016.242.038.36.068.429.11.86.217 1.284.34.275.08.544.177.81.28.718.279 1.438.553 2.175.783.256.08.517.15.775.225.358.106.702.248 1.035.415.432.218.86.441 1.274.694.443.27.795.636 1.08 1.076.149.228.294.46.45.68.306.432.673.802 1.058 1.152.089.08.196.142.299.205.075.046.16.062.253.044.153-.029.252-.205.178-.34a.682.682 0 00-.187-.214c-.237-.177-.441-.39-.648-.6a5.58 5.58 0 01-.67-.837.85.85 0 01-.062-.116c-.004-.007.013-.036.02-.036.07 0 .14 0 .21.006a6.58 6.58 0 011.428.307c.238.078.474.166.69.295.297.177.6.345.89.532.233.148.449.324.678.477.38.256.75.526 1.153.747.022.012.044.029.069.035.239.062.436.207.65.318.153.08.31.152.464.231.292.151.575.314.843.507.435.313.851.651 1.265.993.38.314.758.632 1.153.926.34.253.696.482 1.053.71.76.483 1.475 1.024 2.094 1.691.362.39.762.735 1.168 1.073.172.143.359.27.544.396.23.155.46.31.699.448.262.15.53.29.804.418.705.332 1.36.753 2.047 1.12.03.016.06.034.088.054.013.01.021.027.032.04-.023.014-.047.038-.07.038-.122.001-.248.008-.368-.008-.312-.042-.621-.095-.932-.144-.077-.012-.154-.032-.233-.036-.448-.027-.885-.109-1.323-.189a5.519 5.519 0 00-.966-.1 2.876 2.876 0 01-.727-.098c-.562-.15-1.122-.306-1.681-.465a3.134 3.134 0 01-.716-.304l-.943-.544c.004-.004.007-.01.01-.016z"></path><path d="M7.575 7.819c.136.06.314.15.5.218.284.105.572.2.862.29.283.088.578.124.88.12.141 0 .283-.003.424-.012a4.849 4.849 0 011.286.079c.052.01.105.014.155.028.08.022.155.002.231-.04.138-.075.278-.143.417-.215a.934.934 0 01.364-.103c.212-.015.425-.035.637-.04.213-.005.421-.029.633-.092.233-.07.473-.107.71-.154.177-.036.349-.09.518-.163a4.183 4.183 0 011.123-.298c.267-.036.529 0 .786.05.115.022.143.114.08.23a1.04 1.04 0 01-.364.386c-.367.23-.667.54-.942.878a.945.945 0 00-.157.268 1.5 1.5 0 01-.36.537c-.085.088-.172.175-.254.266a.744.744 0 01-.24.187c-.134.062-.21.165-.247.32-.047.19-.111.38-.195.56-.17.364-.264.745-.329 1.134-.042.249-.075.499-.118.747a9.905 9.905 0 01-.412 1.638c-.04.114-.097.226-.16.332-.125.21-.418.266-.576.106a1.238 1.238 0 01-.183-.254.806.806 0 01-.087-.224c-.07-.307-.222-.561-.403-.8-.163-.217-.305-.45-.47-.666-.192-.249-.399-.484-.597-.727a71.817 71.817 0 01-.576-.712.823.823 0 01-.183-.438c-.006-.06-.035-.1-.09-.119a13.104 13.104 0 01-1.289-.545c-.493-.23-.98-.473-1.45-.747-.32-.186-.619-.409-.923-.621a10.117 10.117 0 01-.933-.743 7.576 7.576 0 01-1.129-1.263c-.163-.228-.32-.461-.466-.701a4.76 4.76 0 01-.662-2.06 5.02 5.02 0 01.06-1.495c.055-.266.116-.532.182-.796a.541.541 0 00.015-.245 1.106 1.106 0 01.146-.78c.095-.164.202-.322.32-.469.159-.198.379-.24.575-.123.066.04.13.09.177.15.142.176.282.356.41.544.182.267.181.573-.018.85a1.628 1.628 0 00-.195.405c-.032.088-.05.181-.077.272-.045.157-.07.302.034.443.047.063.046.171.054.261.007.081-.002.166-.004.25a3.73 3.73 0 00.361 1.714c.121.256.253.507.394.752.253.44.588.805.989 1.099.237.174.482.335.766.531z"></path></g><defs><clipPath id="divider_svg__clip0"><path fill="#fff" d="M0 0h66v30H0z"></path></clipPath></defs></svg>